<svg width="260" height="469" viewBox="0 0 260 469" fill="none" xmlns="http://www.w3.org/2000/svg">
<path fill-rule="evenodd" clip-rule="evenodd" d="M5.32764 281.797H232.121V443.324H5.32764V281.797Z" fill="#FFDEBD"/>
<path fill-rule="evenodd" clip-rule="evenodd" d="M231.891 281.797H5.32764V246.738H231.898V281.797H231.891ZM203.676 362.001C176.359 362.001 154.212 384.593 154.212 412.464C154.212 440.328 176.359 462.92 203.676 462.92C230.994 462.92 253.14 440.328 253.14 412.464C253.14 384.593 230.994 362.001 203.676 362.001Z" fill="white"/>
<path fill-rule="evenodd" clip-rule="evenodd" d="M31.4839 223.477H51.1129V261.054H31.4839V223.477ZM186.282 224.996V262.573H205.911V224.996H186.282Z" fill="#FFDEBD"/>
<path d="M203.055 236.052H187.476V226.521H203.055V236.052ZM208.125 257.733C208.098 258.125 208.044 258.509 207.969 258.881H231.891V249.35H205.978C206.781 252.171 208.314 254.642 208.125 257.733ZM187.53 258.881C186.714 256.37 186.383 253.595 186.369 251.125C186.369 250.511 186.457 249.91 186.639 249.35H51.2411C51.4773 249.998 51.6191 250.706 51.7001 251.483C51.9633 253.96 51.8823 256.619 50.7281 258.881H187.53ZM33.1511 251.483C33.1578 250.72 33.3063 250.011 33.5561 249.35H7.16357V258.881H33.8058C33.6708 258.57 33.5426 258.26 33.4413 257.929C32.8001 255.796 33.1308 253.649 33.1511 251.483ZM253.14 412.464C253.14 400.152 248.814 388.866 241.632 380.104C240.545 379.132 239.411 378.201 238.25 377.316C228.894 370.202 217.237 365.976 204.594 365.976C189.252 365.976 175.353 372.186 165.289 382.224C163.689 383.83 162.184 385.524 160.787 387.306C156.602 394.711 154.212 403.304 154.212 412.464C154.212 421.313 156.453 429.636 160.375 436.865C158.701 432.066 157.783 426.875 157.783 421.461C157.783 408.555 163.021 396.871 171.492 388.42C179.964 379.962 191.668 374.738 204.594 374.738C215.259 374.738 225.081 378.282 232.938 384.255C234.612 385.538 236.205 386.928 237.703 388.413C243.36 394.063 247.585 401.137 249.738 409.055C250.832 413.004 251.406 417.162 251.406 421.455C251.406 423.284 251.298 425.1 251.095 426.875C252.418 422.312 253.14 417.472 253.14 412.464ZM32.9823 236.052H50.4851V226.521H32.9823V236.052Z" fill="white"/>
<path d="M228.516 393.921C230.143 395.534 230.15 398.16 228.537 399.773L195.948 432.335C194.334 433.955 191.702 433.962 190.082 432.356C189.913 432.187 189.758 432.005 189.63 431.816L180.362 418.876C179.039 417.02 179.471 414.428 181.334 413.098C183.204 411.775 185.796 412.207 187.125 414.07L193.538 423.027L222.651 393.935C224.264 392.315 226.89 392.308 228.516 393.921ZM259.506 413.138C259.506 428.333 253.37 442.109 243.441 452.086C233.511 462.069 219.802 468.245 204.662 468.245C189.522 468.245 175.812 462.069 165.876 452.086C164.371 450.567 162.96 448.954 161.631 447.273H4.65938C2.35763 447.273 0.494629 445.41 0.494629 443.115V246.569C0.494629 244.274 2.35763 242.417 4.65938 242.417H27.1571V223.585C27.1571 221.297 29.0201 219.434 31.3151 219.434H52.0646C54.3596 219.434 56.2294 221.297 56.2294 223.585V242.417H181.077V223.585C181.077 221.297 182.94 219.434 185.242 219.434H205.992C208.293 219.434 210.156 221.297 210.156 223.585V242.417H232.661C234.956 242.417 236.826 244.274 236.826 246.569V282.013C236.832 282.121 236.832 282.215 236.832 282.317C236.832 282.425 236.832 282.519 236.826 282.62V368.528C239.175 370.242 241.395 372.132 243.441 374.191C253.37 384.174 259.506 397.944 259.506 413.138ZM189.414 227.743V258.55H201.834V227.743H189.414ZM35.4799 258.55H47.9066V227.743H35.4799V258.55ZM8.82413 250.727V278.165H228.496V250.727H210.163V262.701C210.163 264.996 208.3 266.859 205.998 266.859H185.249C182.947 266.859 181.084 264.996 181.084 262.701V250.727H56.2361V262.701C56.2361 264.996 54.3664 266.859 52.0714 266.859H31.3151C29.0201 266.859 27.1504 264.996 27.1504 262.701V250.727H8.82413ZM156.224 438.957C152.147 431.255 149.818 422.467 149.818 413.138C149.818 407.509 150.669 402.075 152.235 396.952C152.086 396.972 151.938 396.972 151.782 396.972H128.576C126.274 396.972 124.411 395.116 124.411 392.821C124.411 390.526 126.274 388.663 128.576 388.663H151.782C153.011 388.663 154.111 389.203 154.881 390.047C157.608 384.12 161.347 378.754 165.883 374.184C175.812 364.208 189.528 358.031 204.669 358.031C213.207 358.031 221.287 359.996 228.503 363.506V286.475H8.82413V438.957H156.224ZM251.176 413.138C251.176 400.199 245.972 388.494 237.555 380.036C235.401 377.87 233.025 375.919 230.487 374.211C230.42 374.164 230.346 374.123 230.278 374.076C222.934 369.196 214.132 366.354 204.669 366.354C191.817 366.354 180.186 371.579 171.769 380.043C163.352 388.501 158.148 400.205 158.148 413.145C158.148 423.439 161.442 432.929 167.024 440.645C167.078 440.719 167.132 440.786 167.172 440.861C168.576 442.771 170.109 444.58 171.769 446.247C180.186 454.705 191.81 459.936 204.669 459.936C217.514 459.936 229.151 454.712 237.561 446.247C245.972 437.783 251.176 426.078 251.176 413.138ZM65.6996 309.425H42.4931C40.1914 309.425 38.3284 311.288 38.3284 313.583C38.3284 315.878 40.1914 317.734 42.4931 317.734H65.6996C68.0014 317.734 69.8644 315.878 69.8644 313.583C69.8644 311.281 68.0014 309.425 65.6996 309.425ZM171.614 357.356H194.827C197.122 357.356 198.985 355.493 198.985 353.198C198.985 350.903 197.122 349.047 194.827 349.047H171.614C169.319 349.047 167.456 350.903 167.456 353.198C167.456 355.493 169.319 357.356 171.614 357.356ZM91.2686 313.576L84.6671 320.171C83.0471 321.797 83.0606 324.423 84.6874 326.03C86.3141 327.643 88.9399 327.629 90.5531 326.009L97.1344 319.428L103.709 326.009C105.329 327.629 107.961 327.636 109.575 326.03C111.201 324.416 111.208 321.791 109.595 320.171L102.993 313.576L109.595 306.974C111.215 305.354 111.201 302.729 109.575 301.122C107.955 299.502 105.322 299.516 103.709 301.142L97.1344 307.717L90.5531 301.142C88.9331 299.516 86.3074 299.509 84.6874 301.122C83.0606 302.735 83.0539 305.361 84.6671 306.974L91.2686 313.576ZM134.313 313.576L127.705 320.171C126.092 321.797 126.105 324.423 127.725 326.03C129.352 327.643 131.985 327.629 133.591 326.009L140.172 319.428L146.754 326.009C148.374 327.629 150.999 327.636 152.619 326.03C154.246 324.416 154.253 321.791 152.64 320.171L146.031 313.576L152.64 306.974C154.26 305.354 154.246 302.729 152.619 301.122C150.993 299.502 148.367 299.516 146.754 301.142L140.172 307.717L133.591 301.142C131.978 299.516 129.345 299.509 127.725 301.122C126.105 302.735 126.099 305.361 127.705 306.974L134.313 313.576ZM177.351 313.576L170.75 320.171C169.13 321.797 169.143 324.423 170.77 326.03C172.397 327.643 175.023 327.629 176.636 326.009L183.217 319.428L189.792 326.009C191.412 327.629 194.037 327.636 195.657 326.03C197.284 324.416 197.291 321.791 195.678 320.171L189.076 313.576L195.678 306.974C197.298 305.354 197.284 302.729 195.657 301.122C194.037 299.502 191.405 299.516 189.792 301.142L183.217 307.717L176.636 301.142C175.016 299.516 172.39 299.509 170.77 301.122C169.143 302.735 169.137 305.361 170.75 306.974L177.351 313.576ZM66.5434 340.738C64.9166 339.125 62.2909 339.138 60.6776 340.758L54.0896 347.339L47.5084 340.758C45.8951 339.138 43.2626 339.131 41.6426 340.738C40.0226 342.358 40.0159 344.977 41.6224 346.597L48.2306 353.192L41.6224 359.793C40.0091 361.413 40.0226 364.039 41.6426 365.645C43.2694 367.265 45.9019 367.252 47.5084 365.632L54.0896 359.051L60.6709 365.632C62.2909 367.252 64.9166 367.259 66.5366 365.645C68.1634 364.032 68.1701 361.406 66.5569 359.793L59.9486 353.192L66.5569 346.597C68.1769 344.977 68.1701 342.358 66.5434 340.738ZM84.6806 365.652C86.3074 367.272 88.9331 367.259 90.5464 365.639L97.1276 359.057L103.702 365.639C105.322 367.259 107.955 367.265 109.568 365.652C111.195 364.039 111.201 361.413 109.588 359.8L102.987 353.198L109.588 346.604C111.208 344.977 111.195 342.358 109.568 340.745C107.948 339.131 105.315 339.145 103.702 340.765L97.1276 347.346L90.5464 340.765C88.9264 339.145 86.3006 339.138 84.6806 340.745C83.0539 342.365 83.0471 344.984 84.6604 346.604L91.2619 353.198L84.6604 359.8C83.0471 361.413 83.0606 364.039 84.6806 365.652ZM152.633 340.738C151.006 339.125 148.374 339.138 146.767 340.758L140.186 347.339L133.605 340.758C131.991 339.138 129.359 339.131 127.739 340.738C126.112 342.358 126.105 344.977 127.719 346.597L134.327 353.192L127.719 359.793C126.105 361.413 126.112 364.039 127.739 365.645C129.366 367.265 131.991 367.252 133.605 365.632L140.186 359.051L146.767 365.632C148.38 367.252 151.013 367.259 152.633 365.645C154.26 364.032 154.26 361.406 152.653 359.793L146.045 353.192L152.653 346.597C154.26 344.977 154.26 342.358 152.633 340.738ZM108.738 388.67H85.5311C83.2294 388.67 81.3664 390.533 81.3664 392.828C81.3664 395.123 83.2294 396.979 85.5311 396.979H108.738C111.033 396.979 112.896 395.123 112.896 392.828C112.896 390.526 111.033 388.67 108.738 388.67ZM65.6929 388.67H42.4864C40.1914 388.67 38.3216 390.533 38.3216 392.828C38.3216 395.123 40.1914 396.979 42.4864 396.979H65.6929C67.9946 396.979 69.8576 395.123 69.8576 392.828C69.8576 390.526 67.9946 388.67 65.6929 388.67Z" fill="#F77F00"/>
<path d="M225.985 127.006H219.957V145.764H225.985C232.64 145.764 235.286 140.904 235.158 136.132C235.03 131.576 232.35 127.006 225.985 127.006Z" fill="#F77F00"/>
<path d="M38.8143 131.609C38.8143 129.267 37.2685 126.918 33.7923 126.918H25.375V136.301H33.7923C37.3157 136.301 38.8143 133.958 38.8143 131.609Z" fill="#F77F00"/>
<path d="M225.985 151.09C222.381 151.09 218.067 151.09 214.476 151.09V121.768C218.067 121.768 222.381 121.768 225.985 121.768C236.036 121.768 240.511 128.93 240.646 136.179C240.768 143.584 236.245 151.09 225.985 151.09ZM210.568 127.128H194.112V133.878H209.981V139.028H194.112V145.643H210.568V151.09H188.624C188.624 141.33 188.624 131.529 188.624 121.768H210.568V127.128ZM173.119 151.212H167.382L155.198 121.768H161.401L170.23 144.597L179.113 121.768H185.303L173.119 151.212ZM154.935 151.09H148.353L139.815 141.282H134.502V151.09H128.974V121.728C133.611 121.728 138.269 121.768 142.92 121.768C149.825 121.815 153.47 126.419 153.47 131.488C153.47 135.511 151.634 139.568 146.052 140.702L154.935 150.705V151.09ZM124.647 127.128H108.191V133.878H124.067V139.028H108.191V145.643H124.647V151.09H102.71C102.71 141.33 102.71 131.529 102.71 121.768H124.647V127.128ZM86.1994 151.846C80.2054 151.846 75.6019 149.997 73.4352 144.637L78.0387 142.248C79.3279 145.474 82.7164 146.898 86.2872 146.898C89.7567 146.898 93.0237 145.683 93.0237 142.504C93.0237 139.737 90.1347 138.603 86.2399 138.191C80.2527 137.469 74.7244 135.889 74.7244 129.308C74.7244 123.28 80.6712 120.803 86.0779 120.769C90.6342 120.769 95.3727 122.058 97.5934 126.588L93.1924 128.849C92.1867 127.175 89.4259 125.582 86.2399 125.582C82.1427 125.582 80.1717 127.296 80.1717 129.477C80.1717 132.035 83.1822 132.744 86.6989 133.155C92.8144 133.911 98.5047 135.511 98.5047 142.504C98.5047 149.031 92.7334 151.846 86.1994 151.846ZM69.9387 127.128H53.4889V133.878H69.3582V139.028H53.4889V145.643H69.9387V151.09H48.0012C48.0012 141.33 48.0012 131.529 48.0012 121.768H69.9387V127.128ZM45.8074 151.09H39.2397L30.7009 141.282H25.3752V151.09H19.8469V121.728C24.4977 121.728 29.1417 121.768 33.7924 121.768C40.7044 121.815 44.3494 126.419 44.3494 131.488C44.3494 135.511 42.5067 139.568 36.9379 140.702L45.8074 150.705V151.09ZM246.512 101.829H13.4884C12.6919 101.829 12.0439 102.477 12.0439 103.273V169.335C12.0439 170.125 12.6919 170.773 13.4884 170.773H246.512C247.308 170.773 247.956 170.125 247.956 169.335V103.273C247.956 102.477 247.308 101.829 246.512 101.829Z" fill="#F77F00"/>
<path d="M147.942 131.609C147.942 129.267 146.396 126.918 142.92 126.918H134.502V136.301H142.92C146.43 136.301 147.942 133.958 147.942 131.609Z" fill="#F77F00"/>
<path d="M251.797 169.335C251.797 172.251 249.428 174.621 246.512 174.621H13.4882C10.5722 174.621 8.20298 172.251 8.20298 169.335V103.273C8.20298 100.357 10.5722 97.9878 13.4882 97.9878H246.512C249.428 97.9878 251.797 100.357 251.797 103.273V169.335ZM250.116 90.2928H198.722L142.946 17.5616C142.089 19.3976 140.854 21.0243 139.335 22.3271L191.465 90.2928H68.251L120.597 22.2798C119.092 20.9568 117.863 19.3233 117.013 17.4873L60.9745 90.2928H9.88373C4.70649 90.2928 0.521484 94.4913 0.521484 99.6686V172.94C0.521484 178.11 4.70649 182.309 9.88373 182.309H250.116C255.293 182.309 259.492 178.11 259.492 172.94V99.6686C259.492 94.4913 255.293 90.2928 250.116 90.2928Z" fill="#F77F00"/>
<path d="M130 22.2393C135.926 22.2393 140.739 17.4401 140.739 11.5136C140.739 5.57358 135.926 0.767578 130 0.767578C124.073 0.767578 119.261 5.57358 119.261 11.5136C119.261 17.4401 124.073 22.2393 130 22.2393Z" fill="#F77F00"/>
</svg>
