<svg width="356" height="257" viewBox="0 0 356 257" fill="none" xmlns="http://www.w3.org/2000/svg">
<g filter="url(#filter0_dd_5_755)">
<path fill-rule="evenodd" clip-rule="evenodd" d="M313.234 14.5355C312.043 13.2172 309.973 13.2172 308.782 14.5355L299.272 25.0605L24.6 25.0605C21.2397 25.0605 19.5595 25.0605 18.2761 25.7145C17.1471 26.2897 16.2292 27.2076 15.654 28.3365C15 29.62 15 31.3002 15 34.6605V229.771C15 233.131 15 234.811 15.654 236.095C16.2292 237.224 17.1471 238.142 18.2761 238.717C19.5595 239.371 21.2397 239.371 24.6 239.371H331.4C334.76 239.371 336.44 239.371 337.724 238.717C338.853 238.142 339.771 237.224 340.346 236.095C341 234.811 341 233.131 341 229.771V34.6605C341 31.3002 341 29.62 340.346 28.3365C339.771 27.2076 338.853 26.2897 337.724 25.7145C336.44 25.0605 334.76 25.0605 331.4 25.0605L322.744 25.0605L313.234 14.5355Z" fill="white"/>
</g>
<path d="M48.9281 66.1934V54.9134H53.6961C54.9014 54.9134 55.8348 55.2014 56.4961 55.7774C57.1574 56.3427 57.4881 57.1374 57.4881 58.1614C57.4881 58.8334 57.3388 59.4094 57.0401 59.8894C56.7414 60.3694 56.3201 60.7374 55.7761 60.9934C55.2321 61.2387 54.5921 61.3614 53.8561 61.3614L54.1121 61.1054H54.5441C54.9814 61.1054 55.3708 61.2174 55.7121 61.4414C56.0641 61.6654 56.3521 62.0227 56.5761 62.5134L58.1921 66.1934H56.3681L54.7681 62.4974C54.6081 62.06 54.3574 61.7774 54.0161 61.6494C53.6854 61.5214 53.2748 61.4574 52.7841 61.4574H50.5921V66.1934H48.9281ZM50.5921 60.1934H53.4241C54.2241 60.1934 54.8268 60.0227 55.2321 59.6814C55.6481 59.34 55.8561 58.8494 55.8561 58.2094C55.8561 57.5587 55.6481 57.068 55.2321 56.7374C54.8268 56.4067 54.2241 56.2414 53.4241 56.2414H50.5921V60.1934ZM63.5608 66.3374C62.2595 66.3374 61.2355 65.9694 60.4888 65.2334C59.7422 64.4974 59.3688 63.4787 59.3688 62.1774C59.3688 61.3347 59.5288 60.5987 59.8488 59.9694C60.1795 59.34 60.6328 58.8547 61.2088 58.5134C61.7955 58.1614 62.4728 57.9854 63.2408 57.9854C63.9982 57.9854 64.6328 58.1454 65.1448 58.4654C65.6568 58.7854 66.0462 59.2387 66.3128 59.8254C66.5795 60.4014 66.7128 61.084 66.7128 61.8734V62.3854H60.6328V61.4574H65.6088L65.3368 61.6654C65.3368 60.8654 65.1555 60.2467 64.7928 59.8094C64.4408 59.3614 63.9288 59.1374 63.2568 59.1374C62.5102 59.1374 61.9342 59.3987 61.5288 59.9214C61.1235 60.4334 60.9208 61.1427 60.9208 62.0494V62.2094C60.9208 63.1587 61.1502 63.8734 61.6088 64.3534C62.0782 64.8334 62.7395 65.0734 63.5928 65.0734C64.0622 65.0734 64.4995 65.0094 64.9048 64.8814C65.3208 64.7427 65.7155 64.5187 66.0888 64.2094L66.6168 65.3134C66.2435 65.644 65.7902 65.9 65.2568 66.0814C64.7235 66.252 64.1582 66.3374 63.5608 66.3374ZM71.4152 66.3374C70.7432 66.3374 70.1246 66.252 69.5592 66.0814C68.9939 65.9107 68.5246 65.6707 68.1512 65.3614L68.6472 64.2574C69.0419 64.556 69.4792 64.78 69.9592 64.9294C70.4392 65.0787 70.9299 65.1534 71.4312 65.1534C72.0179 65.1534 72.4606 65.052 72.7592 64.8494C73.0579 64.636 73.2072 64.348 73.2072 63.9854C73.2072 63.708 73.1112 63.484 72.9192 63.3134C72.7379 63.1427 72.4339 63.0147 72.0072 62.9294L70.4712 62.6254C69.7886 62.476 69.2712 62.22 68.9192 61.8574C68.5672 61.4947 68.3912 61.0307 68.3912 60.4654C68.3912 59.9854 68.5192 59.5587 68.7752 59.1854C69.0419 58.812 69.4152 58.5187 69.8952 58.3054C70.3859 58.092 70.9566 57.9854 71.6072 57.9854C72.2046 57.9854 72.7592 58.0707 73.2712 58.2414C73.7832 58.412 74.2099 58.6574 74.5512 58.9774L74.0392 60.0494C73.7086 59.772 73.3352 59.5587 72.9192 59.4094C72.5032 59.2494 72.0819 59.1694 71.6552 59.1694C71.0579 59.1694 70.6152 59.2814 70.3272 59.5054C70.0392 59.7294 69.8952 60.0227 69.8952 60.3854C69.8952 60.6627 69.9806 60.892 70.1512 61.0734C70.3326 61.244 70.6152 61.3774 70.9992 61.4734L72.5352 61.7774C73.2606 61.9267 73.8046 62.172 74.1672 62.5134C74.5299 62.8547 74.7112 63.3134 74.7112 63.8894C74.7112 64.3907 74.5726 64.828 74.2952 65.2014C74.0179 65.5747 73.6339 65.8574 73.1432 66.0494C72.6526 66.2414 72.0766 66.3374 71.4152 66.3374ZM80.424 66.3374C79.1226 66.3374 78.0986 65.9694 77.352 65.2334C76.6053 64.4974 76.232 63.4787 76.232 62.1774C76.232 61.3347 76.392 60.5987 76.712 59.9694C77.0426 59.34 77.496 58.8547 78.072 58.5134C78.6586 58.1614 79.336 57.9854 80.104 57.9854C80.8613 57.9854 81.496 58.1454 82.008 58.4654C82.52 58.7854 82.9093 59.2387 83.176 59.8254C83.4426 60.4014 83.576 61.084 83.576 61.8734V62.3854H77.496V61.4574H82.472L82.2 61.6654C82.2 60.8654 82.0186 60.2467 81.656 59.8094C81.304 59.3614 80.792 59.1374 80.12 59.1374C79.3733 59.1374 78.7973 59.3987 78.392 59.9214C77.9866 60.4334 77.784 61.1427 77.784 62.0494V62.2094C77.784 63.1587 78.0133 63.8734 78.472 64.3534C78.9413 64.8334 79.6026 65.0734 80.456 65.0734C80.9253 65.0734 81.3626 65.0094 81.768 64.8814C82.184 64.7427 82.5786 64.5187 82.952 64.2094L83.48 65.3134C83.1066 65.644 82.6533 65.9 82.12 66.0814C81.5866 66.252 81.0213 66.3374 80.424 66.3374ZM85.4783 66.1934V60.1294C85.4783 59.7987 85.4677 59.468 85.4463 59.1374C85.4357 58.796 85.4143 58.46 85.3823 58.1294H86.9503L87.1263 60.2094H86.8703C86.977 59.708 87.1583 59.292 87.4143 58.9614C87.6703 58.6307 87.9797 58.3854 88.3423 58.2254C88.7157 58.0654 89.105 57.9854 89.5103 57.9854C89.681 57.9854 89.825 57.996 89.9423 58.0174C90.0597 58.028 90.177 58.0494 90.2943 58.0814L90.2783 59.5214C90.097 59.4467 89.937 59.404 89.7983 59.3934C89.6703 59.372 89.5103 59.3614 89.3183 59.3614C88.849 59.3614 88.449 59.468 88.1183 59.6814C87.7877 59.884 87.537 60.1614 87.3663 60.5134C87.1957 60.8654 87.1103 61.244 87.1103 61.6494V66.1934H85.4783ZM94.474 66.1934L91.018 58.1294H92.746L95.466 64.8654H95.002L97.77 58.1294H99.418L95.946 66.1934H94.474ZM103.711 66.3374C102.997 66.3374 102.373 66.172 101.839 65.8414C101.306 65.5107 100.89 65.0307 100.591 64.4014C100.303 63.772 100.159 63.0254 100.159 62.1614C100.159 61.2867 100.303 60.54 100.591 59.9214C100.89 59.3027 101.306 58.828 101.839 58.4974C102.373 58.156 102.997 57.9854 103.711 57.9854C104.415 57.9854 105.029 58.1614 105.551 58.5134C106.074 58.8654 106.421 59.3454 106.591 59.9534H106.415L106.575 58.1294H108.143C108.111 58.46 108.079 58.7907 108.047 59.1214C108.026 59.4414 108.015 59.756 108.015 60.0654V66.1934H106.399V64.4014H106.575C106.405 64.9987 106.053 65.4734 105.519 65.8254C104.997 66.1667 104.394 66.3374 103.711 66.3374ZM104.111 65.0734C104.805 65.0734 105.359 64.828 105.775 64.3374C106.202 63.8467 106.415 63.1214 106.415 62.1614C106.415 61.2014 106.202 60.4814 105.775 60.0014C105.359 59.5107 104.805 59.2654 104.111 59.2654C103.407 59.2654 102.842 59.5107 102.415 60.0014C101.999 60.4814 101.791 61.2014 101.791 62.1614C101.791 63.1214 101.999 63.8467 102.415 64.3374C102.831 64.828 103.397 65.0734 104.111 65.0734ZM115.279 66.1934V59.3774H113.711V58.1294H115.727L115.279 58.5454V57.2654C115.279 56.316 115.519 55.596 115.999 55.1054C116.479 54.604 117.183 54.3534 118.111 54.3534C118.335 54.3534 118.57 54.3694 118.815 54.4014C119.06 54.4334 119.263 54.4867 119.423 54.5614V55.8734C119.295 55.82 119.135 55.7774 118.943 55.7454C118.762 55.7027 118.575 55.6814 118.383 55.6814C118.074 55.6814 117.807 55.7454 117.583 55.8734C117.359 55.9907 117.183 56.172 117.055 56.4174C116.938 56.6627 116.879 56.9774 116.879 57.3614V58.4494L116.639 58.1294H119.071V59.3774H116.895V66.1934H115.279ZM124.013 66.3374C122.712 66.3374 121.688 65.9694 120.941 65.2334C120.195 64.4974 119.821 63.4787 119.821 62.1774C119.821 61.3347 119.981 60.5987 120.301 59.9694C120.632 59.34 121.085 58.8547 121.661 58.5134C122.248 58.1614 122.925 57.9854 123.693 57.9854C124.451 57.9854 125.085 58.1454 125.597 58.4654C126.109 58.7854 126.499 59.2387 126.765 59.8254C127.032 60.4014 127.165 61.084 127.165 61.8734V62.3854H121.085V61.4574H126.061L125.789 61.6654C125.789 60.8654 125.608 60.2467 125.245 59.8094C124.893 59.3614 124.381 59.1374 123.709 59.1374C122.963 59.1374 122.387 59.3987 121.981 59.9214C121.576 60.4334 121.373 61.1427 121.373 62.0494V62.2094C121.373 63.1587 121.603 63.8734 122.061 64.3534C122.531 64.8334 123.192 65.0734 124.045 65.0734C124.515 65.0734 124.952 65.0094 125.357 64.8814C125.773 64.7427 126.168 64.5187 126.541 64.2094L127.069 65.3134C126.696 65.644 126.243 65.9 125.709 66.0814C125.176 66.252 124.611 66.3374 124.013 66.3374ZM129.1 66.1934V58.1294H130.716V66.1934H129.1ZM128.972 56.4494V54.7694H130.844V56.4494H128.972ZM136.3 66.3374C135.425 66.3374 134.764 66.1027 134.316 65.6334C133.868 65.1534 133.644 64.4387 133.644 63.4894V59.3774H132.076V58.1294H133.644V56.0014L135.26 55.5694V58.1294H137.5V59.3774H135.26V63.3454C135.26 63.9427 135.367 64.3694 135.58 64.6254C135.793 64.8814 136.103 65.0094 136.508 65.0094C136.711 65.0094 136.887 64.9934 137.036 64.9614C137.196 64.9187 137.34 64.8707 137.468 64.8174V66.1294C137.308 66.1934 137.121 66.2414 136.908 66.2734C136.695 66.316 136.492 66.3374 136.3 66.3374ZM142.145 66.3374C141.43 66.3374 140.806 66.172 140.273 65.8414C139.739 65.5107 139.323 65.0307 139.025 64.4014C138.737 63.772 138.593 63.0254 138.593 62.1614C138.593 61.2867 138.737 60.54 139.025 59.9214C139.323 59.3027 139.739 58.828 140.273 58.4974C140.806 58.156 141.43 57.9854 142.145 57.9854C142.849 57.9854 143.462 58.1614 143.985 58.5134C144.507 58.8654 144.854 59.3454 145.025 59.9534H144.849L145.009 58.1294H146.577C146.545 58.46 146.513 58.7907 146.481 59.1214C146.459 59.4414 146.449 59.756 146.449 60.0654V66.1934H144.833V64.4014H145.009C144.838 64.9987 144.486 65.4734 143.953 65.8254C143.43 66.1667 142.827 66.3374 142.145 66.3374ZM142.545 65.0734C143.238 65.0734 143.793 64.828 144.209 64.3374C144.635 63.8467 144.849 63.1214 144.849 62.1614C144.849 61.2014 144.635 60.4814 144.209 60.0014C143.793 59.5107 143.238 59.2654 142.545 59.2654C141.841 59.2654 141.275 59.5107 140.849 60.0014C140.433 60.4814 140.225 61.2014 140.225 62.1614C140.225 63.1214 140.433 63.8467 140.849 64.3374C141.265 64.828 141.83 65.0734 142.545 65.0734ZM149.111 63.0734L148.599 54.9134H150.599L150.103 63.0734H149.111ZM148.647 66.1934V64.2894H150.551V66.1934H148.647Z" fill="#11142D"/>
<path d="M48.4681 99.4505C48.4681 98.4051 48.6454 97.5091 49.0001 96.7625C49.3641 96.0065 49.8821 95.4231 50.5541 95.0125C51.2354 94.6018 52.0521 94.3965 53.0041 94.3965C53.9281 94.3965 54.7308 94.6018 55.4121 95.0125C56.0934 95.4231 56.6161 96.0065 56.9801 96.7625C57.3534 97.5091 57.5401 98.4005 57.5401 99.4365C57.5401 100.482 57.3534 101.382 56.9801 102.138C56.6068 102.894 56.0794 103.482 55.3981 103.902C54.7261 104.313 53.9281 104.518 53.0041 104.518C52.0521 104.518 51.2401 104.313 50.5681 103.902C49.8961 103.482 49.3781 102.894 49.0141 102.138C48.6501 101.382 48.4681 100.486 48.4681 99.4505ZM49.6861 99.4505C49.6861 100.72 49.9661 101.714 50.5261 102.432C51.0861 103.142 51.9121 103.496 53.0041 103.496C54.0494 103.496 54.8614 103.142 55.4401 102.432C56.0281 101.714 56.3221 100.72 56.3221 99.4505C56.3221 98.1718 56.0328 97.1825 55.4541 96.4825C54.8754 95.7731 54.0588 95.4185 53.0041 95.4185C51.9121 95.4185 51.0861 95.7731 50.5261 96.4825C49.9661 97.1825 49.6861 98.1718 49.6861 99.4505ZM59.6326 104.392V94.0885H60.7666V104.392H59.6326ZM65.7545 104.518C65.1292 104.518 64.5832 104.374 64.1165 104.084C63.6498 103.786 63.2858 103.366 63.0245 102.824C62.7725 102.283 62.6465 101.634 62.6465 100.878C62.6465 100.113 62.7725 99.4598 63.0245 98.9185C63.2858 98.3771 63.6498 97.9618 64.1165 97.6725C64.5832 97.3831 65.1292 97.2385 65.7545 97.2385C66.3892 97.2385 66.9352 97.4018 67.3925 97.7285C67.8592 98.0458 68.1672 98.4798 68.3165 99.0305H68.1485L68.3025 97.3645H69.3945C69.3665 97.6351 69.3385 97.9105 69.3105 98.1905C69.2918 98.4611 69.2825 98.7271 69.2825 98.9885V104.392H68.1485V102.74H68.3025C68.1532 103.291 67.8452 103.725 67.3785 104.042C66.9118 104.36 66.3705 104.518 65.7545 104.518ZM65.9785 103.594C66.6505 103.594 67.1825 103.366 67.5745 102.908C67.9665 102.442 68.1625 101.765 68.1625 100.878C68.1625 99.9825 67.9665 99.3058 67.5745 98.8485C67.1825 98.3818 66.6505 98.1485 65.9785 98.1485C65.3158 98.1485 64.7838 98.3818 64.3825 98.8485C63.9905 99.3058 63.7945 99.9825 63.7945 100.878C63.7945 101.765 63.9905 102.442 64.3825 102.908C64.7838 103.366 65.3158 103.594 65.9785 103.594ZM65.6845 96.6785L67.1265 93.8505H68.3445L66.4965 96.6785H65.6845ZM77.4214 104.392L74.4114 97.3645H75.6434L78.1634 103.552H77.7854L80.3334 97.3645H81.5094L78.4994 104.392H77.4214ZM85.6872 104.518C85.0152 104.518 84.4272 104.374 83.9232 104.084C83.4285 103.786 83.0459 103.366 82.7752 102.824C82.5045 102.274 82.3692 101.625 82.3692 100.878C82.3692 100.122 82.5045 99.4738 82.7752 98.9325C83.0459 98.3911 83.4285 97.9758 83.9232 97.6865C84.4272 97.3878 85.0152 97.2385 85.6872 97.2385C86.3685 97.2385 86.9565 97.3878 87.4512 97.6865C87.9552 97.9758 88.3425 98.3911 88.6132 98.9325C88.8932 99.4738 89.0332 100.122 89.0332 100.878C89.0332 101.625 88.8932 102.274 88.6132 102.824C88.3425 103.366 87.9552 103.786 87.4512 104.084C86.9565 104.374 86.3685 104.518 85.6872 104.518ZM85.6872 103.594C86.3592 103.594 86.8912 103.366 87.2832 102.908C87.6752 102.442 87.8712 101.765 87.8712 100.878C87.8712 99.9825 87.6705 99.3058 87.2692 98.8485C86.8772 98.3818 86.3499 98.1485 85.6872 98.1485C85.0245 98.1485 84.4972 98.3818 84.1052 98.8485C83.7132 99.3058 83.5172 99.9825 83.5172 100.878C83.5172 101.765 83.7132 102.442 84.1052 102.908C84.4972 103.366 85.0245 103.594 85.6872 103.594ZM93.8673 104.518C93.1766 104.518 92.5746 104.369 92.0613 104.07C91.5573 103.772 91.1653 103.347 90.8853 102.796C90.6146 102.246 90.4793 101.592 90.4793 100.836C90.4793 100.071 90.6193 99.4225 90.8993 98.8905C91.1793 98.3491 91.5713 97.9385 92.0753 97.6585C92.5886 97.3785 93.1859 97.2385 93.8673 97.2385C94.3153 97.2385 94.7493 97.3178 95.1693 97.4765C95.5986 97.6351 95.9533 97.8591 96.2333 98.1485L95.8273 98.9605C95.5473 98.6898 95.2393 98.4891 94.9033 98.3585C94.5766 98.2278 94.2546 98.1625 93.9373 98.1625C93.2093 98.1625 92.6446 98.3911 92.2433 98.8485C91.8419 99.3058 91.6413 99.9731 91.6413 100.85C91.6413 101.718 91.8419 102.39 92.2433 102.866C92.6446 103.342 93.2093 103.58 93.9373 103.58C94.2453 103.58 94.5626 103.52 94.8893 103.398C95.2253 103.277 95.5379 103.076 95.8273 102.796L96.2333 103.594C95.9439 103.893 95.5846 104.122 95.1553 104.28C94.7259 104.439 94.2966 104.518 93.8673 104.518ZM100.942 104.518C99.8408 104.518 98.9728 104.201 98.3382 103.566C97.7035 102.922 97.3862 102.031 97.3862 100.892C97.3862 100.155 97.5262 99.5158 97.8062 98.9745C98.0862 98.4238 98.4782 97.9991 98.9822 97.7005C99.4862 97.3925 100.065 97.2385 100.718 97.2385C101.362 97.2385 101.904 97.3738 102.342 97.6445C102.781 97.9151 103.117 98.3025 103.35 98.8065C103.584 99.3011 103.7 99.8891 103.7 100.57V100.99H98.2542V100.276H102.958L102.72 100.458C102.72 99.7118 102.552 99.1285 102.216 98.7085C101.88 98.2885 101.381 98.0785 100.718 98.0785C100.018 98.0785 99.4722 98.3258 99.0802 98.8205C98.6882 99.3058 98.4922 99.9638 98.4922 100.794V100.92C98.4922 101.798 98.7068 102.465 99.1362 102.922C99.5748 103.37 100.186 103.594 100.97 103.594C101.39 103.594 101.782 103.534 102.146 103.412C102.52 103.282 102.874 103.072 103.21 102.782L103.602 103.58C103.294 103.879 102.902 104.112 102.426 104.28C101.96 104.439 101.465 104.518 100.942 104.518ZM98.6462 96.6785L100.172 93.8505H101.264L102.79 96.6785H102.006L100.718 94.6065L99.4302 96.6785H98.6462ZM112.264 104.518C111.573 104.518 110.971 104.369 110.458 104.07C109.954 103.772 109.562 103.347 109.282 102.796C109.011 102.246 108.876 101.592 108.876 100.836C108.876 100.071 109.016 99.4225 109.296 98.8905C109.576 98.3491 109.968 97.9385 110.472 97.6585C110.985 97.3785 111.582 97.2385 112.264 97.2385C112.712 97.2385 113.146 97.3178 113.566 97.4765C113.995 97.6351 114.35 97.8591 114.63 98.1485L114.224 98.9605C113.944 98.6898 113.636 98.4891 113.3 98.3585C112.973 98.2278 112.651 98.1625 112.334 98.1625C111.606 98.1625 111.041 98.3911 110.64 98.8485C110.238 99.3058 110.038 99.9731 110.038 100.85C110.038 101.718 110.238 102.39 110.64 102.866C111.041 103.342 111.606 103.58 112.334 103.58C112.642 103.58 112.959 103.52 113.286 103.398C113.622 103.277 113.934 103.076 114.224 102.796L114.63 103.594C114.34 103.893 113.981 104.122 113.552 104.28C113.122 104.439 112.693 104.518 112.264 104.518ZM119.101 104.518C118.429 104.518 117.841 104.374 117.337 104.084C116.842 103.786 116.459 103.366 116.189 102.824C115.918 102.274 115.783 101.625 115.783 100.878C115.783 100.122 115.918 99.4738 116.189 98.9325C116.459 98.3911 116.842 97.9758 117.337 97.6865C117.841 97.3878 118.429 97.2385 119.101 97.2385C119.782 97.2385 120.37 97.3878 120.865 97.6865C121.369 97.9758 121.756 98.3911 122.027 98.9325C122.307 99.4738 122.447 100.122 122.447 100.878C122.447 101.625 122.307 102.274 122.027 102.824C121.756 103.366 121.369 103.786 120.865 104.084C120.37 104.374 119.782 104.518 119.101 104.518ZM119.101 103.594C119.773 103.594 120.305 103.366 120.697 102.908C121.089 102.442 121.285 101.765 121.285 100.878C121.285 99.9825 121.084 99.3058 120.683 98.8485C120.291 98.3818 119.763 98.1485 119.101 98.1485C118.438 98.1485 117.911 98.3818 117.519 98.8485C117.127 99.3058 116.931 99.9825 116.931 100.878C116.931 101.765 117.127 102.442 117.519 102.908C117.911 103.366 118.438 103.594 119.101 103.594ZM124.327 104.392V98.9885C124.327 98.7271 124.313 98.4611 124.285 98.1905C124.266 97.9105 124.243 97.6351 124.215 97.3645H125.307L125.447 98.9045H125.279C125.484 98.3631 125.811 97.9525 126.259 97.6725C126.716 97.3831 127.243 97.2385 127.841 97.2385C128.671 97.2385 129.297 97.4625 129.717 97.9105C130.146 98.3491 130.361 99.0445 130.361 99.9965V104.392H129.227V100.066C129.227 99.4038 129.091 98.9231 128.821 98.6245C128.559 98.3165 128.149 98.1625 127.589 98.1625C126.935 98.1625 126.417 98.3631 126.035 98.7645C125.652 99.1658 125.461 99.7025 125.461 100.374V104.392H124.327ZM135.596 104.518C134.905 104.518 134.303 104.369 133.79 104.07C133.286 103.772 132.894 103.347 132.614 102.796C132.343 102.246 132.208 101.592 132.208 100.836C132.208 100.071 132.348 99.4225 132.628 98.8905C132.908 98.3491 133.3 97.9385 133.804 97.6585C134.317 97.3785 134.915 97.2385 135.596 97.2385C136.044 97.2385 136.478 97.3178 136.898 97.4765C137.327 97.6351 137.682 97.8591 137.962 98.1485L137.556 98.9605C137.276 98.6898 136.968 98.4891 136.632 98.3585C136.305 98.2278 135.983 98.1625 135.666 98.1625C134.938 98.1625 134.373 98.3911 133.972 98.8485C133.571 99.3058 133.37 99.9731 133.37 100.85C133.37 101.718 133.571 102.39 133.972 102.866C134.373 103.342 134.938 103.58 135.666 103.58C135.974 103.58 136.291 103.52 136.618 103.398C136.954 103.277 137.267 103.076 137.556 102.796L137.962 103.594C137.673 103.893 137.313 104.122 136.884 104.28C136.455 104.439 136.025 104.518 135.596 104.518ZM139.686 104.392V94.0885H140.82V104.392H139.686ZM145.611 104.518C144.781 104.518 144.151 104.29 143.721 103.832C143.301 103.375 143.091 102.675 143.091 101.732V97.3645H144.225V101.704C144.225 102.348 144.356 102.824 144.617 103.132C144.879 103.431 145.285 103.58 145.835 103.58C146.451 103.58 146.946 103.38 147.319 102.978C147.693 102.577 147.879 102.04 147.879 101.368V97.3645H149.013V104.392H147.907V102.81H148.089C147.893 103.352 147.576 103.772 147.137 104.07C146.708 104.369 146.199 104.518 145.611 104.518ZM151.326 104.392V97.3645H152.46V104.392H151.326ZM151.186 95.7685V94.4945H152.586V95.7685H151.186ZM157.251 104.518C156.421 104.518 155.791 104.29 155.361 103.832C154.941 103.375 154.731 102.675 154.731 101.732V97.3645H155.865V101.704C155.865 102.348 155.996 102.824 156.257 103.132C156.519 103.431 156.925 103.58 157.475 103.58C158.091 103.58 158.586 103.38 158.959 102.978C159.333 102.577 159.519 102.04 159.519 101.368V97.3645H160.653V104.392H159.547V102.81H159.729C159.533 103.352 159.216 103.772 158.777 104.07C158.348 104.369 157.839 104.518 157.251 104.518ZM169.682 104.518C168.991 104.518 168.389 104.369 167.876 104.07C167.372 103.772 166.98 103.347 166.7 102.796C166.429 102.246 166.294 101.592 166.294 100.836C166.294 100.071 166.434 99.4225 166.714 98.8905C166.994 98.3491 167.386 97.9385 167.89 97.6585C168.403 97.3785 169.001 97.2385 169.682 97.2385C170.13 97.2385 170.564 97.3178 170.984 97.4765C171.413 97.6351 171.768 97.8591 172.048 98.1485L171.642 98.9605C171.362 98.6898 171.054 98.4891 170.718 98.3585C170.391 98.2278 170.069 98.1625 169.752 98.1625C169.024 98.1625 168.459 98.3911 168.058 98.8485C167.657 99.3058 167.456 99.9731 167.456 100.85C167.456 101.718 167.657 102.39 168.058 102.866C168.459 103.342 169.024 103.58 169.752 103.58C170.06 103.58 170.377 103.52 170.704 103.398C171.04 103.277 171.353 103.076 171.642 102.796L172.048 103.594C171.759 103.893 171.399 104.122 170.97 104.28C170.541 104.439 170.111 104.518 169.682 104.518ZM176.519 104.518C175.847 104.518 175.259 104.374 174.755 104.084C174.26 103.786 173.878 103.366 173.607 102.824C173.336 102.274 173.201 101.625 173.201 100.878C173.201 100.122 173.336 99.4738 173.607 98.9325C173.878 98.3911 174.26 97.9758 174.755 97.6865C175.259 97.3878 175.847 97.2385 176.519 97.2385C177.2 97.2385 177.788 97.3878 178.283 97.6865C178.787 97.9758 179.174 98.3911 179.445 98.9325C179.725 99.4738 179.865 100.122 179.865 100.878C179.865 101.625 179.725 102.274 179.445 102.824C179.174 103.366 178.787 103.786 178.283 104.084C177.788 104.374 177.2 104.518 176.519 104.518ZM176.519 103.594C177.191 103.594 177.723 103.366 178.115 102.908C178.507 102.442 178.703 101.765 178.703 100.878C178.703 99.9825 178.502 99.3058 178.101 98.8485C177.709 98.3818 177.182 98.1485 176.519 98.1485C175.856 98.1485 175.329 98.3818 174.937 98.8485C174.545 99.3058 174.349 99.9825 174.349 100.878C174.349 101.765 174.545 102.442 174.937 102.908C175.329 103.366 175.856 103.594 176.519 103.594ZM181.745 104.392V98.9885C181.745 98.7271 181.731 98.4611 181.703 98.1905C181.684 97.9105 181.661 97.6351 181.633 97.3645H182.725L182.865 98.9045H182.697C182.884 98.3725 183.178 97.9618 183.579 97.6725C183.99 97.3831 184.484 97.2385 185.063 97.2385C185.651 97.2385 186.127 97.3785 186.491 97.6585C186.864 97.9385 187.116 98.3725 187.247 98.9605H187.037C187.214 98.4285 187.527 98.0085 187.975 97.7005C188.423 97.3925 188.946 97.2385 189.543 97.2385C190.318 97.2385 190.901 97.4625 191.293 97.9105C191.685 98.3491 191.881 99.0445 191.881 99.9965V104.392H190.747V100.066C190.747 99.4038 190.63 98.9231 190.397 98.6245C190.164 98.3165 189.79 98.1625 189.277 98.1625C188.689 98.1625 188.222 98.3678 187.877 98.7785C187.541 99.1798 187.373 99.7211 187.373 100.402V104.392H186.239V100.066C186.239 99.4038 186.122 98.9231 185.889 98.6245C185.656 98.3165 185.282 98.1625 184.769 98.1625C184.181 98.1625 183.719 98.3678 183.383 98.7785C183.047 99.1798 182.879 99.7211 182.879 100.402V104.392H181.745ZM200.248 104.518C199.688 104.518 199.166 104.444 198.68 104.294C198.195 104.136 197.794 103.916 197.476 103.636L197.868 102.838C198.214 103.109 198.587 103.31 198.988 103.44C199.399 103.571 199.824 103.636 200.262 103.636C200.822 103.636 201.242 103.538 201.522 103.342C201.812 103.137 201.956 102.857 201.956 102.502C201.956 102.232 201.863 102.017 201.676 101.858C201.499 101.69 201.205 101.56 200.794 101.466L199.492 101.2C198.895 101.07 198.447 100.85 198.148 100.542C197.85 100.225 197.7 99.8238 197.7 99.3385C197.7 98.9278 197.808 98.5685 198.022 98.2605C198.237 97.9431 198.55 97.6958 198.96 97.5185C199.371 97.3318 199.852 97.2385 200.402 97.2385C200.916 97.2385 201.387 97.3178 201.816 97.4765C202.255 97.6258 202.619 97.8451 202.908 98.1345L202.502 98.9185C202.222 98.6478 201.9 98.4471 201.536 98.3165C201.182 98.1765 200.813 98.1065 200.43 98.1065C199.88 98.1065 199.464 98.2185 199.184 98.4425C198.914 98.6571 198.778 98.9418 198.778 99.2965C198.778 99.5671 198.862 99.7911 199.03 99.9685C199.208 100.136 199.478 100.262 199.842 100.346L201.144 100.612C201.779 100.752 202.25 100.972 202.558 101.27C202.876 101.56 203.034 101.952 203.034 102.446C203.034 102.866 202.918 103.235 202.684 103.552C202.451 103.86 202.124 104.098 201.704 104.266C201.294 104.434 200.808 104.518 200.248 104.518ZM207.446 104.518C206.615 104.518 205.985 104.29 205.556 103.832C205.136 103.375 204.926 102.675 204.926 101.732V97.3645H206.06V101.704C206.06 102.348 206.19 102.824 206.452 103.132C206.713 103.431 207.119 103.58 207.67 103.58C208.286 103.58 208.78 103.38 209.154 102.978C209.527 102.577 209.714 102.04 209.714 101.368V97.3645H210.848V104.392H209.742V102.81H209.924C209.728 103.352 209.41 103.772 208.972 104.07C208.542 104.369 208.034 104.518 207.446 104.518ZM216.114 104.518C215.423 104.518 214.821 104.369 214.308 104.07C213.804 103.772 213.412 103.347 213.132 102.796C212.861 102.246 212.726 101.592 212.726 100.836C212.726 100.071 212.866 99.4225 213.146 98.8905C213.426 98.3491 213.818 97.9385 214.322 97.6585C214.835 97.3785 215.432 97.2385 216.114 97.2385C216.562 97.2385 216.996 97.3178 217.416 97.4765C217.845 97.6351 218.2 97.8591 218.48 98.1485L218.074 98.9605C217.794 98.6898 217.486 98.4891 217.15 98.3585C216.823 98.2278 216.501 98.1625 216.184 98.1625C215.456 98.1625 214.891 98.3911 214.49 98.8485C214.088 99.3058 213.888 99.9731 213.888 100.85C213.888 101.718 214.088 102.39 214.49 102.866C214.891 103.342 215.456 103.58 216.184 103.58C216.492 103.58 216.809 103.52 217.136 103.398C217.472 103.277 217.784 103.076 218.074 102.796L218.48 103.594C218.19 103.893 217.831 104.122 217.402 104.28C216.972 104.439 216.543 104.518 216.114 104.518ZM223.189 104.518C222.087 104.518 221.219 104.201 220.585 103.566C219.95 102.922 219.633 102.031 219.633 100.892C219.633 100.155 219.773 99.5158 220.053 98.9745C220.333 98.4238 220.725 97.9991 221.229 97.7005C221.733 97.3925 222.311 97.2385 222.965 97.2385C223.609 97.2385 224.15 97.3738 224.589 97.6445C225.027 97.9151 225.363 98.3025 225.597 98.8065C225.83 99.3011 225.947 99.8891 225.947 100.57V100.99H220.501V100.276H225.205L224.967 100.458C224.967 99.7118 224.799 99.1285 224.463 98.7085C224.127 98.2885 223.627 98.0785 222.965 98.0785C222.265 98.0785 221.719 98.3258 221.327 98.8205C220.935 99.3058 220.739 99.9638 220.739 100.794V100.92C220.739 101.798 220.953 102.465 221.383 102.922C221.821 103.37 222.433 103.594 223.217 103.594C223.637 103.594 224.029 103.534 224.393 103.412C224.766 103.282 225.121 103.072 225.457 102.782L225.849 103.58C225.541 103.879 225.149 104.112 224.673 104.28C224.206 104.439 223.711 104.518 223.189 104.518ZM230.132 104.518C229.572 104.518 229.049 104.444 228.564 104.294C228.079 104.136 227.677 103.916 227.36 103.636L227.752 102.838C228.097 103.109 228.471 103.31 228.872 103.44C229.283 103.571 229.707 103.636 230.146 103.636C230.706 103.636 231.126 103.538 231.406 103.342C231.695 103.137 231.84 102.857 231.84 102.502C231.84 102.232 231.747 102.017 231.56 101.858C231.383 101.69 231.089 101.56 230.678 101.466L229.376 101.2C228.779 101.07 228.331 100.85 228.032 100.542C227.733 100.225 227.584 99.8238 227.584 99.3385C227.584 98.9278 227.691 98.5685 227.906 98.2605C228.121 97.9431 228.433 97.6958 228.844 97.5185C229.255 97.3318 229.735 97.2385 230.286 97.2385C230.799 97.2385 231.271 97.3178 231.7 97.4765C232.139 97.6258 232.503 97.8451 232.792 98.1345L232.386 98.9185C232.106 98.6478 231.784 98.4471 231.42 98.3165C231.065 98.1765 230.697 98.1065 230.314 98.1065C229.763 98.1065 229.348 98.2185 229.068 98.4425C228.797 98.6571 228.662 98.9418 228.662 99.2965C228.662 99.5671 228.746 99.7911 228.914 99.9685C229.091 100.136 229.362 100.262 229.726 100.346L231.028 100.612C231.663 100.752 232.134 100.972 232.442 101.27C232.759 101.56 232.918 101.952 232.918 102.446C232.918 102.866 232.801 103.235 232.568 103.552C232.335 103.86 232.008 104.098 231.588 104.266C231.177 104.434 230.692 104.518 230.132 104.518ZM237.189 104.518C236.629 104.518 236.107 104.444 235.621 104.294C235.136 104.136 234.735 103.916 234.417 103.636L234.809 102.838C235.155 103.109 235.528 103.31 235.929 103.44C236.34 103.571 236.765 103.636 237.203 103.636C237.763 103.636 238.183 103.538 238.463 103.342C238.753 103.137 238.897 102.857 238.897 102.502C238.897 102.232 238.804 102.017 238.617 101.858C238.44 101.69 238.146 101.56 237.735 101.466L236.433 101.2C235.836 101.07 235.388 100.85 235.089 100.542C234.791 100.225 234.641 99.8238 234.641 99.3385C234.641 98.9278 234.749 98.5685 234.963 98.2605C235.178 97.9431 235.491 97.6958 235.901 97.5185C236.312 97.3318 236.793 97.2385 237.343 97.2385C237.857 97.2385 238.328 97.3178 238.757 97.4765C239.196 97.6258 239.56 97.8451 239.849 98.1345L239.443 98.9185C239.163 98.6478 238.841 98.4471 238.477 98.3165C238.123 98.1765 237.754 98.1065 237.371 98.1065C236.821 98.1065 236.405 98.2185 236.125 98.4425C235.855 98.6571 235.719 98.9418 235.719 99.2965C235.719 99.5671 235.803 99.7911 235.971 99.9685C236.149 100.136 236.419 100.262 236.783 100.346L238.085 100.612C238.72 100.752 239.191 100.972 239.499 101.27C239.817 101.56 239.975 101.952 239.975 102.446C239.975 102.866 239.859 103.235 239.625 103.552C239.392 103.86 239.065 104.098 238.645 104.266C238.235 104.434 237.749 104.518 237.189 104.518ZM244.793 104.518C244.121 104.518 243.533 104.374 243.029 104.084C242.534 103.786 242.151 103.366 241.881 102.824C241.61 102.274 241.475 101.625 241.475 100.878C241.475 100.122 241.61 99.4738 241.881 98.9325C242.151 98.3911 242.534 97.9758 243.029 97.6865C243.533 97.3878 244.121 97.2385 244.793 97.2385C245.474 97.2385 246.062 97.3878 246.557 97.6865C247.061 97.9758 247.448 98.3911 247.719 98.9325C247.999 99.4738 248.139 100.122 248.139 100.878C248.139 101.625 247.999 102.274 247.719 102.824C247.448 103.366 247.061 103.786 246.557 104.084C246.062 104.374 245.474 104.518 244.793 104.518ZM244.793 103.594C245.465 103.594 245.997 103.366 246.389 102.908C246.781 102.442 246.977 101.765 246.977 100.878C246.977 99.9825 246.776 99.3058 246.375 98.8485C245.983 98.3818 245.455 98.1485 244.793 98.1485C244.13 98.1485 243.603 98.3818 243.211 98.8485C242.819 99.3058 242.623 99.9825 242.623 100.878C242.623 101.765 242.819 102.442 243.211 102.908C243.603 103.366 244.13 103.594 244.793 103.594ZM256.119 104.518C255.559 104.518 255.036 104.444 254.551 104.294C254.066 104.136 253.664 103.916 253.347 103.636L253.739 102.838C254.084 103.109 254.458 103.31 254.859 103.44C255.27 103.571 255.694 103.636 256.133 103.636C256.693 103.636 257.113 103.538 257.393 103.342C257.682 103.137 257.827 102.857 257.827 102.502C257.827 102.232 257.734 102.017 257.547 101.858C257.37 101.69 257.076 101.56 256.665 101.466L255.363 101.2C254.766 101.07 254.318 100.85 254.019 100.542C253.72 100.225 253.571 99.8238 253.571 99.3385C253.571 98.9278 253.678 98.5685 253.893 98.2605C254.108 97.9431 254.42 97.6958 254.831 97.5185C255.242 97.3318 255.722 97.2385 256.273 97.2385C256.786 97.2385 257.258 97.3178 257.687 97.4765C258.126 97.6258 258.49 97.8451 258.779 98.1345L258.373 98.9185C258.093 98.6478 257.771 98.4471 257.407 98.3165C257.052 98.1765 256.684 98.1065 256.301 98.1065C255.75 98.1065 255.335 98.2185 255.055 98.4425C254.784 98.6571 254.649 98.9418 254.649 99.2965C254.649 99.5671 254.733 99.7911 254.901 99.9685C255.078 100.136 255.349 100.262 255.713 100.346L257.015 100.612C257.65 100.752 258.121 100.972 258.429 101.27C258.746 101.56 258.905 101.952 258.905 102.446C258.905 102.866 258.788 103.235 258.555 103.552C258.322 103.86 257.995 104.098 257.575 104.266C257.164 104.434 256.679 104.518 256.119 104.518ZM263.316 104.518C262.486 104.518 261.856 104.29 261.426 103.832C261.006 103.375 260.796 102.675 260.796 101.732V97.3645H261.93V101.704C261.93 102.348 262.061 102.824 262.322 103.132C262.584 103.431 262.99 103.58 263.54 103.58C264.156 103.58 264.651 103.38 265.024 102.978C265.398 102.577 265.584 102.04 265.584 101.368V97.3645H266.718V104.392H265.612V102.81H265.794C265.598 103.352 265.281 103.772 264.842 104.07C264.413 104.369 263.904 104.518 263.316 104.518ZM271.704 104.518C271.079 104.518 270.533 104.374 270.066 104.084C269.6 103.786 269.236 103.366 268.974 102.824C268.722 102.283 268.596 101.634 268.596 100.878C268.596 100.113 268.722 99.4598 268.974 98.9185C269.236 98.3771 269.6 97.9618 270.066 97.6725C270.533 97.3831 271.079 97.2385 271.704 97.2385C272.339 97.2385 272.885 97.4018 273.342 97.7285C273.809 98.0458 274.117 98.4798 274.266 99.0305H274.098L274.252 97.3645H275.344C275.316 97.6351 275.288 97.9105 275.26 98.1905C275.242 98.4611 275.232 98.7271 275.232 98.9885V104.392H274.098V102.74H274.252C274.103 103.291 273.795 103.725 273.328 104.042C272.862 104.36 272.32 104.518 271.704 104.518ZM271.928 103.594C272.6 103.594 273.132 103.366 273.524 102.908C273.916 102.442 274.112 101.765 274.112 100.878C274.112 99.9825 273.916 99.3058 273.524 98.8485C273.132 98.3818 272.6 98.1485 271.928 98.1485C271.266 98.1485 270.734 98.3818 270.332 98.8485C269.94 99.3058 269.744 99.9825 269.744 100.878C269.744 101.765 269.94 102.442 270.332 102.908C270.734 103.366 271.266 103.594 271.928 103.594ZM48.6781 122.392V117.058C48.6781 116.778 48.6688 116.494 48.6501 116.204C48.6408 115.915 48.6221 115.635 48.5941 115.364H49.6861L49.8261 117.072L49.6301 117.086C49.7234 116.666 49.8868 116.321 50.1201 116.05C50.3534 115.78 50.6288 115.579 50.9461 115.448C51.2634 115.308 51.5948 115.238 51.9401 115.238C52.0801 115.238 52.2014 115.243 52.3041 115.252C52.4161 115.262 52.5188 115.285 52.6121 115.322L52.5981 116.33C52.4581 116.284 52.3274 116.256 52.2061 116.246C52.0941 116.228 51.9634 116.218 51.8141 116.218C51.4034 116.218 51.0441 116.316 50.7361 116.512C50.4374 116.708 50.2088 116.96 50.0501 117.268C49.9008 117.576 49.8261 117.903 49.8261 118.248V122.392H48.6781ZM56.944 122.518C55.8427 122.518 54.9747 122.201 54.34 121.566C53.7053 120.922 53.388 120.031 53.388 118.892C53.388 118.155 53.528 117.516 53.808 116.974C54.088 116.424 54.48 115.999 54.984 115.7C55.488 115.392 56.0667 115.238 56.72 115.238C57.364 115.238 57.9053 115.374 58.344 115.644C58.7827 115.915 59.1187 116.302 59.352 116.806C59.5853 117.301 59.702 117.889 59.702 118.57V118.99H54.256V118.276H58.96L58.722 118.458C58.722 117.712 58.554 117.128 58.218 116.708C57.882 116.288 57.3827 116.078 56.72 116.078C56.02 116.078 55.474 116.326 55.082 116.82C54.69 117.306 54.494 117.964 54.494 118.794V118.92C54.494 119.798 54.7087 120.465 55.138 120.922C55.5767 121.37 56.188 121.594 56.972 121.594C57.392 121.594 57.784 121.534 58.148 121.412C58.5213 121.282 58.876 121.072 59.212 120.782L59.604 121.58C59.296 121.879 58.904 122.112 58.428 122.28C57.9613 122.439 57.4667 122.518 56.944 122.518ZM63.8872 122.518C63.3272 122.518 62.8046 122.444 62.3192 122.294C61.8339 122.136 61.4326 121.916 61.1152 121.636L61.5072 120.838C61.8526 121.109 62.2259 121.31 62.6272 121.44C63.0379 121.571 63.4626 121.636 63.9012 121.636C64.4612 121.636 64.8812 121.538 65.1612 121.342C65.4506 121.137 65.5952 120.857 65.5952 120.502C65.5952 120.232 65.5019 120.017 65.3152 119.858C65.1379 119.69 64.8439 119.56 64.4332 119.466L63.1312 119.2C62.5339 119.07 62.0859 118.85 61.7872 118.542C61.4886 118.225 61.3392 117.824 61.3392 117.338C61.3392 116.928 61.4466 116.568 61.6612 116.26C61.8759 115.943 62.1886 115.696 62.5992 115.518C63.0099 115.332 63.4906 115.238 64.0412 115.238C64.5546 115.238 65.0259 115.318 65.4552 115.476C65.8939 115.626 66.2579 115.845 66.5472 116.134L66.1412 116.918C65.8612 116.648 65.5392 116.447 65.1752 116.316C64.8206 116.176 64.4519 116.106 64.0692 116.106C63.5186 116.106 63.1032 116.218 62.8232 116.442C62.5526 116.657 62.4172 116.942 62.4172 117.296C62.4172 117.567 62.5012 117.791 62.6692 117.968C62.8466 118.136 63.1172 118.262 63.4812 118.346L64.7832 118.612C65.4179 118.752 65.8892 118.972 66.1972 119.27C66.5146 119.56 66.6732 119.952 66.6732 120.446C66.6732 120.866 66.5566 121.235 66.3232 121.552C66.0899 121.86 65.7632 122.098 65.3432 122.266C64.9326 122.434 64.4472 122.518 63.8872 122.518ZM71.7286 122.518C70.6272 122.518 69.7592 122.201 69.1246 121.566C68.4899 120.922 68.1726 120.031 68.1726 118.892C68.1726 118.155 68.3126 117.516 68.5926 116.974C68.8726 116.424 69.2646 115.999 69.7686 115.7C70.2726 115.392 70.8512 115.238 71.5046 115.238C72.1486 115.238 72.6899 115.374 73.1286 115.644C73.5672 115.915 73.9032 116.302 74.1366 116.806C74.3699 117.301 74.4866 117.889 74.4866 118.57V118.99H69.0406V118.276H73.7446L73.5066 118.458C73.5066 117.712 73.3386 117.128 73.0026 116.708C72.6666 116.288 72.1672 116.078 71.5046 116.078C70.8046 116.078 70.2586 116.326 69.8666 116.82C69.4746 117.306 69.2786 117.964 69.2786 118.794V118.92C69.2786 119.798 69.4932 120.465 69.9226 120.922C70.3612 121.37 70.9726 121.594 71.7566 121.594C72.1766 121.594 72.5686 121.534 72.9326 121.412C73.3059 121.282 73.6606 121.072 73.9966 120.782L74.3886 121.58C74.0806 121.879 73.6886 122.112 73.2126 122.28C72.7459 122.439 72.2512 122.518 71.7286 122.518ZM76.3058 122.392V117.058C76.3058 116.778 76.2965 116.494 76.2778 116.204C76.2685 115.915 76.2498 115.635 76.2218 115.364H77.3138L77.4538 117.072L77.2578 117.086C77.3511 116.666 77.5145 116.321 77.7478 116.05C77.9811 115.78 78.2565 115.579 78.5738 115.448C78.8911 115.308 79.2225 115.238 79.5678 115.238C79.7078 115.238 79.8291 115.243 79.9318 115.252C80.0438 115.262 80.1465 115.285 80.2398 115.322L80.2258 116.33C80.0858 116.284 79.9551 116.256 79.8338 116.246C79.7218 116.228 79.5911 116.218 79.4418 116.218C79.0311 116.218 78.6718 116.316 78.3638 116.512C78.0651 116.708 77.8365 116.96 77.6778 117.268C77.5285 117.576 77.4538 117.903 77.4538 118.248V122.392H76.3058ZM84.0276 122.392L81.0176 115.364H82.2496L84.7696 121.552H84.3916L86.9396 115.364H88.1156L85.1056 122.392H84.0276ZM92.0423 122.518C91.417 122.518 90.871 122.374 90.4043 122.084C89.9377 121.786 89.5737 121.366 89.3123 120.824C89.0603 120.283 88.9343 119.634 88.9343 118.878C88.9343 118.113 89.0603 117.46 89.3123 116.918C89.5737 116.377 89.9377 115.962 90.4043 115.672C90.871 115.383 91.417 115.238 92.0423 115.238C92.677 115.238 93.223 115.402 93.6803 115.728C94.147 116.046 94.455 116.48 94.6043 117.03H94.4363L94.5903 115.364H95.6823C95.6543 115.635 95.6263 115.91 95.5983 116.19C95.5797 116.461 95.5703 116.727 95.5703 116.988V122.392H94.4363V120.74H94.5903C94.441 121.291 94.133 121.725 93.6663 122.042C93.1997 122.36 92.6583 122.518 92.0423 122.518ZM92.2663 121.594C92.9383 121.594 93.4703 121.366 93.8623 120.908C94.2543 120.442 94.4503 119.765 94.4503 118.878C94.4503 117.982 94.2543 117.306 93.8623 116.848C93.4703 116.382 92.9383 116.148 92.2663 116.148C91.6037 116.148 91.0717 116.382 90.6703 116.848C90.2783 117.306 90.0823 117.982 90.0823 118.878C90.0823 119.765 90.2783 120.442 90.6703 120.908C91.0717 121.366 91.6037 121.594 92.2663 121.594ZM98.0149 119.816L97.6649 112.522H99.0649L98.7149 119.816H98.0149ZM97.6509 122.392V120.964H99.0789V122.392H97.6509ZM47.8521 140.392L52.2061 130.522H53.2141L57.6381 140.392H56.4341L55.2021 137.578L55.7201 137.872H49.6861L50.2461 137.578L49.0421 140.392H47.8521ZM52.6961 131.852L50.4281 137.172L50.0921 136.92H55.3001L55.0481 137.172L52.7241 131.852H52.6961ZM62.1387 143.514C61.532 143.514 60.972 143.44 60.4587 143.29C59.9453 143.141 59.4833 142.912 59.0727 142.604L59.4087 141.75C59.698 141.956 59.9827 142.119 60.2627 142.24C60.5427 142.362 60.832 142.45 61.1307 142.506C61.4293 142.572 61.7467 142.604 62.0827 142.604C62.7733 142.604 63.296 142.422 63.6507 142.058C64.0053 141.694 64.1827 141.176 64.1827 140.504V138.446H64.3227C64.1733 138.997 63.8653 139.436 63.3987 139.762C62.932 140.08 62.386 140.238 61.7607 140.238C61.1167 140.238 60.5567 140.098 60.0807 139.818C59.614 139.529 59.25 139.123 58.9887 138.6C58.7367 138.068 58.6107 137.443 58.6107 136.724C58.6107 136.015 58.7367 135.399 58.9887 134.876C59.25 134.354 59.614 133.952 60.0807 133.672C60.5567 133.383 61.1167 133.238 61.7607 133.238C62.3953 133.238 62.9413 133.397 63.3987 133.714C63.8653 134.032 64.1733 134.47 64.3227 135.03L64.1827 134.89L64.3087 133.364H65.4147C65.3773 133.635 65.3493 133.91 65.3307 134.19C65.312 134.461 65.3027 134.727 65.3027 134.988V140.35C65.3027 141.396 65.032 142.184 64.4907 142.716C63.9587 143.248 63.1747 143.514 62.1387 143.514ZM61.9707 139.314C62.652 139.314 63.1887 139.09 63.5807 138.642C63.9727 138.185 64.1687 137.546 64.1687 136.724C64.1687 135.903 63.9727 135.268 63.5807 134.82C63.1887 134.372 62.652 134.148 61.9707 134.148C61.2987 134.148 60.762 134.372 60.3607 134.82C59.9593 135.268 59.7587 135.903 59.7587 136.724C59.7587 137.546 59.9593 138.185 60.3607 138.642C60.762 139.09 61.2987 139.314 61.9707 139.314ZM70.0702 140.518C69.2395 140.518 68.6095 140.29 68.1802 139.832C67.7602 139.375 67.5502 138.675 67.5502 137.732V133.364H68.6842V137.704C68.6842 138.348 68.8149 138.824 69.0762 139.132C69.3375 139.431 69.7435 139.58 70.2942 139.58C70.9102 139.58 71.4049 139.38 71.7782 138.978C72.1515 138.577 72.3382 138.04 72.3382 137.368V133.364H73.4722V140.392H72.3662V138.81H72.5482C72.3522 139.352 72.0349 139.772 71.5962 140.07C71.1669 140.369 70.6582 140.518 70.0702 140.518ZM78.4583 140.518C77.833 140.518 77.287 140.374 76.8203 140.084C76.3536 139.786 75.9896 139.366 75.7283 138.824C75.4763 138.283 75.3503 137.634 75.3503 136.878C75.3503 136.113 75.4763 135.46 75.7283 134.918C75.9896 134.377 76.3536 133.962 76.8203 133.672C77.287 133.383 77.833 133.238 78.4583 133.238C79.093 133.238 79.639 133.402 80.0963 133.728C80.563 134.046 80.871 134.48 81.0203 135.03H80.8523L81.0063 133.364H82.0983C82.0703 133.635 82.0423 133.91 82.0143 134.19C81.9956 134.461 81.9863 134.727 81.9863 134.988V140.392H80.8523V138.74H81.0063C80.857 139.291 80.549 139.725 80.0823 140.042C79.6156 140.36 79.0743 140.518 78.4583 140.518ZM78.6823 139.594C79.3543 139.594 79.8863 139.366 80.2783 138.908C80.6703 138.442 80.8663 137.765 80.8663 136.878C80.8663 135.982 80.6703 135.306 80.2783 134.848C79.8863 134.382 79.3543 134.148 78.6823 134.148C78.0196 134.148 77.4876 134.382 77.0863 134.848C76.6943 135.306 76.4983 135.982 76.4983 136.878C76.4983 137.765 76.6943 138.442 77.0863 138.908C77.4876 139.366 78.0196 139.594 78.6823 139.594ZM84.2628 140.392V135.058C84.2628 134.778 84.2535 134.494 84.2348 134.204C84.2255 133.915 84.2068 133.635 84.1788 133.364H85.2708L85.4108 135.072L85.2148 135.086C85.3082 134.666 85.4715 134.321 85.7048 134.05C85.9382 133.78 86.2135 133.579 86.5308 133.448C86.8482 133.308 87.1795 133.238 87.5248 133.238C87.6648 133.238 87.7862 133.243 87.8888 133.252C88.0008 133.262 88.1035 133.285 88.1968 133.322L88.1828 134.33C88.0428 134.284 87.9122 134.256 87.7908 134.246C87.6788 134.228 87.5482 134.218 87.3988 134.218C86.9882 134.218 86.6288 134.316 86.3208 134.512C86.0222 134.708 85.7935 134.96 85.6348 135.268C85.4855 135.576 85.4108 135.903 85.4108 136.248V140.392H84.2628ZM92.0667 140.518C91.4507 140.518 90.9094 140.374 90.4427 140.084C89.9761 139.786 89.6121 139.366 89.3507 138.824C89.0987 138.283 88.9727 137.634 88.9727 136.878C88.9727 136.113 89.0987 135.46 89.3507 134.918C89.6121 134.377 89.9761 133.962 90.4427 133.672C90.9094 133.383 91.4507 133.238 92.0667 133.238C92.7014 133.238 93.2474 133.397 93.7047 133.714C94.1714 134.032 94.4841 134.461 94.6427 135.002H94.4747V130.088H95.6087V140.392H94.4887V138.712H94.6427C94.4934 139.272 94.1854 139.716 93.7187 140.042C93.2521 140.36 92.7014 140.518 92.0667 140.518ZM92.3047 139.594C92.9674 139.594 93.4994 139.366 93.9007 138.908C94.3021 138.442 94.5027 137.765 94.5027 136.878C94.5027 135.982 94.3021 135.306 93.9007 134.848C93.4994 134.382 92.9674 134.148 92.3047 134.148C91.6421 134.148 91.1101 134.382 90.7087 134.848C90.3167 135.306 90.1207 135.982 90.1207 136.878C90.1207 137.765 90.3167 138.442 90.7087 138.908C91.1101 139.366 91.6421 139.594 92.3047 139.594ZM101.035 140.518C99.9339 140.518 99.0659 140.201 98.4313 139.566C97.7966 138.922 97.4793 138.031 97.4793 136.892C97.4793 136.155 97.6193 135.516 97.8993 134.974C98.1793 134.424 98.5713 133.999 99.0753 133.7C99.5793 133.392 100.158 133.238 100.811 133.238C101.455 133.238 101.997 133.374 102.435 133.644C102.874 133.915 103.21 134.302 103.443 134.806C103.677 135.301 103.793 135.889 103.793 136.57V136.99H98.3473V136.276H103.051L102.813 136.458C102.813 135.712 102.645 135.128 102.309 134.708C101.973 134.288 101.474 134.078 100.811 134.078C100.111 134.078 99.5653 134.326 99.1733 134.82C98.7813 135.306 98.5853 135.964 98.5853 136.794V136.92C98.5853 137.798 98.7999 138.465 99.2293 138.922C99.6679 139.37 100.279 139.594 101.063 139.594C101.483 139.594 101.875 139.534 102.239 139.412C102.613 139.282 102.967 139.072 103.303 138.782L103.695 139.58C103.387 139.879 102.995 140.112 102.519 140.28C102.053 140.439 101.558 140.518 101.035 140.518ZM112.077 140.518C111.452 140.518 110.906 140.374 110.439 140.084C109.972 139.786 109.608 139.366 109.347 138.824C109.095 138.283 108.969 137.634 108.969 136.878C108.969 136.113 109.095 135.46 109.347 134.918C109.608 134.377 109.972 133.962 110.439 133.672C110.906 133.383 111.452 133.238 112.077 133.238C112.712 133.238 113.258 133.402 113.715 133.728C114.182 134.046 114.49 134.48 114.639 135.03H114.471L114.625 133.364H115.717C115.689 133.635 115.661 133.91 115.633 134.19C115.614 134.461 115.605 134.727 115.605 134.988V140.392H114.471V138.74H114.625C114.476 139.291 114.168 139.725 113.701 140.042C113.234 140.36 112.693 140.518 112.077 140.518ZM112.301 139.594C112.973 139.594 113.505 139.366 113.897 138.908C114.289 138.442 114.485 137.765 114.485 136.878C114.485 135.982 114.289 135.306 113.897 134.848C113.505 134.382 112.973 134.148 112.301 134.148C111.638 134.148 111.106 134.382 110.705 134.848C110.313 135.306 110.117 135.982 110.117 136.878C110.117 137.765 110.313 138.442 110.705 138.908C111.106 139.366 111.638 139.594 112.301 139.594ZM124.626 140.518C123.935 140.518 123.333 140.369 122.82 140.07C122.316 139.772 121.924 139.347 121.644 138.796C121.373 138.246 121.238 137.592 121.238 136.836C121.238 136.071 121.378 135.422 121.658 134.89C121.938 134.349 122.33 133.938 122.834 133.658C123.347 133.378 123.944 133.238 124.626 133.238C125.074 133.238 125.508 133.318 125.928 133.476C126.357 133.635 126.712 133.859 126.992 134.148L126.586 134.96C126.306 134.69 125.998 134.489 125.662 134.358C125.335 134.228 125.013 134.162 124.696 134.162C123.968 134.162 123.403 134.391 123.002 134.848C122.6 135.306 122.4 135.973 122.4 136.85C122.4 137.718 122.6 138.39 123.002 138.866C123.403 139.342 123.968 139.58 124.696 139.58C125.004 139.58 125.321 139.52 125.648 139.398C125.984 139.277 126.296 139.076 126.586 138.796L126.992 139.594C126.702 139.893 126.343 140.122 125.914 140.28C125.484 140.439 125.055 140.518 124.626 140.518ZM131.463 140.518C130.791 140.518 130.203 140.374 129.699 140.084C129.204 139.786 128.821 139.366 128.551 138.824C128.28 138.274 128.145 137.625 128.145 136.878C128.145 136.122 128.28 135.474 128.551 134.932C128.821 134.391 129.204 133.976 129.699 133.686C130.203 133.388 130.791 133.238 131.463 133.238C132.144 133.238 132.732 133.388 133.227 133.686C133.731 133.976 134.118 134.391 134.389 134.932C134.669 135.474 134.809 136.122 134.809 136.878C134.809 137.625 134.669 138.274 134.389 138.824C134.118 139.366 133.731 139.786 133.227 140.084C132.732 140.374 132.144 140.518 131.463 140.518ZM131.463 139.594C132.135 139.594 132.667 139.366 133.059 138.908C133.451 138.442 133.647 137.765 133.647 136.878C133.647 135.982 133.446 135.306 133.045 134.848C132.653 134.382 132.125 134.148 131.463 134.148C130.8 134.148 130.273 134.382 129.881 134.848C129.489 135.306 129.293 135.982 129.293 136.878C129.293 137.765 129.489 138.442 129.881 138.908C130.273 139.366 130.8 139.594 131.463 139.594ZM136.689 140.392V134.988C136.689 134.727 136.675 134.461 136.647 134.19C136.628 133.91 136.605 133.635 136.577 133.364H137.669L137.809 134.904H137.641C137.846 134.363 138.173 133.952 138.621 133.672C139.078 133.383 139.605 133.238 140.203 133.238C141.033 133.238 141.659 133.462 142.079 133.91C142.508 134.349 142.723 135.044 142.723 135.996V140.392H141.589V136.066C141.589 135.404 141.453 134.923 141.183 134.624C140.921 134.316 140.511 134.162 139.951 134.162C139.297 134.162 138.779 134.363 138.397 134.764C138.014 135.166 137.823 135.702 137.823 136.374V140.392H136.689ZM145.368 140.392V134.246H143.996V133.364H145.676L145.368 133.658V132.482C145.368 131.689 145.564 131.082 145.956 130.662C146.357 130.242 146.927 130.032 147.664 130.032C147.841 130.032 148.028 130.051 148.224 130.088C148.429 130.116 148.602 130.158 148.742 130.214V131.152C148.63 131.106 148.49 131.068 148.322 131.04C148.163 131.003 148 130.984 147.832 130.984C147.393 130.984 147.062 131.115 146.838 131.376C146.614 131.638 146.502 132.039 146.502 132.58V133.602L146.32 133.364H150.828V140.392H149.694V134.246H146.502V140.392H145.368ZM149.568 131.768V130.494H150.968V131.768H149.568ZM153.127 140.392V135.058C153.127 134.778 153.118 134.494 153.099 134.204C153.09 133.915 153.071 133.635 153.043 133.364H154.135L154.275 135.072L154.079 135.086C154.172 134.666 154.336 134.321 154.569 134.05C154.802 133.78 155.078 133.579 155.395 133.448C155.712 133.308 156.044 133.238 156.389 133.238C156.529 133.238 156.65 133.243 156.753 133.252C156.865 133.262 156.968 133.285 157.061 133.322L157.047 134.33C156.907 134.284 156.776 134.256 156.655 134.246C156.543 134.228 156.412 134.218 156.263 134.218C155.852 134.218 155.493 134.316 155.185 134.512C154.886 134.708 154.658 134.96 154.499 135.268C154.35 135.576 154.275 135.903 154.275 136.248V140.392H153.127ZM158.353 140.392V134.988C158.353 134.727 158.339 134.461 158.311 134.19C158.292 133.91 158.269 133.635 158.241 133.364H159.333L159.473 134.904H159.305C159.492 134.372 159.786 133.962 160.187 133.672C160.598 133.383 161.092 133.238 161.671 133.238C162.259 133.238 162.735 133.378 163.099 133.658C163.472 133.938 163.724 134.372 163.855 134.96H163.645C163.822 134.428 164.135 134.008 164.583 133.7C165.031 133.392 165.554 133.238 166.151 133.238C166.926 133.238 167.509 133.462 167.901 133.91C168.293 134.349 168.489 135.044 168.489 135.996V140.392H167.355V136.066C167.355 135.404 167.238 134.923 167.005 134.624C166.772 134.316 166.398 134.162 165.885 134.162C165.297 134.162 164.83 134.368 164.485 134.778C164.149 135.18 163.981 135.721 163.981 136.402V140.392H162.847V136.066C162.847 135.404 162.73 134.923 162.497 134.624C162.264 134.316 161.89 134.162 161.377 134.162C160.789 134.162 160.327 134.368 159.991 134.778C159.655 135.18 159.487 135.721 159.487 136.402V140.392H158.353ZM173.43 140.518C172.805 140.518 172.259 140.374 171.792 140.084C171.325 139.786 170.961 139.366 170.7 138.824C170.448 138.283 170.322 137.634 170.322 136.878C170.322 136.113 170.448 135.46 170.7 134.918C170.961 134.377 171.325 133.962 171.792 133.672C172.259 133.383 172.805 133.238 173.43 133.238C174.065 133.238 174.611 133.402 175.068 133.728C175.535 134.046 175.843 134.48 175.992 135.03H175.824L175.978 133.364H177.07C177.042 133.635 177.014 133.91 176.986 134.19C176.967 134.461 176.958 134.727 176.958 134.988V140.392H175.824V138.74H175.978C175.829 139.291 175.521 139.725 175.054 140.042C174.587 140.36 174.046 140.518 173.43 140.518ZM173.654 139.594C174.326 139.594 174.858 139.366 175.25 138.908C175.642 138.442 175.838 137.765 175.838 136.878C175.838 135.982 175.642 135.306 175.25 134.848C174.858 134.382 174.326 134.148 173.654 134.148C172.991 134.148 172.459 134.382 172.058 134.848C171.666 135.306 171.47 135.982 171.47 136.878C171.47 137.765 171.666 138.442 172.058 138.908C172.459 139.366 172.991 139.594 173.654 139.594ZM182.216 140.518C181.526 140.518 180.924 140.369 180.41 140.07C179.906 139.772 179.514 139.347 179.234 138.796C178.964 138.246 178.828 137.592 178.828 136.836C178.828 136.071 178.968 135.422 179.248 134.89C179.528 134.349 179.92 133.938 180.424 133.658C180.938 133.378 181.535 133.238 182.216 133.238C182.664 133.238 183.098 133.318 183.518 133.476C183.948 133.635 184.302 133.859 184.582 134.148L184.176 134.96C183.896 134.69 183.588 134.489 183.252 134.358C182.926 134.228 182.604 134.162 182.286 134.162C181.558 134.162 180.994 134.391 180.592 134.848C180.191 135.306 179.99 135.973 179.99 136.85C179.99 137.718 180.191 138.39 180.592 138.866C180.994 139.342 181.558 139.58 182.286 139.58C182.594 139.58 182.912 139.52 183.238 139.398C183.574 139.277 183.887 139.076 184.176 138.796L184.582 139.594C184.293 139.893 183.934 140.122 183.504 140.28C183.075 140.439 182.646 140.518 182.216 140.518ZM182.216 143.08C181.974 143.08 181.74 143.057 181.516 143.01C181.302 142.964 181.115 142.898 180.956 142.814L181.152 142.198C181.32 142.273 181.479 142.329 181.628 142.366C181.787 142.404 181.969 142.422 182.174 142.422C182.426 142.422 182.627 142.376 182.776 142.282C182.926 142.198 183 142.072 183 141.904C183 141.643 182.823 141.512 182.468 141.512C182.366 141.512 182.263 141.517 182.16 141.526C182.067 141.545 181.95 141.582 181.81 141.638L181.572 141.414L181.782 140.112H182.496L182.314 141.162L181.978 141.078C182.081 141.05 182.188 141.027 182.3 141.008C182.412 140.99 182.515 140.98 182.608 140.98C182.944 140.98 183.224 141.064 183.448 141.232C183.672 141.4 183.784 141.634 183.784 141.932C183.784 142.278 183.64 142.553 183.35 142.758C183.061 142.973 182.683 143.08 182.216 143.08ZM188.98 140.518C188.355 140.518 187.809 140.374 187.342 140.084C186.875 139.786 186.511 139.366 186.25 138.824C185.998 138.283 185.872 137.634 185.872 136.878C185.872 136.113 185.998 135.46 186.25 134.918C186.511 134.377 186.875 133.962 187.342 133.672C187.809 133.383 188.355 133.238 188.98 133.238C189.615 133.238 190.161 133.402 190.618 133.728C191.085 134.046 191.393 134.48 191.542 135.03H191.374L191.528 133.364H192.62C192.592 133.635 192.564 133.91 192.536 134.19C192.517 134.461 192.508 134.727 192.508 134.988V140.392H191.374V138.74H191.528C191.379 139.291 191.071 139.725 190.604 140.042C190.137 140.36 189.596 140.518 188.98 140.518ZM189.204 139.594C189.876 139.594 190.408 139.366 190.8 138.908C191.192 138.442 191.388 137.765 191.388 136.878C191.388 135.982 191.192 135.306 190.8 134.848C190.408 134.382 189.876 134.148 189.204 134.148C188.541 134.148 188.009 134.382 187.608 134.848C187.216 135.306 187.02 135.982 187.02 136.878C187.02 137.765 187.216 138.442 187.608 138.908C188.009 139.366 188.541 139.594 189.204 139.594ZM187.44 132.132L186.796 132.09C186.843 131.493 187.001 131.036 187.272 130.718C187.543 130.392 187.883 130.228 188.294 130.228C188.499 130.228 188.686 130.275 188.854 130.368C189.031 130.462 189.232 130.606 189.456 130.802C189.661 130.989 189.825 131.12 189.946 131.194C190.077 131.26 190.203 131.292 190.324 131.292C190.8 131.292 191.089 130.924 191.192 130.186L191.836 130.228C191.789 130.826 191.631 131.288 191.36 131.614C191.099 131.932 190.763 132.09 190.352 132.09C190.156 132.09 189.969 132.044 189.792 131.95C189.615 131.857 189.409 131.708 189.176 131.502C188.98 131.325 188.817 131.204 188.686 131.138C188.565 131.064 188.439 131.026 188.308 131.026C188.065 131.026 187.869 131.124 187.72 131.32C187.58 131.507 187.487 131.778 187.44 132.132ZM197.697 140.518C197.025 140.518 196.437 140.374 195.933 140.084C195.438 139.786 195.055 139.366 194.785 138.824C194.514 138.274 194.379 137.625 194.379 136.878C194.379 136.122 194.514 135.474 194.785 134.932C195.055 134.391 195.438 133.976 195.933 133.686C196.437 133.388 197.025 133.238 197.697 133.238C198.378 133.238 198.966 133.388 199.461 133.686C199.965 133.976 200.352 134.391 200.623 134.932C200.903 135.474 201.043 136.122 201.043 136.878C201.043 137.625 200.903 138.274 200.623 138.824C200.352 139.366 199.965 139.786 199.461 140.084C198.966 140.374 198.378 140.518 197.697 140.518ZM197.697 139.594C198.369 139.594 198.901 139.366 199.293 138.908C199.685 138.442 199.881 137.765 199.881 136.878C199.881 135.982 199.68 135.306 199.279 134.848C198.887 134.382 198.359 134.148 197.697 134.148C197.034 134.148 196.507 134.382 196.115 134.848C195.723 135.306 195.527 135.982 195.527 136.878C195.527 137.765 195.723 138.442 196.115 138.908C196.507 139.366 197.034 139.594 197.697 139.594ZM209.345 140.518C208.729 140.518 208.188 140.374 207.721 140.084C207.254 139.786 206.89 139.366 206.629 138.824C206.377 138.283 206.251 137.634 206.251 136.878C206.251 136.113 206.377 135.46 206.629 134.918C206.89 134.377 207.254 133.962 207.721 133.672C208.188 133.383 208.729 133.238 209.345 133.238C209.98 133.238 210.526 133.397 210.983 133.714C211.45 134.032 211.762 134.461 211.921 135.002H211.753V130.088H212.887V140.392H211.767V138.712H211.921C211.772 139.272 211.464 139.716 210.997 140.042C210.53 140.36 209.98 140.518 209.345 140.518ZM209.583 139.594C210.246 139.594 210.778 139.366 211.179 138.908C211.58 138.442 211.781 137.765 211.781 136.878C211.781 135.982 211.58 135.306 211.179 134.848C210.778 134.382 210.246 134.148 209.583 134.148C208.92 134.148 208.388 134.382 207.987 134.848C207.595 135.306 207.399 135.982 207.399 136.878C207.399 137.765 207.595 138.442 207.987 138.908C208.388 139.366 208.92 139.594 209.583 139.594ZM218.076 140.518C217.404 140.518 216.816 140.374 216.312 140.084C215.817 139.786 215.434 139.366 215.164 138.824C214.893 138.274 214.758 137.625 214.758 136.878C214.758 136.122 214.893 135.474 215.164 134.932C215.434 134.391 215.817 133.976 216.312 133.686C216.816 133.388 217.404 133.238 218.076 133.238C218.757 133.238 219.345 133.388 219.84 133.686C220.344 133.976 220.731 134.391 221.002 134.932C221.282 135.474 221.422 136.122 221.422 136.878C221.422 137.625 221.282 138.274 221.002 138.824C220.731 139.366 220.344 139.786 219.84 140.084C219.345 140.374 218.757 140.518 218.076 140.518ZM218.076 139.594C218.748 139.594 219.28 139.366 219.672 138.908C220.064 138.442 220.26 137.765 220.26 136.878C220.26 135.982 220.059 135.306 219.658 134.848C219.266 134.382 218.738 134.148 218.076 134.148C217.413 134.148 216.886 134.382 216.494 134.848C216.102 135.306 215.906 135.982 215.906 136.878C215.906 137.765 216.102 138.442 216.494 138.908C216.886 139.366 217.413 139.594 218.076 139.594ZM227.036 140.392V135.058C227.036 134.778 227.027 134.494 227.008 134.204C226.999 133.915 226.98 133.635 226.952 133.364H228.044L228.184 135.072L227.988 135.086C228.081 134.666 228.245 134.321 228.478 134.05C228.711 133.78 228.987 133.579 229.304 133.448C229.621 133.308 229.953 133.238 230.298 133.238C230.438 133.238 230.559 133.243 230.662 133.252C230.774 133.262 230.877 133.285 230.97 133.322L230.956 134.33C230.816 134.284 230.685 134.256 230.564 134.246C230.452 134.228 230.321 134.218 230.172 134.218C229.761 134.218 229.402 134.316 229.094 134.512C228.795 134.708 228.567 134.96 228.408 135.268C228.259 135.576 228.184 135.903 228.184 136.248V140.392H227.036ZM235.302 140.518C234.201 140.518 233.333 140.201 232.698 139.566C232.063 138.922 231.746 138.031 231.746 136.892C231.746 136.155 231.886 135.516 232.166 134.974C232.446 134.424 232.838 133.999 233.342 133.7C233.846 133.392 234.425 133.238 235.078 133.238C235.722 133.238 236.263 133.374 236.702 133.644C237.141 133.915 237.477 134.302 237.71 134.806C237.943 135.301 238.06 135.889 238.06 136.57V136.99H232.614V136.276H237.318L237.08 136.458C237.08 135.712 236.912 135.128 236.576 134.708C236.24 134.288 235.741 134.078 235.078 134.078C234.378 134.078 233.832 134.326 233.44 134.82C233.048 135.306 232.852 135.964 232.852 136.794V136.92C232.852 137.798 233.067 138.465 233.496 138.922C233.935 139.37 234.546 139.594 235.33 139.594C235.75 139.594 236.142 139.534 236.506 139.412C236.879 139.282 237.234 139.072 237.57 138.782L237.962 139.58C237.654 139.879 237.262 140.112 236.786 140.28C236.319 140.439 235.825 140.518 235.302 140.518ZM242.245 140.518C241.685 140.518 241.162 140.444 240.677 140.294C240.192 140.136 239.79 139.916 239.473 139.636L239.865 138.838C240.21 139.109 240.584 139.31 240.985 139.44C241.396 139.571 241.82 139.636 242.259 139.636C242.819 139.636 243.239 139.538 243.519 139.342C243.808 139.137 243.953 138.857 243.953 138.502C243.953 138.232 243.86 138.017 243.673 137.858C243.496 137.69 243.202 137.56 242.791 137.466L241.489 137.2C240.892 137.07 240.444 136.85 240.145 136.542C239.846 136.225 239.697 135.824 239.697 135.338C239.697 134.928 239.804 134.568 240.019 134.26C240.234 133.943 240.546 133.696 240.957 133.518C241.368 133.332 241.848 133.238 242.399 133.238C242.912 133.238 243.384 133.318 243.813 133.476C244.252 133.626 244.616 133.845 244.905 134.134L244.499 134.918C244.219 134.648 243.897 134.447 243.533 134.316C243.178 134.176 242.81 134.106 242.427 134.106C241.876 134.106 241.461 134.218 241.181 134.442C240.91 134.657 240.775 134.942 240.775 135.296C240.775 135.567 240.859 135.791 241.027 135.968C241.204 136.136 241.475 136.262 241.839 136.346L243.141 136.612C243.776 136.752 244.247 136.972 244.555 137.27C244.872 137.56 245.031 137.952 245.031 138.446C245.031 138.866 244.914 139.235 244.681 139.552C244.448 139.86 244.121 140.098 243.701 140.266C243.29 140.434 242.805 140.518 242.245 140.518ZM249.388 140.518C248.697 140.518 248.17 140.322 247.806 139.93C247.442 139.529 247.26 138.927 247.26 138.124V134.246H245.888V133.364H247.26V131.446L248.394 131.124V133.364H250.41V134.246H248.394V137.998C248.394 138.558 248.487 138.96 248.674 139.202C248.87 139.436 249.159 139.552 249.542 139.552C249.719 139.552 249.878 139.538 250.018 139.51C250.158 139.473 250.284 139.431 250.396 139.384V140.336C250.265 140.392 250.107 140.434 249.92 140.462C249.743 140.5 249.565 140.518 249.388 140.518ZM254.577 140.518C253.951 140.518 253.405 140.374 252.939 140.084C252.472 139.786 252.108 139.366 251.847 138.824C251.595 138.283 251.469 137.634 251.469 136.878C251.469 136.113 251.595 135.46 251.847 134.918C252.108 134.377 252.472 133.962 252.939 133.672C253.405 133.383 253.951 133.238 254.577 133.238C255.211 133.238 255.757 133.402 256.215 133.728C256.681 134.046 256.989 134.48 257.139 135.03H256.971L257.125 133.364H258.217C258.189 133.635 258.161 133.91 258.133 134.19C258.114 134.461 258.105 134.727 258.105 134.988V140.392H256.971V138.74H257.125C256.975 139.291 256.667 139.725 256.201 140.042C255.734 140.36 255.193 140.518 254.577 140.518ZM254.801 139.594C255.473 139.594 256.005 139.366 256.397 138.908C256.789 138.442 256.985 137.765 256.985 136.878C256.985 135.982 256.789 135.306 256.397 134.848C256.005 134.382 255.473 134.148 254.801 134.148C254.138 134.148 253.606 134.382 253.205 134.848C252.813 135.306 252.617 135.982 252.617 136.878C252.617 137.765 252.813 138.442 253.205 138.908C253.606 139.366 254.138 139.594 254.801 139.594ZM262.887 140.518C262.057 140.518 261.427 140.29 260.997 139.832C260.577 139.375 260.367 138.675 260.367 137.732V133.364H261.501V137.704C261.501 138.348 261.632 138.824 261.893 139.132C262.155 139.431 262.561 139.58 263.111 139.58C263.727 139.58 264.222 139.38 264.595 138.978C264.969 138.577 265.155 138.04 265.155 137.368V133.364H266.289V140.392H265.183V138.81H265.365C265.169 139.352 264.852 139.772 264.413 140.07C263.984 140.369 263.475 140.518 262.887 140.518ZM268.573 140.392V135.058C268.573 134.778 268.564 134.494 268.545 134.204C268.536 133.915 268.517 133.635 268.489 133.364H269.581L269.721 135.072L269.525 135.086C269.619 134.666 269.782 134.321 270.015 134.05C270.249 133.78 270.524 133.579 270.841 133.448C271.159 133.308 271.49 133.238 271.835 133.238C271.975 133.238 272.097 133.243 272.199 133.252C272.311 133.262 272.414 133.285 272.507 133.322L272.493 134.33C272.353 134.284 272.223 134.256 272.101 134.246C271.989 134.228 271.859 134.218 271.709 134.218C271.299 134.218 270.939 134.316 270.631 134.512C270.333 134.708 270.104 134.96 269.945 135.268C269.796 135.576 269.721 135.903 269.721 136.248V140.392H268.573ZM276.405 140.518C275.779 140.518 275.233 140.374 274.767 140.084C274.3 139.786 273.936 139.366 273.675 138.824C273.423 138.283 273.297 137.634 273.297 136.878C273.297 136.113 273.423 135.46 273.675 134.918C273.936 134.377 274.3 133.962 274.767 133.672C275.233 133.383 275.779 133.238 276.405 133.238C277.039 133.238 277.585 133.402 278.043 133.728C278.509 134.046 278.817 134.48 278.967 135.03H278.799L278.953 133.364H280.045C280.017 133.635 279.989 133.91 279.961 134.19C279.942 134.461 279.933 134.727 279.933 134.988V140.392H278.799V138.74H278.953C278.803 139.291 278.495 139.725 278.029 140.042C277.562 140.36 277.021 140.518 276.405 140.518ZM276.629 139.594C277.301 139.594 277.833 139.366 278.225 138.908C278.617 138.442 278.813 137.765 278.813 136.878C278.813 135.982 278.617 135.306 278.225 134.848C277.833 134.382 277.301 134.148 276.629 134.148C275.966 134.148 275.434 134.382 275.033 134.848C274.641 135.306 274.445 135.982 274.445 136.878C274.445 137.765 274.641 138.442 275.033 138.908C275.434 139.366 275.966 139.594 276.629 139.594ZM282.237 140.392V134.988C282.237 134.727 282.223 134.461 282.195 134.19C282.177 133.91 282.153 133.635 282.125 133.364H283.217L283.357 134.904H283.189C283.395 134.363 283.721 133.952 284.169 133.672C284.627 133.383 285.154 133.238 285.751 133.238C286.582 133.238 287.207 133.462 287.627 133.91C288.057 134.349 288.271 135.044 288.271 135.996V140.392H287.137V136.066C287.137 135.404 287.002 134.923 286.731 134.624C286.47 134.316 286.059 134.162 285.499 134.162C284.846 134.162 284.328 134.363 283.945 134.764C283.563 135.166 283.371 135.702 283.371 136.374V140.392H282.237ZM293.044 140.518C292.354 140.518 291.826 140.322 291.462 139.93C291.098 139.529 290.916 138.927 290.916 138.124V134.246H289.544V133.364H290.916V131.446L292.05 131.124V133.364H294.066V134.246H292.05V137.998C292.05 138.558 292.144 138.96 292.33 139.202C292.526 139.436 292.816 139.552 293.198 139.552C293.376 139.552 293.534 139.538 293.674 139.51C293.814 139.473 293.94 139.431 294.052 139.384V140.336C293.922 140.392 293.763 140.434 293.576 140.462C293.399 140.5 293.222 140.518 293.044 140.518ZM298.613 140.518C297.511 140.518 296.643 140.201 296.009 139.566C295.374 138.922 295.057 138.031 295.057 136.892C295.057 136.155 295.197 135.516 295.477 134.974C295.757 134.424 296.149 133.999 296.653 133.7C297.157 133.392 297.735 133.238 298.389 133.238C299.033 133.238 299.574 133.374 300.013 133.644C300.451 133.915 300.787 134.302 301.021 134.806C301.254 135.301 301.371 135.889 301.371 136.57V136.99H295.925V136.276H300.629L300.391 136.458C300.391 135.712 300.223 135.128 299.887 134.708C299.551 134.288 299.051 134.078 298.389 134.078C297.689 134.078 297.143 134.326 296.751 134.82C296.359 135.306 296.163 135.964 296.163 136.794V136.92C296.163 137.798 296.377 138.465 296.807 138.922C297.245 139.37 297.857 139.594 298.641 139.594C299.061 139.594 299.453 139.534 299.817 139.412C300.19 139.282 300.545 139.072 300.881 138.782L301.273 139.58C300.965 139.879 300.573 140.112 300.097 140.28C299.63 140.439 299.135 140.518 298.613 140.518ZM48.7061 162.416V153.988C48.7061 153.727 48.6921 153.461 48.6641 153.19C48.6454 152.91 48.6221 152.635 48.5941 152.364H49.6861L49.8401 154.03H49.6721C49.8214 153.48 50.1248 153.046 50.5821 152.728C51.0394 152.402 51.5854 152.238 52.2201 152.238C52.8548 152.238 53.4008 152.383 53.8581 152.672C54.3248 152.962 54.6888 153.377 54.9501 153.918C55.2114 154.46 55.3421 155.113 55.3421 155.878C55.3421 156.634 55.2114 157.283 54.9501 157.824C54.6981 158.366 54.3388 158.786 53.8721 159.084C53.4054 159.374 52.8548 159.518 52.2201 159.518C51.5948 159.518 51.0534 159.36 50.5961 159.042C50.1388 158.725 49.8354 158.291 49.6861 157.74H49.8401V162.416H48.7061ZM51.9961 158.594C52.6681 158.594 53.2001 158.366 53.5921 157.908C53.9934 157.442 54.1941 156.765 54.1941 155.878C54.1941 154.982 53.9934 154.306 53.5921 153.848C53.2001 153.382 52.6681 153.148 51.9961 153.148C51.3334 153.148 50.8014 153.382 50.4001 153.848C50.0081 154.306 49.8121 154.982 49.8121 155.878C49.8121 156.765 50.0081 157.442 50.4001 157.908C50.8014 158.366 51.3334 158.594 51.9961 158.594ZM60.3346 159.518C59.2333 159.518 58.3653 159.201 57.7306 158.566C57.096 157.922 56.7786 157.031 56.7786 155.892C56.7786 155.155 56.9186 154.516 57.1986 153.974C57.4786 153.424 57.8706 152.999 58.3746 152.7C58.8786 152.392 59.4573 152.238 60.1106 152.238C60.7546 152.238 61.296 152.374 61.7346 152.644C62.1733 152.915 62.5093 153.302 62.7426 153.806C62.976 154.301 63.0926 154.889 63.0926 155.57V155.99H57.6466V155.276H62.3506L62.1126 155.458C62.1126 154.712 61.9446 154.128 61.6086 153.708C61.2726 153.288 60.7733 153.078 60.1106 153.078C59.4106 153.078 58.8646 153.326 58.4726 153.82C58.0806 154.306 57.8846 154.964 57.8846 155.794V155.92C57.8846 156.798 58.0993 157.465 58.5286 157.922C58.9673 158.37 59.5786 158.594 60.3626 158.594C60.7826 158.594 61.1746 158.534 61.5386 158.412C61.912 158.282 62.2666 158.072 62.6026 157.782L62.9946 158.58C62.6866 158.879 62.2946 159.112 61.8186 159.28C61.352 159.439 60.8573 159.518 60.3346 159.518ZM64.9399 159.392V149.088H66.0739V159.392H64.9399ZM71.2718 159.518C70.5998 159.518 70.0118 159.374 69.5078 159.084C69.0131 158.786 68.6305 158.366 68.3598 157.824C68.0891 157.274 67.9538 156.625 67.9538 155.878C67.9538 155.122 68.0891 154.474 68.3598 153.932C68.6305 153.391 69.0131 152.976 69.5078 152.686C70.0118 152.388 70.5998 152.238 71.2718 152.238C71.9531 152.238 72.5411 152.388 73.0358 152.686C73.5398 152.976 73.9271 153.391 74.1978 153.932C74.4778 154.474 74.6178 155.122 74.6178 155.878C74.6178 156.625 74.4778 157.274 74.1978 157.824C73.9271 158.366 73.5398 158.786 73.0358 159.084C72.5411 159.374 71.9531 159.518 71.2718 159.518ZM71.2718 158.594C71.9438 158.594 72.4758 158.366 72.8678 157.908C73.2598 157.442 73.4558 156.765 73.4558 155.878C73.4558 154.982 73.2551 154.306 72.8538 153.848C72.4618 153.382 71.9345 153.148 71.2718 153.148C70.6091 153.148 70.0818 153.382 69.6898 153.848C69.2978 154.306 69.1018 154.982 69.1018 155.878C69.1018 156.765 69.2978 157.442 69.6898 157.908C70.0818 158.366 70.6091 158.594 71.2718 158.594ZM82.5982 159.518C82.0382 159.518 81.5156 159.444 81.0302 159.294C80.5449 159.136 80.1436 158.916 79.8262 158.636L80.2182 157.838C80.5636 158.109 80.9369 158.31 81.3382 158.44C81.7489 158.571 82.1736 158.636 82.6122 158.636C83.1722 158.636 83.5922 158.538 83.8722 158.342C84.1616 158.137 84.3062 157.857 84.3062 157.502C84.3062 157.232 84.2129 157.017 84.0262 156.858C83.8489 156.69 83.5549 156.56 83.1442 156.466L81.8422 156.2C81.2449 156.07 80.7969 155.85 80.4982 155.542C80.1996 155.225 80.0502 154.824 80.0502 154.338C80.0502 153.928 80.1576 153.568 80.3722 153.26C80.5869 152.943 80.8996 152.696 81.3102 152.518C81.7209 152.332 82.2016 152.238 82.7522 152.238C83.2656 152.238 83.7369 152.318 84.1662 152.476C84.6049 152.626 84.9689 152.845 85.2582 153.134L84.8522 153.918C84.5722 153.648 84.2502 153.447 83.8862 153.316C83.5316 153.176 83.1629 153.106 82.7802 153.106C82.2296 153.106 81.8142 153.218 81.5342 153.442C81.2636 153.657 81.1282 153.942 81.1282 154.296C81.1282 154.567 81.2122 154.791 81.3802 154.968C81.5576 155.136 81.8282 155.262 82.1922 155.346L83.4942 155.612C84.1289 155.752 84.6002 155.972 84.9082 156.27C85.2256 156.56 85.3842 156.952 85.3842 157.446C85.3842 157.866 85.2676 158.235 85.0342 158.552C84.8009 158.86 84.4742 159.098 84.0542 159.266C83.6436 159.434 83.1582 159.518 82.5982 159.518ZM90.4396 159.518C89.3382 159.518 88.4702 159.201 87.8356 158.566C87.2009 157.922 86.8836 157.031 86.8836 155.892C86.8836 155.155 87.0236 154.516 87.3036 153.974C87.5836 153.424 87.9756 152.999 88.4796 152.7C88.9836 152.392 89.5622 152.238 90.2156 152.238C90.8596 152.238 91.4009 152.374 91.8396 152.644C92.2782 152.915 92.6142 153.302 92.8476 153.806C93.0809 154.301 93.1976 154.889 93.1976 155.57V155.99H87.7516V155.276H92.4556L92.2176 155.458C92.2176 154.712 92.0496 154.128 91.7136 153.708C91.3776 153.288 90.8782 153.078 90.2156 153.078C89.5156 153.078 88.9696 153.326 88.5776 153.82C88.1856 154.306 87.9896 154.964 87.9896 155.794V155.92C87.9896 156.798 88.2042 157.465 88.6336 157.922C89.0722 158.37 89.6836 158.594 90.4676 158.594C90.8876 158.594 91.2796 158.534 91.6436 158.412C92.0169 158.282 92.3716 158.072 92.7076 157.782L93.0996 158.58C92.7916 158.879 92.3996 159.112 91.9236 159.28C91.4569 159.439 90.9622 159.518 90.4396 159.518ZM97.5228 159.518C96.6921 159.518 96.0621 159.29 95.6328 158.832C95.2128 158.375 95.0028 157.675 95.0028 156.732V152.364H96.1368V156.704C96.1368 157.348 96.2675 157.824 96.5288 158.132C96.7901 158.431 97.1961 158.58 97.7468 158.58C98.3628 158.58 98.8575 158.38 99.2308 157.978C99.6041 157.577 99.7908 157.04 99.7908 156.368V152.364H100.925V159.392H99.8188V157.81H100.001C99.8048 158.352 99.4875 158.772 99.0488 159.07C98.6195 159.369 98.1108 159.518 97.5228 159.518ZM108.875 159.392L106.271 152.364H107.475L109.645 158.552H109.281L111.521 152.364H112.501L114.699 158.552H114.349L116.533 152.364H117.681L115.063 159.392H113.971L111.703 153.106H112.263L109.981 159.392H108.875ZM119.279 159.392V149.088H120.413V153.918H120.231C120.427 153.368 120.754 152.952 121.211 152.672C121.678 152.383 122.215 152.238 122.821 152.238C123.661 152.238 124.287 152.467 124.697 152.924C125.108 153.372 125.313 154.054 125.313 154.968V159.392H124.179V155.038C124.179 154.385 124.049 153.909 123.787 153.61C123.535 153.312 123.125 153.162 122.555 153.162C121.902 153.162 121.379 153.363 120.987 153.764C120.605 154.166 120.413 154.693 120.413 155.346V159.392H119.279ZM130.268 159.518C129.643 159.518 129.097 159.374 128.63 159.084C128.164 158.786 127.8 158.366 127.538 157.824C127.286 157.283 127.16 156.634 127.16 155.878C127.16 155.113 127.286 154.46 127.538 153.918C127.8 153.377 128.164 152.962 128.63 152.672C129.097 152.383 129.643 152.238 130.268 152.238C130.903 152.238 131.449 152.402 131.906 152.728C132.373 153.046 132.681 153.48 132.83 154.03H132.662L132.816 152.364H133.908C133.88 152.635 133.852 152.91 133.824 153.19C133.806 153.461 133.796 153.727 133.796 153.988V159.392H132.662V157.74H132.816C132.667 158.291 132.359 158.725 131.892 159.042C131.426 159.36 130.884 159.518 130.268 159.518ZM130.492 158.594C131.164 158.594 131.696 158.366 132.088 157.908C132.48 157.442 132.676 156.765 132.676 155.878C132.676 154.982 132.48 154.306 132.088 153.848C131.696 153.382 131.164 153.148 130.492 153.148C129.83 153.148 129.298 153.382 128.896 153.848C128.504 154.306 128.308 154.982 128.308 155.878C128.308 156.765 128.504 157.442 128.896 157.908C129.298 158.366 129.83 158.594 130.492 158.594ZM138.593 159.518C137.902 159.518 137.375 159.322 137.011 158.93C136.647 158.529 136.465 157.927 136.465 157.124V153.246H135.093V152.364H136.465V150.446L137.599 150.124V152.364H139.615V153.246H137.599V156.998C137.599 157.558 137.692 157.96 137.879 158.202C138.075 158.436 138.364 158.552 138.747 158.552C138.924 158.552 139.083 158.538 139.223 158.51C139.363 158.473 139.489 158.431 139.601 158.384V159.336C139.47 159.392 139.312 159.434 139.125 159.462C138.948 159.5 138.77 159.518 138.593 159.518ZM143.445 159.518C142.885 159.518 142.363 159.444 141.877 159.294C141.392 159.136 140.991 158.916 140.673 158.636L141.065 157.838C141.411 158.109 141.784 158.31 142.185 158.44C142.596 158.571 143.021 158.636 143.459 158.636C144.019 158.636 144.439 158.538 144.719 158.342C145.009 158.137 145.153 157.857 145.153 157.502C145.153 157.232 145.06 157.017 144.873 156.858C144.696 156.69 144.402 156.56 143.991 156.466L142.689 156.2C142.092 156.07 141.644 155.85 141.345 155.542C141.047 155.225 140.897 154.824 140.897 154.338C140.897 153.928 141.005 153.568 141.219 153.26C141.434 152.943 141.747 152.696 142.157 152.518C142.568 152.332 143.049 152.238 143.599 152.238C144.113 152.238 144.584 152.318 145.013 152.476C145.452 152.626 145.816 152.845 146.105 153.134L145.699 153.918C145.419 153.648 145.097 153.447 144.733 153.316C144.379 153.176 144.01 153.106 143.627 153.106C143.077 153.106 142.661 153.218 142.381 153.442C142.111 153.657 141.975 153.942 141.975 154.296C141.975 154.567 142.059 154.791 142.227 154.968C142.405 155.136 142.675 155.262 143.039 155.346L144.341 155.612C144.976 155.752 145.447 155.972 145.755 156.27C146.073 156.56 146.231 156.952 146.231 157.446C146.231 157.866 146.115 158.235 145.881 158.552C145.648 158.86 145.321 159.098 144.901 159.266C144.491 159.434 144.005 159.518 143.445 159.518ZM150.839 159.518C150.213 159.518 149.667 159.374 149.201 159.084C148.734 158.786 148.37 158.366 148.109 157.824C147.857 157.283 147.731 156.634 147.731 155.878C147.731 155.113 147.857 154.46 148.109 153.918C148.37 153.377 148.734 152.962 149.201 152.672C149.667 152.383 150.213 152.238 150.839 152.238C151.473 152.238 152.019 152.402 152.477 152.728C152.943 153.046 153.251 153.48 153.401 154.03H153.233L153.387 152.364H154.479C154.451 152.635 154.423 152.91 154.395 153.19C154.376 153.461 154.367 153.727 154.367 153.988V159.392H153.233V157.74H153.387C153.237 158.291 152.929 158.725 152.463 159.042C151.996 159.36 151.455 159.518 150.839 159.518ZM151.063 158.594C151.735 158.594 152.267 158.366 152.659 157.908C153.051 157.442 153.247 156.765 153.247 155.878C153.247 154.982 153.051 154.306 152.659 153.848C152.267 153.382 151.735 153.148 151.063 153.148C150.4 153.148 149.868 153.382 149.467 153.848C149.075 154.306 148.879 154.982 148.879 155.878C148.879 156.765 149.075 157.442 149.467 157.908C149.868 158.366 150.4 158.594 151.063 158.594ZM156.671 162.416V153.988C156.671 153.727 156.657 153.461 156.629 153.19C156.611 152.91 156.587 152.635 156.559 152.364H157.651L157.805 154.03H157.637C157.787 153.48 158.09 153.046 158.547 152.728C159.005 152.402 159.551 152.238 160.185 152.238C160.82 152.238 161.366 152.383 161.823 152.672C162.29 152.962 162.654 153.377 162.915 153.918C163.177 154.46 163.307 155.113 163.307 155.878C163.307 156.634 163.177 157.283 162.915 157.824C162.663 158.366 162.304 158.786 161.837 159.084C161.371 159.374 160.82 159.518 160.185 159.518C159.56 159.518 159.019 159.36 158.561 159.042C158.104 158.725 157.801 158.291 157.651 157.74H157.805V162.416H156.671ZM159.961 158.594C160.633 158.594 161.165 158.366 161.557 157.908C161.959 157.442 162.159 156.765 162.159 155.878C162.159 154.982 161.959 154.306 161.557 153.848C161.165 153.382 160.633 153.148 159.961 153.148C159.299 153.148 158.767 153.382 158.365 153.848C157.973 154.306 157.777 154.982 157.777 155.878C157.777 156.765 157.973 157.442 158.365 157.908C158.767 158.366 159.299 158.594 159.961 158.594ZM165.178 162.416V153.988C165.178 153.727 165.164 153.461 165.136 153.19C165.117 152.91 165.094 152.635 165.066 152.364H166.158L166.312 154.03H166.144C166.293 153.48 166.596 153.046 167.054 152.728C167.511 152.402 168.057 152.238 168.692 152.238C169.326 152.238 169.872 152.383 170.33 152.672C170.796 152.962 171.16 153.377 171.422 153.918C171.683 154.46 171.814 155.113 171.814 155.878C171.814 156.634 171.683 157.283 171.422 157.824C171.17 158.366 170.81 158.786 170.344 159.084C169.877 159.374 169.326 159.518 168.692 159.518C168.066 159.518 167.525 159.36 167.068 159.042C166.61 158.725 166.307 158.291 166.158 157.74H166.312V162.416H165.178ZM168.468 158.594C169.14 158.594 169.672 158.366 170.064 157.908C170.465 157.442 170.666 156.765 170.666 155.878C170.666 154.982 170.465 154.306 170.064 153.848C169.672 153.382 169.14 153.148 168.468 153.148C167.805 153.148 167.273 153.382 166.872 153.848C166.48 154.306 166.284 154.982 166.284 155.878C166.284 156.765 166.48 157.442 166.872 157.908C167.273 158.366 167.805 158.594 168.468 158.594ZM173.146 159.392V157.964H174.574V159.392H173.146Z" fill="#92929D"/>
<defs>
<filter id="filter0_dd_5_755" x="0" y="0.546753" width="356" height="255.824" filterUnits="userSpaceOnUse" color-interpolation-filters="sRGB">
<feFlood flood-opacity="0" result="BackgroundImageFix"/>
<feColorMatrix in="SourceAlpha" type="matrix" values="0 0 0 0 0 0 0 0 0 0 0 0 0 0 0 0 0 0 127 0" result="hardAlpha"/>
<feOffset dy="2"/>
<feGaussianBlur stdDeviation="7.5"/>
<feColorMatrix type="matrix" values="0 0 0 0 0.268354 0 0 0 0 0.268354 0 0 0 0 0.31049 0 0 0 0.1 0"/>
<feBlend mode="normal" in2="BackgroundImageFix" result="effect1_dropShadow_5_755"/>
<feColorMatrix in="SourceAlpha" type="matrix" values="0 0 0 0 0 0 0 0 0 0 0 0 0 0 0 0 0 0 127 0" result="hardAlpha"/>
<feOffset dy="2"/>
<feGaussianBlur stdDeviation="2"/>
<feColorMatrix type="matrix" values="0 0 0 0 0.266667 0 0 0 0 0.266667 0 0 0 0 0.309804 0 0 0 0.15 0"/>
<feBlend mode="normal" in2="effect1_dropShadow_5_755" result="effect2_dropShadow_5_755"/>
<feBlend mode="normal" in="SourceGraphic" in2="effect2_dropShadow_5_755" result="shape"/>
</filter>
</defs>
</svg>
