<svg width="361" height="262" viewBox="0 0 361 262" fill="none" xmlns="http://www.w3.org/2000/svg">
<g filter="url(#filter0_dd_89_1159)">
<path fill-rule="evenodd" clip-rule="evenodd" d="M317.781 14.5167C316.588 13.1886 314.508 13.1886 313.315 14.5167L303.632 25.3052H24.6C21.2397 25.3052 19.5595 25.3052 18.2761 25.9592C17.1471 26.5344 16.2292 27.4523 15.654 28.5813C15 29.8648 15 31.5449 15 34.9052V234.757C15 238.117 15 239.797 15.654 241.081C16.2292 242.21 17.1471 243.128 18.2761 243.703C19.5595 244.357 21.2397 244.357 24.6 244.357H336.4C339.76 244.357 341.44 244.357 342.724 243.703C343.853 243.128 344.771 242.21 345.346 241.081C346 239.797 346 238.117 346 234.757V34.9052C346 31.5449 346 29.8648 345.346 28.5813C344.771 27.4523 343.853 26.5344 342.724 25.9592C341.44 25.3052 339.76 25.3052 336.4 25.3052H327.464L317.781 14.5167Z" fill="white"/>
</g>
<path d="M49.4281 66.9941V55.7141H56.8201V57.0421H51.0441V60.5941H56.4521V61.9381H51.0441V65.6501H56.8201V66.9941H49.4281ZM61.4915 67.1381C60.8195 67.1381 60.2008 67.0528 59.6355 66.8821C59.0701 66.7115 58.6008 66.4715 58.2275 66.1621L58.7235 65.0581C59.1181 65.3568 59.5555 65.5808 60.0355 65.7301C60.5155 65.8795 61.0061 65.9541 61.5075 65.9541C62.0941 65.9541 62.5368 65.8528 62.8355 65.6501C63.1341 65.4368 63.2835 65.1488 63.2835 64.7861C63.2835 64.5088 63.1875 64.2848 62.9955 64.1141C62.8141 63.9435 62.5101 63.8155 62.0835 63.7301L60.5475 63.4261C59.8648 63.2768 59.3475 63.0208 58.9955 62.6581C58.6435 62.2955 58.4675 61.8315 58.4675 61.2661C58.4675 60.7861 58.5955 60.3595 58.8515 59.9861C59.1181 59.6128 59.4915 59.3195 59.9715 59.1061C60.4621 58.8928 61.0328 58.7861 61.6835 58.7861C62.2808 58.7861 62.8355 58.8715 63.3475 59.0421C63.8595 59.2128 64.2861 59.4581 64.6275 59.7781L64.1155 60.8501C63.7848 60.5728 63.4115 60.3595 62.9955 60.2101C62.5795 60.0501 62.1581 59.9701 61.7315 59.9701C61.1341 59.9701 60.6915 60.0821 60.4035 60.3061C60.1155 60.5301 59.9715 60.8235 59.9715 61.1861C59.9715 61.4635 60.0568 61.6928 60.2275 61.8741C60.4088 62.0448 60.6915 62.1781 61.0755 62.2741L62.6115 62.5781C63.3368 62.7275 63.8808 62.9728 64.2435 63.3141C64.6061 63.6555 64.7875 64.1141 64.7875 64.6901C64.7875 65.1915 64.6488 65.6288 64.3715 66.0021C64.0941 66.3755 63.7101 66.6581 63.2195 66.8501C62.7288 67.0421 62.1528 67.1381 61.4915 67.1381ZM69.8301 67.1381C68.9554 67.1381 68.2941 66.9035 67.8461 66.4341C67.3981 65.9541 67.1741 65.2395 67.1741 64.2901V60.1781H65.6061V58.9301H67.1741V56.8021L68.7901 56.3701V58.9301H71.0301V60.1781H68.7901V64.1461C68.7901 64.7435 68.8968 65.1701 69.1101 65.4261C69.3234 65.6821 69.6328 65.8101 70.0381 65.8101C70.2408 65.8101 70.4168 65.7941 70.5661 65.7621C70.7261 65.7195 70.8701 65.6715 70.9981 65.6181V66.9301C70.8381 66.9941 70.6514 67.0421 70.4381 67.0741C70.2248 67.1168 70.0221 67.1381 69.8301 67.1381ZM75.6746 67.1381C74.9599 67.1381 74.3359 66.9728 73.8026 66.6421C73.2693 66.3115 72.8533 65.8315 72.5546 65.2021C72.2666 64.5728 72.1226 63.8261 72.1226 62.9621C72.1226 62.0875 72.2666 61.3408 72.5546 60.7221C72.8533 60.1035 73.2693 59.6288 73.8026 59.2981C74.3359 58.9568 74.9599 58.7861 75.6746 58.7861C76.3786 58.7861 76.9919 58.9621 77.5146 59.3141C78.0373 59.6661 78.3839 60.1461 78.5546 60.7541H78.3786L78.5386 58.9301H80.1066C80.0746 59.2608 80.0426 59.5915 80.0106 59.9221C79.9893 60.2421 79.9786 60.5568 79.9786 60.8661V66.9941H78.3626V65.2021H78.5386C78.3679 65.7995 78.0159 66.2741 77.4826 66.6261C76.9599 66.9675 76.3573 67.1381 75.6746 67.1381ZM76.0746 65.8741C76.7679 65.8741 77.3226 65.6288 77.7386 65.1381C78.1653 64.6475 78.3786 63.9221 78.3786 62.9621C78.3786 62.0021 78.1653 61.2821 77.7386 60.8021C77.3226 60.3115 76.7679 60.0661 76.0746 60.0661C75.3706 60.0661 74.8053 60.3115 74.3786 60.8021C73.9626 61.2821 73.7546 62.0021 73.7546 62.9621C73.7546 63.9221 73.9626 64.6475 74.3786 65.1381C74.7946 65.6288 75.3599 65.8741 76.0746 65.8741ZM82.4166 66.9941V60.8661C82.4166 60.5568 82.4006 60.2421 82.3686 59.9221C82.3473 59.5915 82.3206 59.2608 82.2886 58.9301H83.8566L84.0006 60.6261H83.8086C84.0326 60.0395 84.3739 59.5861 84.8326 59.2661C85.3019 58.9461 85.8619 58.7861 86.5126 58.7861C87.1739 58.7861 87.7126 58.9461 88.1286 59.2661C88.5553 59.5755 88.8486 60.0555 89.0086 60.7061H88.7526C88.9659 60.1195 89.3286 59.6555 89.8406 59.3141C90.3526 58.9621 90.9446 58.7861 91.6166 58.7861C92.5126 58.7861 93.1846 59.0475 93.6326 59.5701C94.0806 60.0928 94.3046 60.9035 94.3046 62.0021V66.9941H92.6886V62.0821C92.6886 61.3781 92.5659 60.8715 92.3206 60.5621C92.0859 60.2421 91.7019 60.0821 91.1686 60.0821C90.5499 60.0821 90.0593 60.2955 89.6966 60.7221C89.3339 61.1488 89.1526 61.7248 89.1526 62.4501V66.9941H87.5366V62.0821C87.5366 61.3781 87.4139 60.8715 87.1686 60.5621C86.9339 60.2421 86.5499 60.0821 86.0166 60.0821C85.3979 60.0821 84.9126 60.2955 84.5606 60.7221C84.2086 61.1488 84.0326 61.7248 84.0326 62.4501V66.9941H82.4166ZM100.156 67.1381C99.3557 67.1381 98.6624 66.9728 98.0757 66.6421C97.4891 66.3008 97.0357 65.8208 96.7157 65.2021C96.3957 64.5728 96.2357 63.8261 96.2357 62.9621C96.2357 62.0981 96.3957 61.3568 96.7157 60.7381C97.0357 60.1088 97.4891 59.6288 98.0757 59.2981C98.6624 58.9568 99.3557 58.7861 100.156 58.7861C100.956 58.7861 101.649 58.9568 102.236 59.2981C102.833 59.6288 103.292 60.1088 103.612 60.7381C103.942 61.3568 104.108 62.0981 104.108 62.9621C104.108 63.8261 103.942 64.5728 103.612 65.2021C103.292 65.8208 102.833 66.3008 102.236 66.6421C101.649 66.9728 100.956 67.1381 100.156 67.1381ZM100.156 65.8741C100.86 65.8741 101.42 65.6288 101.836 65.1381C102.252 64.6475 102.46 63.9221 102.46 62.9621C102.46 62.0021 102.252 61.2821 101.836 60.8021C101.42 60.3115 100.86 60.0661 100.156 60.0661C99.4624 60.0661 98.9077 60.3115 98.4917 60.8021C98.0757 61.2821 97.8677 62.0021 97.8677 62.9621C97.8677 63.9221 98.0704 64.6475 98.4757 65.1381C98.8917 65.6288 99.4517 65.8741 100.156 65.8741ZM108.845 67.1381C108.173 67.1381 107.554 67.0528 106.989 66.8821C106.423 66.7115 105.954 66.4715 105.581 66.1621L106.077 65.0581C106.471 65.3568 106.909 65.5808 107.389 65.7301C107.869 65.8795 108.359 65.9541 108.861 65.9541C109.447 65.9541 109.89 65.8528 110.189 65.6501C110.487 65.4368 110.637 65.1488 110.637 64.7861C110.637 64.5088 110.541 64.2848 110.349 64.1141C110.167 63.9435 109.863 63.8155 109.437 63.7301L107.901 63.4261C107.218 63.2768 106.701 63.0208 106.349 62.6581C105.997 62.2955 105.821 61.8315 105.821 61.2661C105.821 60.7861 105.949 60.3595 106.205 59.9861C106.471 59.6128 106.845 59.3195 107.325 59.1061C107.815 58.8928 108.386 58.7861 109.037 58.7861C109.634 58.7861 110.189 58.8715 110.701 59.0421C111.213 59.2128 111.639 59.4581 111.981 59.7781L111.469 60.8501C111.138 60.5728 110.765 60.3595 110.349 60.2101C109.933 60.0501 109.511 59.9701 109.085 59.9701C108.487 59.9701 108.045 60.0821 107.757 60.3061C107.469 60.5301 107.325 60.8235 107.325 61.1861C107.325 61.4635 107.41 61.6928 107.581 61.8741C107.762 62.0448 108.045 62.1781 108.429 62.2741L109.965 62.5781C110.69 62.7275 111.234 62.9728 111.597 63.3141C111.959 63.6555 112.141 64.1141 112.141 64.6901C112.141 65.1915 112.002 65.6288 111.725 66.0021C111.447 66.3755 111.063 66.6581 110.573 66.8501C110.082 67.0421 109.506 67.1381 108.845 67.1381ZM118.951 66.9941V60.1781H117.383V58.9301H119.399L118.951 59.3461V58.0661C118.951 57.1168 119.191 56.3968 119.671 55.9061C120.151 55.4048 120.855 55.1541 121.783 55.1541C122.007 55.1541 122.242 55.1701 122.487 55.2021C122.732 55.2341 122.935 55.2875 123.095 55.3621V56.6741C122.967 56.6208 122.807 56.5781 122.615 56.5461C122.434 56.5035 122.247 56.4821 122.055 56.4821C121.746 56.4821 121.479 56.5461 121.255 56.6741C121.031 56.7915 120.855 56.9728 120.727 57.2181C120.61 57.4635 120.551 57.7781 120.551 58.1621V59.2501L120.311 58.9301H122.743V60.1781H120.567V66.9941H118.951ZM127.685 67.1381C126.384 67.1381 125.36 66.7701 124.613 66.0341C123.867 65.2981 123.493 64.2795 123.493 62.9781C123.493 62.1355 123.653 61.3995 123.973 60.7701C124.304 60.1408 124.757 59.6555 125.333 59.3141C125.92 58.9621 126.597 58.7861 127.365 58.7861C128.123 58.7861 128.757 58.9461 129.269 59.2661C129.781 59.5861 130.171 60.0395 130.437 60.6261C130.704 61.2021 130.837 61.8848 130.837 62.6741V63.1861H124.757V62.2581H129.733L129.461 62.4661C129.461 61.6661 129.28 61.0475 128.917 60.6101C128.565 60.1621 128.053 59.9381 127.381 59.9381C126.635 59.9381 126.059 60.1995 125.653 60.7221C125.248 61.2341 125.045 61.9435 125.045 62.8501V63.0101C125.045 63.9595 125.275 64.6741 125.733 65.1541C126.203 65.6341 126.864 65.8741 127.717 65.8741C128.187 65.8741 128.624 65.8101 129.029 65.6821C129.445 65.5435 129.84 65.3195 130.213 65.0101L130.741 66.1141C130.368 66.4448 129.915 66.7008 129.381 66.8821C128.848 67.0528 128.283 67.1381 127.685 67.1381ZM136.308 67.1381C135.497 67.1381 134.788 66.9728 134.18 66.6421C133.582 66.3008 133.118 65.8155 132.788 65.1861C132.468 64.5461 132.308 63.7888 132.308 62.9141C132.308 62.0501 132.473 61.3088 132.804 60.6901C133.134 60.0715 133.598 59.6021 134.196 59.2821C134.793 58.9515 135.497 58.7861 136.308 58.7861C136.83 58.7861 137.337 58.8768 137.828 59.0581C138.318 59.2288 138.724 59.4741 139.044 59.7941L138.516 60.9301C138.217 60.6421 137.881 60.4288 137.508 60.2901C137.134 60.1408 136.772 60.0661 136.42 60.0661C135.652 60.0661 135.049 60.3115 134.612 60.8021C134.174 61.2928 133.956 62.0021 133.956 62.9301C133.956 63.8688 134.174 64.5888 134.612 65.0901C135.049 65.5915 135.652 65.8421 136.42 65.8421C136.761 65.8421 137.118 65.7781 137.492 65.6501C137.865 65.5115 138.206 65.2928 138.516 64.9941L139.044 66.1301C138.713 66.4501 138.297 66.7008 137.796 66.8821C137.305 67.0528 136.809 67.1381 136.308 67.1381ZM140.836 66.9941V55.2181H142.452V60.6421H142.228C142.463 60.0341 142.841 59.5755 143.364 59.2661C143.887 58.9461 144.489 58.7861 145.172 58.7861C146.132 58.7861 146.847 59.0528 147.316 59.5861C147.785 60.1088 148.02 60.9035 148.02 61.9701V66.9941H146.404V62.0661C146.404 61.3728 146.265 60.8715 145.988 60.5621C145.721 60.2421 145.295 60.0821 144.708 60.0821C144.025 60.0821 143.476 60.2955 143.06 60.7221C142.655 61.1381 142.452 61.6928 142.452 62.3861V66.9941H140.836ZM153.488 67.1381C152.774 67.1381 152.15 66.9728 151.616 66.6421C151.083 66.3115 150.667 65.8315 150.368 65.2021C150.08 64.5728 149.936 63.8261 149.936 62.9621C149.936 62.0875 150.08 61.3408 150.368 60.7221C150.667 60.1035 151.083 59.6288 151.616 59.2981C152.15 58.9568 152.774 58.7861 153.488 58.7861C154.192 58.7861 154.806 58.9621 155.328 59.3141C155.851 59.6661 156.198 60.1461 156.368 60.7541H156.192L156.352 58.9301H157.92C157.888 59.2608 157.856 59.5915 157.824 59.9221C157.803 60.2421 157.792 60.5568 157.792 60.8661V66.9941H156.176V65.2021H156.352C156.182 65.7995 155.83 66.2741 155.296 66.6261C154.774 66.9675 154.171 67.1381 153.488 67.1381ZM153.888 65.8741C154.582 65.8741 155.136 65.6288 155.552 65.1381C155.979 64.6475 156.192 63.9221 156.192 62.9621C156.192 62.0021 155.979 61.2821 155.552 60.8021C155.136 60.3115 154.582 60.0661 153.888 60.0661C153.184 60.0661 152.619 60.3115 152.192 60.8021C151.776 61.2821 151.568 62.0021 151.568 62.9621C151.568 63.9221 151.776 64.6475 152.192 65.1381C152.608 65.6288 153.174 65.8741 153.888 65.8741ZM163.318 67.1381C162.614 67.1381 161.99 66.9728 161.446 66.6421C160.913 66.3115 160.497 65.8315 160.198 65.2021C159.91 64.5728 159.766 63.8261 159.766 62.9621C159.766 62.0875 159.91 61.3408 160.198 60.7221C160.497 60.1035 160.913 59.6288 161.446 59.2981C161.99 58.9568 162.614 58.7861 163.318 58.7861C164.012 58.7861 164.62 58.9621 165.142 59.3141C165.676 59.6555 166.028 60.1248 166.198 60.7221H166.006V55.2181H167.622V66.9941H166.022V65.1701H166.214C166.033 65.7781 165.681 66.2581 165.158 66.6101C164.636 66.9621 164.022 67.1381 163.318 67.1381ZM163.718 65.8741C164.412 65.8741 164.972 65.6288 165.398 65.1381C165.825 64.6475 166.038 63.9221 166.038 62.9621C166.038 62.0021 165.825 61.2821 165.398 60.8021C164.972 60.3115 164.412 60.0661 163.718 60.0661C163.014 60.0661 162.449 60.3115 162.022 60.8021C161.606 61.2821 161.398 62.0021 161.398 62.9621C161.398 63.9221 161.606 64.6475 162.022 65.1381C162.449 65.6288 163.014 65.8741 163.718 65.8741ZM173.516 67.1381C172.716 67.1381 172.023 66.9728 171.436 66.6421C170.85 66.3008 170.396 65.8208 170.076 65.2021C169.756 64.5728 169.596 63.8261 169.596 62.9621C169.596 62.0981 169.756 61.3568 170.076 60.7381C170.396 60.1088 170.85 59.6288 171.436 59.2981C172.023 58.9568 172.716 58.7861 173.516 58.7861C174.316 58.7861 175.01 58.9568 175.596 59.2981C176.194 59.6288 176.652 60.1088 176.972 60.7381C177.303 61.3568 177.468 62.0981 177.468 62.9621C177.468 63.8261 177.303 64.5728 176.972 65.2021C176.652 65.8208 176.194 66.3008 175.596 66.6421C175.01 66.9728 174.316 67.1381 173.516 67.1381ZM173.516 65.8741C174.22 65.8741 174.78 65.6288 175.196 65.1381C175.612 64.6475 175.82 63.9221 175.82 62.9621C175.82 62.0021 175.612 61.2821 175.196 60.8021C174.78 60.3115 174.22 60.0661 173.516 60.0661C172.823 60.0661 172.268 60.3115 171.852 60.8021C171.436 61.2821 171.228 62.0021 171.228 62.9621C171.228 63.9221 171.431 64.6475 171.836 65.1381C172.252 65.6288 172.812 65.8741 173.516 65.8741ZM182.205 67.1381C181.533 67.1381 180.915 67.0528 180.349 66.8821C179.784 66.7115 179.315 66.4715 178.941 66.1621L179.437 65.0581C179.832 65.3568 180.269 65.5808 180.749 65.7301C181.229 65.8795 181.72 65.9541 182.221 65.9541C182.808 65.9541 183.251 65.8528 183.549 65.6501C183.848 65.4368 183.997 65.1488 183.997 64.7861C183.997 64.5088 183.901 64.2848 183.709 64.1141C183.528 63.9435 183.224 63.8155 182.797 63.7301L181.261 63.4261C180.579 63.2768 180.061 63.0208 179.709 62.6581C179.357 62.2955 179.181 61.8315 179.181 61.2661C179.181 60.7861 179.309 60.3595 179.565 59.9861C179.832 59.6128 180.205 59.3195 180.685 59.1061C181.176 58.8928 181.747 58.7861 182.397 58.7861C182.995 58.7861 183.549 58.8715 184.061 59.0421C184.573 59.2128 185 59.4581 185.341 59.7781L184.829 60.8501C184.499 60.5728 184.125 60.3595 183.709 60.2101C183.293 60.0501 182.872 59.9701 182.445 59.9701C181.848 59.9701 181.405 60.0821 181.117 60.3061C180.829 60.5301 180.685 60.8235 180.685 61.1861C180.685 61.4635 180.771 61.6928 180.941 61.8741C181.123 62.0448 181.405 62.1781 181.789 62.2741L183.325 62.5781C184.051 62.7275 184.595 62.9728 184.957 63.3141C185.32 63.6555 185.501 64.1141 185.501 64.6901C185.501 65.1915 185.363 65.6288 185.085 66.0021C184.808 66.3755 184.424 66.6581 183.933 66.8501C183.443 67.0421 182.867 67.1381 182.205 67.1381ZM187.71 63.8741L187.198 55.7141H189.198L188.702 63.8741H187.71ZM187.246 66.9941V65.0901H189.15V66.9941H187.246Z" fill="#11142D"/>
<path d="M48.9681 101.141C48.9681 100.095 49.1454 99.1992 49.5001 98.4525C49.8641 97.6965 50.3821 97.1132 51.0541 96.7025C51.7354 96.2919 52.5521 96.0865 53.5041 96.0865C54.4281 96.0865 55.2308 96.2919 55.9121 96.7025C56.5934 97.1132 57.1161 97.6965 57.4801 98.4525C57.8534 99.1992 58.0401 100.091 58.0401 101.127C58.0401 102.172 57.8534 103.073 57.4801 103.829C57.1068 104.585 56.5794 105.173 55.8981 105.593C55.2261 106.003 54.4281 106.209 53.5041 106.209C52.5521 106.209 51.7401 106.003 51.0681 105.593C50.3961 105.173 49.8781 104.585 49.5141 103.829C49.1501 103.073 48.9681 102.177 48.9681 101.141ZM50.1861 101.141C50.1861 102.41 50.4661 103.404 51.0261 104.123C51.5861 104.832 52.4121 105.187 53.5041 105.187C54.5494 105.187 55.3614 104.832 55.9401 104.123C56.5281 103.404 56.8221 102.41 56.8221 101.141C56.8221 99.8619 56.5328 98.8725 55.9541 98.1725C55.3754 97.4632 54.5588 97.1085 53.5041 97.1085C52.4121 97.1085 51.5861 97.4632 51.0261 98.1725C50.4661 98.8725 50.1861 99.8619 50.1861 101.141ZM60.1326 106.083V95.7785H61.2666V106.083H60.1326ZM66.2545 106.209C65.6292 106.209 65.0832 106.064 64.6165 105.775C64.1498 105.476 63.7858 105.056 63.5245 104.515C63.2725 103.973 63.1465 103.325 63.1465 102.569C63.1465 101.803 63.2725 101.15 63.5245 100.609C63.7858 100.067 64.1498 99.6519 64.6165 99.3625C65.0832 99.0732 65.6292 98.9285 66.2545 98.9285C66.8892 98.9285 67.4352 99.0919 67.8925 99.4185C68.3592 99.7359 68.6672 100.17 68.8165 100.721H68.6485L68.8025 99.0545H69.8945C69.8665 99.3252 69.8385 99.6005 69.8105 99.8805C69.7918 100.151 69.7825 100.417 69.7825 100.679V106.083H68.6485V104.431H68.8025C68.6532 104.981 68.3452 105.415 67.8785 105.733C67.4118 106.05 66.8705 106.209 66.2545 106.209ZM66.4785 105.285C67.1505 105.285 67.6825 105.056 68.0745 104.599C68.4665 104.132 68.6625 103.455 68.6625 102.569C68.6625 101.673 68.4665 100.996 68.0745 100.539C67.6825 100.072 67.1505 99.8385 66.4785 99.8385C65.8158 99.8385 65.2838 100.072 64.8825 100.539C64.4905 100.996 64.2945 101.673 64.2945 102.569C64.2945 103.455 64.4905 104.132 64.8825 104.599C65.2838 105.056 65.8158 105.285 66.4785 105.285ZM66.1845 98.3685L67.6265 95.5405H68.8445L66.9965 98.3685H66.1845ZM80.9174 109.107V104.431H81.0714C80.9221 104.981 80.6141 105.415 80.1474 105.733C79.6807 106.05 79.1394 106.209 78.5234 106.209C77.8981 106.209 77.3521 106.064 76.8854 105.775C76.4187 105.476 76.0547 105.056 75.7934 104.515C75.5414 103.973 75.4154 103.325 75.4154 102.569C75.4154 101.803 75.5414 101.15 75.7934 100.609C76.0547 100.067 76.4187 99.6519 76.8854 99.3625C77.3521 99.0732 77.8981 98.9285 78.5234 98.9285C79.1581 98.9285 79.7041 99.0919 80.1614 99.4185C80.6281 99.7359 80.9361 100.17 81.0854 100.721H80.9174L81.0714 99.0545H82.1634C82.1354 99.3252 82.1074 99.6005 82.0794 99.8805C82.0607 100.151 82.0514 100.417 82.0514 100.679V109.107H80.9174ZM78.7474 105.285C79.4194 105.285 79.9514 105.056 80.3434 104.599C80.7354 104.132 80.9314 103.455 80.9314 102.569C80.9314 101.673 80.7354 100.996 80.3434 100.539C79.9514 100.072 79.4194 99.8385 78.7474 99.8385C78.0847 99.8385 77.5527 100.072 77.1514 100.539C76.7594 100.996 76.5634 101.673 76.5634 102.569C76.5634 103.455 76.7594 104.132 77.1514 104.599C77.5527 105.056 78.0847 105.285 78.7474 105.285ZM86.8339 106.209C86.0033 106.209 85.3733 105.98 84.9439 105.523C84.5239 105.065 84.3139 104.365 84.3139 103.423V99.0545H85.4479V103.395C85.4479 104.039 85.5786 104.515 85.8399 104.823C86.1013 105.121 86.5073 105.271 87.0579 105.271C87.6739 105.271 88.1686 105.07 88.5419 104.669C88.9153 104.267 89.1019 103.731 89.1019 103.059V99.0545H90.2359V106.083H89.1299V104.501H89.3119C89.1159 105.042 88.7986 105.462 88.3599 105.761C87.9306 106.059 87.4219 106.209 86.8339 106.209ZM95.67 106.209C94.5687 106.209 93.7007 105.891 93.066 105.257C92.4314 104.613 92.114 103.721 92.114 102.583C92.114 101.845 92.254 101.206 92.534 100.665C92.814 100.114 93.206 99.6892 93.71 99.3905C94.214 99.0825 94.7927 98.9285 95.446 98.9285C96.09 98.9285 96.6314 99.0639 97.07 99.3345C97.5087 99.6052 97.8447 99.9925 98.078 100.497C98.3114 100.991 98.428 101.579 98.428 102.261V102.681H92.982V101.967H97.686L97.448 102.149C97.448 101.402 97.28 100.819 96.944 100.399C96.608 99.9785 96.1087 99.7685 95.446 99.7685C94.746 99.7685 94.2 100.016 93.808 100.511C93.416 100.996 93.22 101.654 93.22 102.485V102.611C93.22 103.488 93.4347 104.155 93.864 104.613C94.3027 105.061 94.914 105.285 95.698 105.285C96.118 105.285 96.51 105.224 96.874 105.103C97.2474 104.972 97.602 104.762 97.938 104.473L98.33 105.271C98.022 105.569 97.63 105.803 97.154 105.971C96.6874 106.129 96.1927 106.209 95.67 106.209ZM100.247 106.083V100.749C100.247 100.469 100.238 100.184 100.219 99.8945C100.21 99.6052 100.191 99.3252 100.163 99.0545H101.255L101.395 100.763L101.199 100.777C101.293 100.357 101.456 100.011 101.689 99.7405C101.923 99.4699 102.198 99.2692 102.515 99.1385C102.833 98.9985 103.164 98.9285 103.509 98.9285C103.649 98.9285 103.771 98.9332 103.873 98.9425C103.985 98.9519 104.088 98.9752 104.181 99.0125L104.167 100.021C104.027 99.9739 103.897 99.9459 103.775 99.9365C103.663 99.9179 103.533 99.9085 103.383 99.9085C102.973 99.9085 102.613 100.007 102.305 100.203C102.007 100.399 101.778 100.651 101.619 100.959C101.47 101.267 101.395 101.593 101.395 101.939V106.083H100.247ZM105.473 106.083V99.0545H106.607V106.083H105.473ZM105.333 97.4585V96.1845H106.733V97.4585H105.333ZM111.581 106.209C110.965 106.209 110.424 106.064 109.957 105.775C109.49 105.476 109.126 105.056 108.865 104.515C108.613 103.973 108.487 103.325 108.487 102.569C108.487 101.803 108.613 101.15 108.865 100.609C109.126 100.067 109.49 99.6519 109.957 99.3625C110.424 99.0732 110.965 98.9285 111.581 98.9285C112.216 98.9285 112.762 99.0872 113.219 99.4045C113.686 99.7219 113.998 100.151 114.157 100.693H113.989V95.7785H115.123V106.083H114.003V104.403H114.157C114.008 104.963 113.7 105.406 113.233 105.733C112.766 106.05 112.216 106.209 111.581 106.209ZM111.819 105.285C112.482 105.285 113.014 105.056 113.415 104.599C113.816 104.132 114.017 103.455 114.017 102.569C114.017 101.673 113.816 100.996 113.415 100.539C113.014 100.072 112.482 99.8385 111.819 99.8385C111.156 99.8385 110.624 100.072 110.223 100.539C109.831 100.996 109.635 101.673 109.635 102.569C109.635 103.455 109.831 104.132 110.223 104.599C110.624 105.056 111.156 105.285 111.819 105.285ZM120.312 106.209C119.64 106.209 119.052 106.064 118.548 105.775C118.053 105.476 117.67 105.056 117.4 104.515C117.129 103.964 116.994 103.315 116.994 102.569C116.994 101.813 117.129 101.164 117.4 100.623C117.67 100.081 118.053 99.6659 118.548 99.3765C119.052 99.0779 119.64 98.9285 120.312 98.9285C120.993 98.9285 121.581 99.0779 122.076 99.3765C122.58 99.6659 122.967 100.081 123.238 100.623C123.518 101.164 123.658 101.813 123.658 102.569C123.658 103.315 123.518 103.964 123.238 104.515C122.967 105.056 122.58 105.476 122.076 105.775C121.581 106.064 120.993 106.209 120.312 106.209ZM120.312 105.285C120.984 105.285 121.516 105.056 121.908 104.599C122.3 104.132 122.496 103.455 122.496 102.569C122.496 101.673 122.295 100.996 121.894 100.539C121.502 100.072 120.974 99.8385 120.312 99.8385C119.649 99.8385 119.122 100.072 118.73 100.539C118.338 100.996 118.142 101.673 118.142 102.569C118.142 103.455 118.338 104.132 118.73 104.599C119.122 105.056 119.649 105.285 120.312 105.285ZM132.254 106.209C131.563 106.209 130.961 106.059 130.448 105.761C129.944 105.462 129.552 105.037 129.272 104.487C129.001 103.936 128.866 103.283 128.866 102.527C128.866 101.761 129.006 101.113 129.286 100.581C129.566 100.039 129.958 99.6285 130.462 99.3485C130.975 99.0685 131.573 98.9285 132.254 98.9285C132.702 98.9285 133.136 99.0079 133.556 99.1665C133.985 99.3252 134.34 99.5492 134.62 99.8385L134.214 100.651C133.934 100.38 133.626 100.179 133.29 100.049C132.963 99.9179 132.641 99.8525 132.324 99.8525C131.596 99.8525 131.031 100.081 130.63 100.539C130.229 100.996 130.028 101.663 130.028 102.541C130.028 103.409 130.229 104.081 130.63 104.557C131.031 105.033 131.596 105.271 132.324 105.271C132.632 105.271 132.949 105.21 133.276 105.089C133.612 104.967 133.925 104.767 134.214 104.487L134.62 105.285C134.331 105.583 133.971 105.812 133.542 105.971C133.113 106.129 132.683 106.209 132.254 106.209ZM136.344 106.083V95.7785H137.478V106.083H136.344ZM139.792 106.083V99.0545H140.926V106.083H139.792ZM139.652 97.4585V96.1845H141.052V97.4585H139.652ZM146.362 106.209C145.26 106.209 144.392 105.891 143.758 105.257C143.123 104.613 142.806 103.721 142.806 102.583C142.806 101.845 142.946 101.206 143.226 100.665C143.506 100.114 143.898 99.6892 144.402 99.3905C144.906 99.0825 145.484 98.9285 146.138 98.9285C146.782 98.9285 147.323 99.0639 147.762 99.3345C148.2 99.6052 148.536 99.9925 148.77 100.497C149.003 100.991 149.12 101.579 149.12 102.261V102.681H143.674V101.967H148.378L148.14 102.149C148.14 101.402 147.972 100.819 147.636 100.399C147.3 99.9785 146.8 99.7685 146.138 99.7685C145.438 99.7685 144.892 100.016 144.5 100.511C144.108 100.996 143.912 101.654 143.912 102.485V102.611C143.912 103.488 144.126 104.155 144.556 104.613C144.994 105.061 145.606 105.285 146.39 105.285C146.81 105.285 147.202 105.224 147.566 105.103C147.939 104.972 148.294 104.762 148.63 104.473L149.022 105.271C148.714 105.569 148.322 105.803 147.846 105.971C147.379 106.129 146.884 106.209 146.362 106.209ZM150.967 106.083V100.679C150.967 100.417 150.953 100.151 150.925 99.8805C150.906 99.6005 150.883 99.3252 150.855 99.0545H151.947L152.087 100.595H151.919C152.124 100.053 152.451 99.6425 152.899 99.3625C153.356 99.0732 153.884 98.9285 154.481 98.9285C155.312 98.9285 155.937 99.1525 156.357 99.6005C156.786 100.039 157.001 100.735 157.001 101.687V106.083H155.867V101.757C155.867 101.094 155.732 100.613 155.461 100.315C155.2 100.007 154.789 99.8525 154.229 99.8525C153.576 99.8525 153.058 100.053 152.675 100.455C152.292 100.856 152.101 101.393 152.101 102.065V106.083H150.967ZM161.774 106.209C161.083 106.209 160.556 106.013 160.192 105.621C159.828 105.219 159.646 104.617 159.646 103.815V99.9365H158.274V99.0545H159.646V97.1365L160.78 96.8145V99.0545H162.796V99.9365H160.78V103.689C160.78 104.249 160.873 104.65 161.06 104.893C161.256 105.126 161.545 105.243 161.928 105.243C162.105 105.243 162.264 105.229 162.404 105.201C162.544 105.163 162.67 105.121 162.782 105.075V106.027C162.651 106.083 162.493 106.125 162.306 106.153C162.129 106.19 161.951 106.209 161.774 106.209ZM167.342 106.209C166.241 106.209 165.373 105.891 164.738 105.257C164.103 104.613 163.786 103.721 163.786 102.583C163.786 101.845 163.926 101.206 164.206 100.665C164.486 100.114 164.878 99.6892 165.382 99.3905C165.886 99.0825 166.465 98.9285 167.118 98.9285C167.762 98.9285 168.303 99.0639 168.742 99.3345C169.181 99.6052 169.517 99.9925 169.75 100.497C169.983 100.991 170.1 101.579 170.1 102.261V102.681H164.654V101.967H169.358L169.12 102.149C169.12 101.402 168.952 100.819 168.616 100.399C168.28 99.9785 167.781 99.7685 167.118 99.7685C166.418 99.7685 165.872 100.016 165.48 100.511C165.088 100.996 164.892 101.654 164.892 102.485V102.611C164.892 103.488 165.107 104.155 165.536 104.613C165.975 105.061 166.586 105.285 167.37 105.285C167.79 105.285 168.182 105.224 168.546 105.103C168.919 104.972 169.274 104.762 169.61 104.473L170.002 105.271C169.694 105.569 169.302 105.803 168.826 105.971C168.359 106.129 167.865 106.209 167.342 106.209ZM172.311 107.679L171.779 107.273C172.031 107.011 172.195 106.764 172.269 106.531C172.353 106.307 172.395 106.078 172.395 105.845L172.647 106.083H171.723V104.655H173.151V105.663C173.151 106.036 173.091 106.386 172.969 106.713C172.848 107.049 172.629 107.371 172.311 107.679ZM179.007 106.083V100.679C179.007 100.417 178.993 100.151 178.965 99.8805C178.947 99.6005 178.923 99.3252 178.895 99.0545H179.987L180.127 100.595H179.959C180.165 100.053 180.491 99.6425 180.939 99.3625C181.397 99.0732 181.924 98.9285 182.521 98.9285C183.352 98.9285 183.977 99.1525 184.397 99.6005C184.827 100.039 185.041 100.735 185.041 101.687V106.083H183.907V101.757C183.907 101.094 183.772 100.613 183.501 100.315C183.24 100.007 182.829 99.8525 182.269 99.8525C181.616 99.8525 181.098 100.053 180.715 100.455C180.333 100.856 180.141 101.393 180.141 102.065V106.083H179.007ZM190.206 106.209C189.534 106.209 188.946 106.064 188.442 105.775C187.948 105.476 187.565 105.056 187.294 104.515C187.024 103.964 186.888 103.315 186.888 102.569C186.888 101.813 187.024 101.164 187.294 100.623C187.565 100.081 187.948 99.6659 188.442 99.3765C188.946 99.0779 189.534 98.9285 190.206 98.9285C190.888 98.9285 191.476 99.0779 191.97 99.3765C192.474 99.6659 192.862 100.081 193.132 100.623C193.412 101.164 193.552 101.813 193.552 102.569C193.552 103.315 193.412 103.964 193.132 104.515C192.862 105.056 192.474 105.476 191.97 105.775C191.476 106.064 190.888 106.209 190.206 106.209ZM190.206 105.285C190.878 105.285 191.41 105.056 191.802 104.599C192.194 104.132 192.39 103.455 192.39 102.569C192.39 101.673 192.19 100.996 191.788 100.539C191.396 100.072 190.869 99.8385 190.206 99.8385C189.544 99.8385 189.016 100.072 188.624 100.539C188.232 100.996 188.036 101.673 188.036 102.569C188.036 103.455 188.232 104.132 188.624 104.599C189.016 105.056 189.544 105.285 190.206 105.285ZM199.195 106.083V100.679C199.195 100.417 199.181 100.151 199.153 99.8805C199.134 99.6005 199.111 99.3252 199.083 99.0545H200.175L200.315 100.595H200.147C200.334 100.063 200.628 99.6519 201.029 99.3625C201.44 99.0732 201.934 98.9285 202.513 98.9285C203.101 98.9285 203.577 99.0685 203.941 99.3485C204.314 99.6285 204.566 100.063 204.697 100.651H204.487C204.664 100.119 204.977 99.6985 205.425 99.3905C205.873 99.0825 206.396 98.9285 206.993 98.9285C207.768 98.9285 208.351 99.1525 208.743 99.6005C209.135 100.039 209.331 100.735 209.331 101.687V106.083H208.197V101.757C208.197 101.094 208.08 100.613 207.847 100.315C207.614 100.007 207.24 99.8525 206.727 99.8525C206.139 99.8525 205.672 100.058 205.327 100.469C204.991 100.87 204.823 101.411 204.823 102.093V106.083H203.689V101.757C203.689 101.094 203.572 100.613 203.339 100.315C203.106 100.007 202.732 99.8525 202.219 99.8525C201.631 99.8525 201.169 100.058 200.833 100.469C200.497 100.87 200.329 101.411 200.329 102.093V106.083H199.195ZM214.482 106.209C213.81 106.209 213.222 106.064 212.718 105.775C212.223 105.476 211.841 105.056 211.57 104.515C211.299 103.964 211.164 103.315 211.164 102.569C211.164 101.813 211.299 101.164 211.57 100.623C211.841 100.081 212.223 99.6659 212.718 99.3765C213.222 99.0779 213.81 98.9285 214.482 98.9285C215.163 98.9285 215.751 99.0779 216.246 99.3765C216.75 99.6659 217.137 100.081 217.408 100.623C217.688 101.164 217.828 101.813 217.828 102.569C217.828 103.315 217.688 103.964 217.408 104.515C217.137 105.056 216.75 105.476 216.246 105.775C215.751 106.064 215.163 106.209 214.482 106.209ZM214.482 105.285C215.154 105.285 215.686 105.056 216.078 104.599C216.47 104.132 216.666 103.455 216.666 102.569C216.666 101.673 216.465 100.996 216.064 100.539C215.672 100.072 215.145 99.8385 214.482 99.8385C213.819 99.8385 213.292 100.072 212.9 100.539C212.508 100.996 212.312 101.673 212.312 102.569C212.312 103.455 212.508 104.132 212.9 104.599C213.292 105.056 213.819 105.285 214.482 105.285ZM219.708 106.083V100.679C219.708 100.417 219.694 100.151 219.666 99.8805C219.647 99.6005 219.624 99.3252 219.596 99.0545H220.688L220.828 100.595H220.66C220.847 100.063 221.141 99.6519 221.542 99.3625C221.953 99.0732 222.447 98.9285 223.026 98.9285C223.614 98.9285 224.09 99.0685 224.454 99.3485C224.827 99.6285 225.079 100.063 225.21 100.651H225C225.177 100.119 225.49 99.6985 225.938 99.3905C226.386 99.0825 226.909 98.9285 227.506 98.9285C228.281 98.9285 228.864 99.1525 229.256 99.6005C229.648 100.039 229.844 100.735 229.844 101.687V106.083H228.71V101.757C228.71 101.094 228.593 100.613 228.36 100.315C228.127 100.007 227.753 99.8525 227.24 99.8525C226.652 99.8525 226.185 100.058 225.84 100.469C225.504 100.87 225.336 101.411 225.336 102.093V106.083H224.202V101.757C224.202 101.094 224.085 100.613 223.852 100.315C223.619 100.007 223.245 99.8525 222.732 99.8525C222.144 99.8525 221.682 100.058 221.346 100.469C221.01 100.87 220.842 101.411 220.842 102.093V106.083H219.708ZM235.233 106.209C234.132 106.209 233.264 105.891 232.629 105.257C231.994 104.613 231.677 103.721 231.677 102.583C231.677 101.845 231.817 101.206 232.097 100.665C232.377 100.114 232.769 99.6892 233.273 99.3905C233.777 99.0825 234.356 98.9285 235.009 98.9285C235.653 98.9285 236.194 99.0639 236.633 99.3345C237.072 99.6052 237.408 99.9925 237.641 100.497C237.874 100.991 237.991 101.579 237.991 102.261V102.681H232.545V101.967H237.249L237.011 102.149C237.011 101.402 236.843 100.819 236.507 100.399C236.171 99.9785 235.672 99.7685 235.009 99.7685C234.309 99.7685 233.763 100.016 233.371 100.511C232.979 100.996 232.783 101.654 232.783 102.485V102.611C232.783 103.488 232.998 104.155 233.427 104.613C233.866 105.061 234.477 105.285 235.261 105.285C235.681 105.285 236.073 105.224 236.437 105.103C236.81 104.972 237.165 104.762 237.501 104.473L237.893 105.271C237.585 105.569 237.193 105.803 236.717 105.971C236.25 106.129 235.756 106.209 235.233 106.209ZM239.838 106.083V100.679C239.838 100.417 239.824 100.151 239.796 99.8805C239.778 99.6005 239.754 99.3252 239.726 99.0545H240.818L240.958 100.595H240.79C240.996 100.053 241.322 99.6425 241.77 99.3625C242.228 99.0732 242.755 98.9285 243.352 98.9285C244.183 98.9285 244.808 99.1525 245.228 99.6005C245.658 100.039 245.872 100.735 245.872 101.687V106.083H244.738V101.757C244.738 101.094 244.603 100.613 244.332 100.315C244.071 100.007 243.66 99.8525 243.1 99.8525C242.447 99.8525 241.929 100.053 241.546 100.455C241.164 100.856 240.972 101.393 240.972 102.065V106.083H239.838ZM250.645 106.209C249.955 106.209 249.427 106.013 249.063 105.621C248.699 105.219 248.517 104.617 248.517 103.815V99.9365H247.145V99.0545H248.517V97.1365L249.651 96.8145V99.0545H251.667V99.9365H249.651V103.689C249.651 104.249 249.745 104.65 249.931 104.893C250.127 105.126 250.417 105.243 250.799 105.243C250.977 105.243 251.135 105.229 251.275 105.201C251.415 105.163 251.541 105.121 251.653 105.075V106.027C251.523 106.083 251.364 106.125 251.177 106.153C251 106.19 250.823 106.209 250.645 106.209ZM255.975 106.209C255.303 106.209 254.715 106.064 254.211 105.775C253.717 105.476 253.334 105.056 253.063 104.515C252.793 103.964 252.657 103.315 252.657 102.569C252.657 101.813 252.793 101.164 253.063 100.623C253.334 100.081 253.717 99.6659 254.211 99.3765C254.715 99.0779 255.303 98.9285 255.975 98.9285C256.657 98.9285 257.245 99.0779 257.739 99.3765C258.243 99.6659 258.631 100.081 258.901 100.623C259.181 101.164 259.321 101.813 259.321 102.569C259.321 103.315 259.181 103.964 258.901 104.515C258.631 105.056 258.243 105.476 257.739 105.775C257.245 106.064 256.657 106.209 255.975 106.209ZM255.975 105.285C256.647 105.285 257.179 105.056 257.571 104.599C257.963 104.132 258.159 103.455 258.159 102.569C258.159 101.673 257.959 100.996 257.557 100.539C257.165 100.072 256.638 99.8385 255.975 99.8385C255.313 99.8385 254.785 100.072 254.393 100.539C254.001 100.996 253.805 101.673 253.805 102.569C253.805 103.455 254.001 104.132 254.393 104.599C254.785 105.056 255.313 105.285 255.975 105.285ZM264.964 106.083V100.679C264.964 100.417 264.95 100.151 264.922 99.8805C264.903 99.6005 264.88 99.3252 264.852 99.0545H265.944L266.084 100.595H265.916C266.121 100.053 266.448 99.6425 266.896 99.3625C267.353 99.0732 267.881 98.9285 268.478 98.9285C269.309 98.9285 269.934 99.1525 270.354 99.6005C270.783 100.039 270.998 100.735 270.998 101.687V106.083H269.864V101.757C269.864 101.094 269.729 100.613 269.458 100.315C269.197 100.007 268.786 99.8525 268.226 99.8525C267.573 99.8525 267.055 100.053 266.672 100.455C266.289 100.856 266.098 101.393 266.098 102.065V106.083H264.964ZM275.953 106.209C275.328 106.209 274.782 106.064 274.315 105.775C273.848 105.476 273.484 105.056 273.223 104.515C272.971 103.973 272.845 103.325 272.845 102.569C272.845 101.803 272.971 101.15 273.223 100.609C273.484 100.067 273.848 99.6519 274.315 99.3625C274.782 99.0732 275.328 98.9285 275.953 98.9285C276.588 98.9285 277.134 99.0919 277.591 99.4185C278.058 99.7359 278.366 100.17 278.515 100.721H278.347L278.501 99.0545H279.593C279.565 99.3252 279.537 99.6005 279.509 99.8805C279.49 100.151 279.481 100.417 279.481 100.679V106.083H278.347V104.431H278.501C278.352 104.981 278.044 105.415 277.577 105.733C277.11 106.05 276.569 106.209 275.953 106.209ZM276.177 105.285C276.849 105.285 277.381 105.056 277.773 104.599C278.165 104.132 278.361 103.455 278.361 102.569C278.361 101.673 278.165 100.996 277.773 100.539C277.381 100.072 276.849 99.8385 276.177 99.8385C275.514 99.8385 274.982 100.072 274.581 100.539C274.189 100.996 273.993 101.673 273.993 102.569C273.993 103.455 274.189 104.132 274.581 104.599C274.982 105.056 275.514 105.285 276.177 105.285ZM274.413 97.8225L273.769 97.7805C273.816 97.1832 273.974 96.7259 274.245 96.4085C274.516 96.0819 274.856 95.9185 275.267 95.9185C275.472 95.9185 275.659 95.9652 275.827 96.0585C276.004 96.1519 276.205 96.2965 276.429 96.4925C276.634 96.6792 276.798 96.8099 276.919 96.8845C277.05 96.9499 277.176 96.9825 277.297 96.9825C277.773 96.9825 278.062 96.6139 278.165 95.8765L278.809 95.9185C278.762 96.5159 278.604 96.9779 278.333 97.3045C278.072 97.6219 277.736 97.7805 277.325 97.7805C277.129 97.7805 276.942 97.7339 276.765 97.6405C276.588 97.5472 276.382 97.3979 276.149 97.1925C275.953 97.0152 275.79 96.8939 275.659 96.8285C275.538 96.7539 275.412 96.7165 275.281 96.7165C275.038 96.7165 274.842 96.8145 274.693 97.0105C274.553 97.1972 274.46 97.4679 274.413 97.8225ZM284.67 106.209C283.998 106.209 283.41 106.064 282.906 105.775C282.411 105.476 282.028 105.056 281.758 104.515C281.487 103.964 281.352 103.315 281.352 102.569C281.352 101.813 281.487 101.164 281.758 100.623C282.028 100.081 282.411 99.6659 282.906 99.3765C283.41 99.0779 283.998 98.9285 284.67 98.9285C285.351 98.9285 285.939 99.0779 286.434 99.3765C286.938 99.6659 287.325 100.081 287.596 100.623C287.876 101.164 288.016 101.813 288.016 102.569C288.016 103.315 287.876 103.964 287.596 104.515C287.325 105.056 286.938 105.476 286.434 105.775C285.939 106.064 285.351 106.209 284.67 106.209ZM284.67 105.285C285.342 105.285 285.874 105.056 286.266 104.599C286.658 104.132 286.854 103.455 286.854 102.569C286.854 101.673 286.653 100.996 286.252 100.539C285.86 100.072 285.332 99.8385 284.67 99.8385C284.007 99.8385 283.48 100.072 283.088 100.539C282.696 100.996 282.5 101.673 282.5 102.569C282.5 103.455 282.696 104.132 283.088 104.599C283.48 105.056 284.007 105.285 284.67 105.285ZM52.3281 124.209C51.2268 124.209 50.3588 123.891 49.7241 123.257C49.0894 122.613 48.7721 121.721 48.7721 120.583C48.7721 119.845 48.9121 119.206 49.1921 118.665C49.4721 118.114 49.8641 117.689 50.3681 117.391C50.8721 117.083 51.4508 116.929 52.1041 116.929C52.7481 116.929 53.2894 117.064 53.7281 117.335C54.1668 117.605 54.5028 117.993 54.7361 118.497C54.9694 118.991 55.0861 119.579 55.0861 120.261V120.681H49.6401V119.967H54.3441L54.1061 120.149C54.1061 119.402 53.9381 118.819 53.6021 118.399C53.2661 117.979 52.7668 117.769 52.1041 117.769C51.4041 117.769 50.8581 118.016 50.4661 118.511C50.0741 118.996 49.8781 119.654 49.8781 120.485V120.611C49.8781 121.488 50.0928 122.155 50.5221 122.613C50.9608 123.061 51.5721 123.285 52.3561 123.285C52.7761 123.285 53.1681 123.224 53.5321 123.103C53.9054 122.972 54.2601 122.762 54.5961 122.473L54.9881 123.271C54.6801 123.569 54.2881 123.803 53.8121 123.971C53.3454 124.129 52.8508 124.209 52.3281 124.209ZM59.2713 124.209C58.7113 124.209 58.1887 124.134 57.7033 123.985C57.218 123.826 56.8167 123.607 56.4993 123.327L56.8913 122.529C57.2367 122.799 57.61 123 58.0113 123.131C58.422 123.261 58.8467 123.327 59.2853 123.327C59.8453 123.327 60.2653 123.229 60.5453 123.033C60.8347 122.827 60.9793 122.547 60.9793 122.193C60.9793 121.922 60.886 121.707 60.6993 121.549C60.522 121.381 60.228 121.25 59.8173 121.157L58.5153 120.891C57.918 120.76 57.47 120.541 57.1713 120.233C56.8727 119.915 56.7233 119.514 56.7233 119.029C56.7233 118.618 56.8307 118.259 57.0453 117.951C57.26 117.633 57.5727 117.386 57.9833 117.209C58.394 117.022 58.8747 116.929 59.4253 116.929C59.9387 116.929 60.41 117.008 60.8393 117.167C61.278 117.316 61.642 117.535 61.9313 117.825L61.5253 118.609C61.2453 118.338 60.9233 118.137 60.5593 118.007C60.2047 117.867 59.836 117.797 59.4533 117.797C58.9027 117.797 58.4873 117.909 58.2073 118.133C57.9367 118.347 57.8013 118.632 57.8013 118.987C57.8013 119.257 57.8853 119.481 58.0533 119.659C58.2307 119.827 58.5013 119.953 58.8653 120.037L60.1673 120.303C60.802 120.443 61.2733 120.662 61.5813 120.961C61.8987 121.25 62.0573 121.642 62.0573 122.137C62.0573 122.557 61.9407 122.925 61.7073 123.243C61.474 123.551 61.1473 123.789 60.7273 123.957C60.3167 124.125 59.8313 124.209 59.2713 124.209ZM66.4143 124.209C65.7236 124.209 65.1963 124.013 64.8323 123.621C64.4683 123.219 64.2863 122.617 64.2863 121.815V117.937H62.9143V117.055H64.2863V115.137L65.4203 114.815V117.055H67.4363V117.937H65.4203V121.689C65.4203 122.249 65.5136 122.65 65.7003 122.893C65.8963 123.126 66.1856 123.243 66.5683 123.243C66.7456 123.243 66.9043 123.229 67.0443 123.201C67.1843 123.163 67.3103 123.121 67.4223 123.075V124.027C67.2916 124.083 67.133 124.125 66.9463 124.153C66.769 124.19 66.5916 124.209 66.4143 124.209ZM71.6028 124.209C70.9775 124.209 70.4315 124.064 69.9648 123.775C69.4982 123.476 69.1342 123.056 68.8728 122.515C68.6208 121.973 68.4948 121.325 68.4948 120.569C68.4948 119.803 68.6208 119.15 68.8728 118.609C69.1342 118.067 69.4982 117.652 69.9648 117.363C70.4315 117.073 70.9775 116.929 71.6028 116.929C72.2375 116.929 72.7835 117.092 73.2408 117.419C73.7075 117.736 74.0155 118.17 74.1648 118.721H73.9968L74.1508 117.055H75.2428C75.2148 117.325 75.1868 117.601 75.1588 117.881C75.1402 118.151 75.1308 118.417 75.1308 118.679V124.083H73.9968V122.431H74.1508C74.0015 122.981 73.6935 123.415 73.2268 123.733C72.7602 124.05 72.2188 124.209 71.6028 124.209ZM71.8268 123.285C72.4988 123.285 73.0308 123.056 73.4228 122.599C73.8148 122.132 74.0108 121.455 74.0108 120.569C74.0108 119.673 73.8148 118.996 73.4228 118.539C73.0308 118.072 72.4988 117.839 71.8268 117.839C71.1642 117.839 70.6322 118.072 70.2308 118.539C69.8388 118.996 69.6428 119.673 69.6428 120.569C69.6428 121.455 69.8388 122.132 70.2308 122.599C70.6322 123.056 71.1642 123.285 71.8268 123.285ZM77.4353 124.083V118.679C77.4353 118.417 77.4213 118.151 77.3933 117.881C77.3747 117.601 77.3513 117.325 77.3233 117.055H78.4153L78.5553 118.595H78.3873C78.574 118.063 78.868 117.652 79.2693 117.363C79.68 117.073 80.1747 116.929 80.7533 116.929C81.3413 116.929 81.8173 117.069 82.1813 117.349C82.5547 117.629 82.8067 118.063 82.9373 118.651H82.7273C82.9047 118.119 83.2173 117.699 83.6653 117.391C84.1133 117.083 84.636 116.929 85.2333 116.929C86.008 116.929 86.5913 117.153 86.9833 117.601C87.3753 118.039 87.5713 118.735 87.5713 119.687V124.083H86.4373V119.757C86.4373 119.094 86.3207 118.613 86.0873 118.315C85.854 118.007 85.4807 117.853 84.9673 117.853C84.3793 117.853 83.9127 118.058 83.5673 118.469C83.2313 118.87 83.0633 119.411 83.0633 120.093V124.083H81.9293V119.757C81.9293 119.094 81.8127 118.613 81.5793 118.315C81.346 118.007 80.9727 117.853 80.4593 117.853C79.8713 117.853 79.4093 118.058 79.0733 118.469C78.7373 118.87 78.5693 119.411 78.5693 120.093V124.083H77.4353ZM92.7224 124.209C92.0504 124.209 91.4624 124.064 90.9584 123.775C90.4637 123.476 90.081 123.056 89.8104 122.515C89.5397 121.964 89.4044 121.315 89.4044 120.569C89.4044 119.813 89.5397 119.164 89.8104 118.623C90.081 118.081 90.4637 117.666 90.9584 117.377C91.4624 117.078 92.0504 116.929 92.7224 116.929C93.4037 116.929 93.9917 117.078 94.4864 117.377C94.9904 117.666 95.3777 118.081 95.6484 118.623C95.9284 119.164 96.0684 119.813 96.0684 120.569C96.0684 121.315 95.9284 121.964 95.6484 122.515C95.3777 123.056 94.9904 123.476 94.4864 123.775C93.9917 124.064 93.4037 124.209 92.7224 124.209ZM92.7224 123.285C93.3944 123.285 93.9264 123.056 94.3184 122.599C94.7104 122.132 94.9064 121.455 94.9064 120.569C94.9064 119.673 94.7057 118.996 94.3044 118.539C93.9124 118.072 93.385 117.839 92.7224 117.839C92.0597 117.839 91.5324 118.072 91.1404 118.539C90.7484 118.996 90.5524 119.673 90.5524 120.569C90.5524 121.455 90.7484 122.132 91.1404 122.599C91.5324 123.056 92.0597 123.285 92.7224 123.285ZM100.286 124.209C99.7264 124.209 99.2037 124.134 98.7184 123.985C98.2331 123.826 97.8317 123.607 97.5144 123.327L97.9064 122.529C98.2517 122.799 98.6251 123 99.0264 123.131C99.4371 123.261 99.8617 123.327 100.3 123.327C100.86 123.327 101.28 123.229 101.56 123.033C101.85 122.827 101.994 122.547 101.994 122.193C101.994 121.922 101.901 121.707 101.714 121.549C101.537 121.381 101.243 121.25 100.832 121.157L99.5304 120.891C98.9331 120.76 98.4851 120.541 98.1864 120.233C97.8877 119.915 97.7384 119.514 97.7384 119.029C97.7384 118.618 97.8457 118.259 98.0604 117.951C98.2751 117.633 98.5877 117.386 98.9984 117.209C99.4091 117.022 99.8897 116.929 100.44 116.929C100.954 116.929 101.425 117.008 101.854 117.167C102.293 117.316 102.657 117.535 102.946 117.825L102.54 118.609C102.26 118.338 101.938 118.137 101.574 118.007C101.22 117.867 100.851 117.797 100.468 117.797C99.9177 117.797 99.5024 117.909 99.2224 118.133C98.9517 118.347 98.8164 118.632 98.8164 118.987C98.8164 119.257 98.9004 119.481 99.0684 119.659C99.2457 119.827 99.5164 119.953 99.8804 120.037L101.182 120.303C101.817 120.443 102.288 120.662 102.596 120.961C102.914 121.25 103.072 121.642 103.072 122.137C103.072 122.557 102.956 122.925 102.722 123.243C102.489 123.551 102.162 123.789 101.742 123.957C101.332 124.125 100.846 124.209 100.286 124.209ZM111.442 124.209C110.817 124.209 110.271 124.064 109.804 123.775C109.337 123.476 108.973 123.056 108.712 122.515C108.46 121.973 108.334 121.325 108.334 120.569C108.334 119.803 108.46 119.15 108.712 118.609C108.973 118.067 109.337 117.652 109.804 117.363C110.271 117.073 110.817 116.929 111.442 116.929C112.077 116.929 112.623 117.092 113.08 117.419C113.547 117.736 113.855 118.17 114.004 118.721H113.836L113.99 117.055H115.082C115.054 117.325 115.026 117.601 114.998 117.881C114.979 118.151 114.97 118.417 114.97 118.679V124.083H113.836V122.431H113.99C113.841 122.981 113.533 123.415 113.066 123.733C112.599 124.05 112.058 124.209 111.442 124.209ZM111.666 123.285C112.338 123.285 112.87 123.056 113.262 122.599C113.654 122.132 113.85 121.455 113.85 120.569C113.85 119.673 113.654 118.996 113.262 118.539C112.87 118.072 112.338 117.839 111.666 117.839C111.003 117.839 110.471 118.072 110.07 118.539C109.678 118.996 109.482 119.673 109.482 120.569C109.482 121.455 109.678 122.132 110.07 122.599C110.471 123.056 111.003 123.285 111.666 123.285ZM120.229 124.209C119.538 124.209 118.936 124.059 118.423 123.761C117.919 123.462 117.527 123.037 117.247 122.487C116.976 121.936 116.841 121.283 116.841 120.527C116.841 119.761 116.981 119.113 117.261 118.581C117.541 118.039 117.933 117.629 118.437 117.349C118.95 117.069 119.547 116.929 120.229 116.929C120.677 116.929 121.111 117.008 121.531 117.167C121.96 117.325 122.315 117.549 122.595 117.839L122.189 118.651C121.909 118.38 121.601 118.179 121.265 118.049C120.938 117.918 120.616 117.853 120.299 117.853C119.571 117.853 119.006 118.081 118.605 118.539C118.203 118.996 118.003 119.663 118.003 120.541C118.003 121.409 118.203 122.081 118.605 122.557C119.006 123.033 119.571 123.271 120.299 123.271C120.607 123.271 120.924 123.21 121.251 123.089C121.587 122.967 121.899 122.767 122.189 122.487L122.595 123.285C122.305 123.583 121.946 123.812 121.517 123.971C121.087 124.129 120.658 124.209 120.229 124.209ZM127.304 124.209C126.202 124.209 125.334 123.891 124.7 123.257C124.065 122.613 123.748 121.721 123.748 120.583C123.748 119.845 123.888 119.206 124.168 118.665C124.448 118.114 124.84 117.689 125.344 117.391C125.848 117.083 126.426 116.929 127.08 116.929C127.724 116.929 128.265 117.064 128.704 117.335C129.142 117.605 129.478 117.993 129.712 118.497C129.945 118.991 130.062 119.579 130.062 120.261V120.681H124.616V119.967H129.32L129.082 120.149C129.082 119.402 128.914 118.819 128.578 118.399C128.242 117.979 127.742 117.769 127.08 117.769C126.38 117.769 125.834 118.016 125.442 118.511C125.05 118.996 124.854 119.654 124.854 120.485V120.611C124.854 121.488 125.068 122.155 125.498 122.613C125.936 123.061 126.548 123.285 127.332 123.285C127.752 123.285 128.144 123.224 128.508 123.103C128.881 122.972 129.236 122.762 129.572 122.473L129.964 123.271C129.656 123.569 129.264 123.803 128.788 123.971C128.321 124.129 127.826 124.209 127.304 124.209ZM131.909 124.083V117.055H133.043V124.083H131.909ZM131.769 115.459V114.185H133.169V115.459H131.769ZM137.849 124.209C137.158 124.209 136.631 124.013 136.267 123.621C135.903 123.219 135.721 122.617 135.721 121.815V117.937H134.349V117.055H135.721V115.137L136.855 114.815V117.055H138.871V117.937H136.855V121.689C136.855 122.249 136.948 122.65 137.135 122.893C137.331 123.126 137.62 123.243 138.003 123.243C138.18 123.243 138.339 123.229 138.479 123.201C138.619 123.163 138.745 123.121 138.857 123.075V124.027C138.726 124.083 138.567 124.125 138.381 124.153C138.203 124.19 138.026 124.209 137.849 124.209ZM143.037 124.209C142.412 124.209 141.866 124.064 141.399 123.775C140.933 123.476 140.569 123.056 140.307 122.515C140.055 121.973 139.929 121.325 139.929 120.569C139.929 119.803 140.055 119.15 140.307 118.609C140.569 118.067 140.933 117.652 141.399 117.363C141.866 117.073 142.412 116.929 143.037 116.929C143.672 116.929 144.218 117.092 144.675 117.419C145.142 117.736 145.45 118.17 145.599 118.721H145.431L145.585 117.055H146.677C146.649 117.325 146.621 117.601 146.593 117.881C146.575 118.151 146.565 118.417 146.565 118.679V124.083H145.431V122.431H145.585C145.436 122.981 145.128 123.415 144.661 123.733C144.195 124.05 143.653 124.209 143.037 124.209ZM143.261 123.285C143.933 123.285 144.465 123.056 144.857 122.599C145.249 122.132 145.445 121.455 145.445 120.569C145.445 119.673 145.249 118.996 144.857 118.539C144.465 118.072 143.933 117.839 143.261 117.839C142.599 117.839 142.067 118.072 141.665 118.539C141.273 118.996 141.077 119.673 141.077 120.569C141.077 121.455 141.273 122.132 141.665 122.599C142.067 123.056 142.599 123.285 143.261 123.285ZM148.87 124.083V118.679C148.87 118.417 148.856 118.151 148.828 117.881C148.809 117.601 148.786 117.325 148.758 117.055H149.85L149.99 118.595H149.822C150.027 118.053 150.354 117.643 150.802 117.363C151.259 117.073 151.786 116.929 152.384 116.929C153.214 116.929 153.84 117.153 154.26 117.601C154.689 118.039 154.904 118.735 154.904 119.687V124.083H153.77V119.757C153.77 119.094 153.634 118.613 153.364 118.315C153.102 118.007 152.692 117.853 152.132 117.853C151.478 117.853 150.96 118.053 150.578 118.455C150.195 118.856 150.004 119.393 150.004 120.065V124.083H148.87ZM159.845 124.209C159.229 124.209 158.688 124.064 158.221 123.775C157.754 123.476 157.39 123.056 157.129 122.515C156.877 121.973 156.751 121.325 156.751 120.569C156.751 119.803 156.877 119.15 157.129 118.609C157.39 118.067 157.754 117.652 158.221 117.363C158.688 117.073 159.229 116.929 159.845 116.929C160.48 116.929 161.026 117.087 161.483 117.405C161.95 117.722 162.262 118.151 162.421 118.693H162.253V113.779H163.387V124.083H162.267V122.403H162.421C162.272 122.963 161.964 123.406 161.497 123.733C161.03 124.05 160.48 124.209 159.845 124.209ZM160.083 123.285C160.746 123.285 161.278 123.056 161.679 122.599C162.08 122.132 162.281 121.455 162.281 120.569C162.281 119.673 162.08 118.996 161.679 118.539C161.278 118.072 160.746 117.839 160.083 117.839C159.42 117.839 158.888 118.072 158.487 118.539C158.095 118.996 157.899 119.673 157.899 120.569C157.899 121.455 158.095 122.132 158.487 122.599C158.888 123.056 159.42 123.285 160.083 123.285ZM168.575 124.209C167.903 124.209 167.315 124.064 166.811 123.775C166.317 123.476 165.934 123.056 165.663 122.515C165.393 121.964 165.257 121.315 165.257 120.569C165.257 119.813 165.393 119.164 165.663 118.623C165.934 118.081 166.317 117.666 166.811 117.377C167.315 117.078 167.903 116.929 168.575 116.929C169.257 116.929 169.845 117.078 170.339 117.377C170.843 117.666 171.231 118.081 171.501 118.623C171.781 119.164 171.921 119.813 171.921 120.569C171.921 121.315 171.781 121.964 171.501 122.515C171.231 123.056 170.843 123.476 170.339 123.775C169.845 124.064 169.257 124.209 168.575 124.209ZM168.575 123.285C169.247 123.285 169.779 123.056 170.171 122.599C170.563 122.132 170.759 121.455 170.759 120.569C170.759 119.673 170.559 118.996 170.157 118.539C169.765 118.072 169.238 117.839 168.575 117.839C167.913 117.839 167.385 118.072 166.993 118.539C166.601 118.996 166.405 119.673 166.405 120.569C166.405 121.455 166.601 122.132 166.993 122.599C167.385 123.056 167.913 123.285 168.575 123.285ZM177.564 124.083V118.679C177.564 118.417 177.55 118.151 177.522 117.881C177.503 117.601 177.48 117.325 177.452 117.055H178.544L178.684 118.595H178.516C178.721 118.053 179.048 117.643 179.496 117.363C179.953 117.073 180.481 116.929 181.078 116.929C181.909 116.929 182.534 117.153 182.954 117.601C183.383 118.039 183.598 118.735 183.598 119.687V124.083H182.464V119.757C182.464 119.094 182.329 118.613 182.058 118.315C181.797 118.007 181.386 117.853 180.826 117.853C180.173 117.853 179.655 118.053 179.272 118.455C178.889 118.856 178.698 119.393 178.698 120.065V124.083H177.564ZM188.763 124.209C188.091 124.209 187.503 124.064 186.999 123.775C186.504 123.476 186.122 123.056 185.851 122.515C185.58 121.964 185.445 121.315 185.445 120.569C185.445 119.813 185.58 119.164 185.851 118.623C186.122 118.081 186.504 117.666 186.999 117.377C187.503 117.078 188.091 116.929 188.763 116.929C189.444 116.929 190.032 117.078 190.527 117.377C191.031 117.666 191.418 118.081 191.689 118.623C191.969 119.164 192.109 119.813 192.109 120.569C192.109 121.315 191.969 121.964 191.689 122.515C191.418 123.056 191.031 123.476 190.527 123.775C190.032 124.064 189.444 124.209 188.763 124.209ZM188.763 123.285C189.435 123.285 189.967 123.056 190.359 122.599C190.751 122.132 190.947 121.455 190.947 120.569C190.947 119.673 190.746 118.996 190.345 118.539C189.953 118.072 189.426 117.839 188.763 117.839C188.1 117.839 187.573 118.072 187.181 118.539C186.789 118.996 186.593 119.673 186.593 120.569C186.593 121.455 186.789 122.132 187.181 122.599C187.573 123.056 188.1 123.285 188.763 123.285ZM195.965 124.083L192.955 117.055H194.187L196.707 123.243H196.329L198.877 117.055H200.053L197.043 124.083H195.965ZM203.98 124.209C203.355 124.209 202.809 124.064 202.342 123.775C201.875 123.476 201.511 123.056 201.25 122.515C200.998 121.973 200.872 121.325 200.872 120.569C200.872 119.803 200.998 119.15 201.25 118.609C201.511 118.067 201.875 117.652 202.342 117.363C202.809 117.073 203.355 116.929 203.98 116.929C204.615 116.929 205.161 117.092 205.618 117.419C206.085 117.736 206.393 118.17 206.542 118.721H206.374L206.528 117.055H207.62C207.592 117.325 207.564 117.601 207.536 117.881C207.517 118.151 207.508 118.417 207.508 118.679V124.083H206.374V122.431H206.528C206.379 122.981 206.071 123.415 205.604 123.733C205.137 124.05 204.596 124.209 203.98 124.209ZM204.204 123.285C204.876 123.285 205.408 123.056 205.8 122.599C206.192 122.132 206.388 121.455 206.388 120.569C206.388 119.673 206.192 118.996 205.8 118.539C205.408 118.072 204.876 117.839 204.204 117.839C203.541 117.839 203.009 118.072 202.608 118.539C202.216 118.996 202.02 119.673 202.02 120.569C202.02 121.455 202.216 122.132 202.608 122.599C203.009 123.056 203.541 123.285 204.204 123.285ZM212.151 124.209C211.591 124.209 211.068 124.134 210.583 123.985C210.097 123.826 209.696 123.607 209.379 123.327L209.771 122.529C210.116 122.799 210.489 123 210.891 123.131C211.301 123.261 211.726 123.327 212.165 123.327C212.725 123.327 213.145 123.229 213.425 123.033C213.714 122.827 213.859 122.547 213.859 122.193C213.859 121.922 213.765 121.707 213.579 121.549C213.401 121.381 213.107 121.25 212.697 121.157L211.395 120.891C210.797 120.76 210.349 120.541 210.051 120.233C209.752 119.915 209.603 119.514 209.603 119.029C209.603 118.618 209.71 118.259 209.925 117.951C210.139 117.633 210.452 117.386 210.863 117.209C211.273 117.022 211.754 116.929 212.305 116.929C212.818 116.929 213.289 117.008 213.719 117.167C214.157 117.316 214.521 117.535 214.811 117.825L214.405 118.609C214.125 118.338 213.803 118.137 213.439 118.007C213.084 117.867 212.715 117.797 212.333 117.797C211.782 117.797 211.367 117.909 211.087 118.133C210.816 118.347 210.681 118.632 210.681 118.987C210.681 119.257 210.765 119.481 210.933 119.659C211.11 119.827 211.381 119.953 211.745 120.037L213.047 120.303C213.681 120.443 214.153 120.662 214.461 120.961C214.778 121.25 214.937 121.642 214.937 122.137C214.937 122.557 214.82 122.925 214.587 123.243C214.353 123.551 214.027 123.789 213.607 123.957C213.196 124.125 212.711 124.209 212.151 124.209ZM220.604 124.083V118.749C220.604 118.469 220.595 118.184 220.576 117.895C220.567 117.605 220.548 117.325 220.52 117.055H221.612L221.752 118.763L221.556 118.777C221.65 118.357 221.813 118.011 222.046 117.741C222.28 117.47 222.555 117.269 222.872 117.139C223.19 116.999 223.521 116.929 223.866 116.929C224.006 116.929 224.128 116.933 224.23 116.943C224.342 116.952 224.445 116.975 224.538 117.013L224.524 118.021C224.384 117.974 224.254 117.946 224.132 117.937C224.02 117.918 223.89 117.909 223.74 117.909C223.33 117.909 222.97 118.007 222.662 118.203C222.364 118.399 222.135 118.651 221.976 118.959C221.827 119.267 221.752 119.593 221.752 119.939V124.083H220.604ZM228.87 124.209C227.769 124.209 226.901 123.891 226.266 123.257C225.632 122.613 225.314 121.721 225.314 120.583C225.314 119.845 225.454 119.206 225.734 118.665C226.014 118.114 226.406 117.689 226.91 117.391C227.414 117.083 227.993 116.929 228.646 116.929C229.29 116.929 229.832 117.064 230.27 117.335C230.709 117.605 231.045 117.993 231.278 118.497C231.512 118.991 231.628 119.579 231.628 120.261V120.681H226.182V119.967H230.886L230.648 120.149C230.648 119.402 230.48 118.819 230.144 118.399C229.808 117.979 229.309 117.769 228.646 117.769C227.946 117.769 227.4 118.016 227.008 118.511C226.616 118.996 226.42 119.654 226.42 120.485V120.611C226.42 121.488 226.635 122.155 227.064 122.613C227.503 123.061 228.114 123.285 228.898 123.285C229.318 123.285 229.71 123.224 230.074 123.103C230.448 122.972 230.802 122.762 231.138 122.473L231.53 123.271C231.222 123.569 230.83 123.803 230.354 123.971C229.888 124.129 229.393 124.209 228.87 124.209ZM235.814 124.209C235.254 124.209 234.731 124.134 234.246 123.985C233.76 123.826 233.359 123.607 233.042 123.327L233.434 122.529C233.779 122.799 234.152 123 234.554 123.131C234.964 123.261 235.389 123.327 235.828 123.327C236.388 123.327 236.808 123.229 237.088 123.033C237.377 122.827 237.522 122.547 237.522 122.193C237.522 121.922 237.428 121.707 237.242 121.549C237.064 121.381 236.77 121.25 236.36 121.157L235.058 120.891C234.46 120.76 234.012 120.541 233.714 120.233C233.415 119.915 233.266 119.514 233.266 119.029C233.266 118.618 233.373 118.259 233.588 117.951C233.802 117.633 234.115 117.386 234.526 117.209C234.936 117.022 235.417 116.929 235.968 116.929C236.481 116.929 236.952 117.008 237.382 117.167C237.82 117.316 238.184 117.535 238.474 117.825L238.068 118.609C237.788 118.338 237.466 118.137 237.102 118.007C236.747 117.867 236.378 117.797 235.996 117.797C235.445 117.797 235.03 117.909 234.75 118.133C234.479 118.347 234.344 118.632 234.344 118.987C234.344 119.257 234.428 119.481 234.596 119.659C234.773 119.827 235.044 119.953 235.408 120.037L236.71 120.303C237.344 120.443 237.816 120.662 238.124 120.961C238.441 121.25 238.6 121.642 238.6 122.137C238.6 122.557 238.483 122.925 238.25 123.243C238.016 123.551 237.69 123.789 237.27 123.957C236.859 124.125 236.374 124.209 235.814 124.209ZM243.655 124.209C242.554 124.209 241.686 123.891 241.051 123.257C240.416 122.613 240.099 121.721 240.099 120.583C240.099 119.845 240.239 119.206 240.519 118.665C240.799 118.114 241.191 117.689 241.695 117.391C242.199 117.083 242.778 116.929 243.431 116.929C244.075 116.929 244.616 117.064 245.055 117.335C245.494 117.605 245.83 117.993 246.063 118.497C246.296 118.991 246.413 119.579 246.413 120.261V120.681H240.967V119.967H245.671L245.433 120.149C245.433 119.402 245.265 118.819 244.929 118.399C244.593 117.979 244.094 117.769 243.431 117.769C242.731 117.769 242.185 118.016 241.793 118.511C241.401 118.996 241.205 119.654 241.205 120.485V120.611C241.205 121.488 241.42 122.155 241.849 122.613C242.288 123.061 242.899 123.285 243.683 123.285C244.103 123.285 244.495 123.224 244.859 123.103C245.232 122.972 245.587 122.762 245.923 122.473L246.315 123.271C246.007 123.569 245.615 123.803 245.139 123.971C244.672 124.129 244.178 124.209 243.655 124.209ZM248.232 124.083V118.749C248.232 118.469 248.223 118.184 248.204 117.895C248.195 117.605 248.176 117.325 248.148 117.055H249.24L249.38 118.763L249.184 118.777C249.277 118.357 249.441 118.011 249.674 117.741C249.907 117.47 250.183 117.269 250.5 117.139C250.817 116.999 251.149 116.929 251.494 116.929C251.634 116.929 251.755 116.933 251.858 116.943C251.97 116.952 252.073 116.975 252.166 117.013L252.152 118.021C252.012 117.974 251.881 117.946 251.76 117.937C251.648 117.918 251.517 117.909 251.368 117.909C250.957 117.909 250.598 118.007 250.29 118.203C249.991 118.399 249.763 118.651 249.604 118.959C249.455 119.267 249.38 119.593 249.38 119.939V124.083H248.232ZM255.954 124.083L252.944 117.055H254.176L256.696 123.243H256.318L258.866 117.055H260.042L257.032 124.083H255.954ZM263.969 124.209C263.343 124.209 262.797 124.064 262.331 123.775C261.864 123.476 261.5 123.056 261.239 122.515C260.987 121.973 260.861 121.325 260.861 120.569C260.861 119.803 260.987 119.15 261.239 118.609C261.5 118.067 261.864 117.652 262.331 117.363C262.797 117.073 263.343 116.929 263.969 116.929C264.603 116.929 265.149 117.092 265.607 117.419C266.073 117.736 266.381 118.17 266.531 118.721H266.363L266.517 117.055H267.609C267.581 117.325 267.553 117.601 267.525 117.881C267.506 118.151 267.497 118.417 267.497 118.679V124.083H266.363V122.431H266.517C266.367 122.981 266.059 123.415 265.593 123.733C265.126 124.05 264.585 124.209 263.969 124.209ZM264.193 123.285C264.865 123.285 265.397 123.056 265.789 122.599C266.181 122.132 266.377 121.455 266.377 120.569C266.377 119.673 266.181 118.996 265.789 118.539C265.397 118.072 264.865 117.839 264.193 117.839C263.53 117.839 262.998 118.072 262.597 118.539C262.205 118.996 262.009 119.673 262.009 120.569C262.009 121.455 262.205 122.132 262.597 122.599C262.998 123.056 263.53 123.285 264.193 123.285ZM272.139 124.209C271.579 124.209 271.056 124.134 270.571 123.985C270.086 123.826 269.684 123.607 269.367 123.327L269.759 122.529C270.104 122.799 270.478 123 270.879 123.131C271.29 123.261 271.714 123.327 272.153 123.327C272.713 123.327 273.133 123.229 273.413 123.033C273.702 122.827 273.847 122.547 273.847 122.193C273.847 121.922 273.754 121.707 273.567 121.549C273.39 121.381 273.096 121.25 272.685 121.157L271.383 120.891C270.786 120.76 270.338 120.541 270.039 120.233C269.74 119.915 269.591 119.514 269.591 119.029C269.591 118.618 269.698 118.259 269.913 117.951C270.128 117.633 270.44 117.386 270.851 117.209C271.262 117.022 271.742 116.929 272.293 116.929C272.806 116.929 273.278 117.008 273.707 117.167C274.146 117.316 274.51 117.535 274.799 117.825L274.393 118.609C274.113 118.338 273.791 118.137 273.427 118.007C273.072 117.867 272.704 117.797 272.321 117.797C271.77 117.797 271.355 117.909 271.075 118.133C270.804 118.347 270.669 118.632 270.669 118.987C270.669 119.257 270.753 119.481 270.921 119.659C271.098 119.827 271.369 119.953 271.733 120.037L273.035 120.303C273.67 120.443 274.141 120.662 274.449 120.961C274.766 121.25 274.925 121.642 274.925 122.137C274.925 122.557 274.808 122.925 274.575 123.243C274.342 123.551 274.015 123.789 273.595 123.957C273.184 124.125 272.699 124.209 272.139 124.209ZM276.566 124.083V122.655H277.994V124.083H276.566ZM48.3521 142.083L52.7061 132.213H53.7141L58.1381 142.083H56.9341L55.7021 139.269L56.2201 139.563H50.1861L50.7461 139.269L49.5421 142.083H48.3521ZM53.1961 133.543L50.9281 138.863L50.5921 138.611H55.8001L55.5481 138.863L53.2241 133.543H53.1961ZM62.4987 142.209C61.808 142.209 61.206 142.059 60.6927 141.761C60.1887 141.462 59.7967 141.037 59.5167 140.487C59.246 139.936 59.1107 139.283 59.1107 138.527C59.1107 137.761 59.2507 137.113 59.5307 136.581C59.8107 136.039 60.2027 135.629 60.7067 135.349C61.22 135.069 61.8173 134.929 62.4987 134.929C62.9467 134.929 63.3807 135.008 63.8007 135.167C64.23 135.325 64.5847 135.549 64.8647 135.839L64.4587 136.651C64.1787 136.38 63.8707 136.179 63.5347 136.049C63.208 135.918 62.886 135.853 62.5687 135.853C61.8407 135.853 61.276 136.081 60.8747 136.539C60.4733 136.996 60.2727 137.663 60.2727 138.541C60.2727 139.409 60.4733 140.081 60.8747 140.557C61.276 141.033 61.8407 141.271 62.5687 141.271C62.8767 141.271 63.194 141.21 63.5207 141.089C63.8567 140.967 64.1693 140.767 64.4587 140.487L64.8647 141.285C64.5753 141.583 64.216 141.812 63.7867 141.971C63.3573 142.129 62.928 142.209 62.4987 142.209ZM69.3356 142.209C68.6636 142.209 68.0756 142.064 67.5716 141.775C67.0769 141.476 66.6942 141.056 66.4236 140.515C66.1529 139.964 66.0176 139.315 66.0176 138.569C66.0176 137.813 66.1529 137.164 66.4236 136.623C66.6942 136.081 67.0769 135.666 67.5716 135.377C68.0756 135.078 68.6636 134.929 69.3356 134.929C70.0169 134.929 70.6049 135.078 71.0996 135.377C71.6036 135.666 71.9909 136.081 72.2616 136.623C72.5416 137.164 72.6816 137.813 72.6816 138.569C72.6816 139.315 72.5416 139.964 72.2616 140.515C71.9909 141.056 71.6036 141.476 71.0996 141.775C70.6049 142.064 70.0169 142.209 69.3356 142.209ZM69.3356 141.285C70.0076 141.285 70.5396 141.056 70.9316 140.599C71.3236 140.132 71.5196 139.455 71.5196 138.569C71.5196 137.673 71.3189 136.996 70.9176 136.539C70.5256 136.072 69.9982 135.839 69.3356 135.839C68.6729 135.839 68.1456 136.072 67.7536 136.539C67.3616 136.996 67.1656 137.673 67.1656 138.569C67.1656 139.455 67.3616 140.132 67.7536 140.599C68.1456 141.056 68.6729 141.285 69.3356 141.285ZM74.5616 142.083V136.679C74.5616 136.417 74.5476 136.151 74.5196 135.881C74.501 135.601 74.4776 135.325 74.4496 135.055H75.5416L75.6816 136.595H75.5136C75.7003 136.063 75.9943 135.652 76.3956 135.363C76.8063 135.073 77.301 134.929 77.8796 134.929C78.4676 134.929 78.9436 135.069 79.3076 135.349C79.681 135.629 79.933 136.063 80.0636 136.651H79.8536C80.031 136.119 80.3436 135.699 80.7916 135.391C81.2396 135.083 81.7623 134.929 82.3596 134.929C83.1343 134.929 83.7176 135.153 84.1096 135.601C84.5016 136.039 84.6976 136.735 84.6976 137.687V142.083H83.5636V137.757C83.5636 137.094 83.447 136.613 83.2136 136.315C82.9803 136.007 82.607 135.853 82.0936 135.853C81.5056 135.853 81.039 136.058 80.6936 136.469C80.3576 136.87 80.1896 137.411 80.1896 138.093V142.083H79.0556V137.757C79.0556 137.094 78.939 136.613 78.7056 136.315C78.4723 136.007 78.099 135.853 77.5856 135.853C76.9976 135.853 76.5356 136.058 76.1996 136.469C75.8636 136.87 75.6956 137.411 75.6956 138.093V142.083H74.5616ZM86.9646 145.107V136.679C86.9646 136.417 86.9506 136.151 86.9226 135.881C86.904 135.601 86.8806 135.325 86.8526 135.055H87.9446L88.0986 136.721H87.9306C88.08 136.17 88.3833 135.736 88.8406 135.419C89.298 135.092 89.844 134.929 90.4786 134.929C91.1133 134.929 91.6593 135.073 92.1166 135.363C92.5833 135.652 92.9473 136.067 93.2086 136.609C93.47 137.15 93.6006 137.803 93.6006 138.569C93.6006 139.325 93.47 139.973 93.2086 140.515C92.9566 141.056 92.5973 141.476 92.1306 141.775C91.664 142.064 91.1133 142.209 90.4786 142.209C89.8533 142.209 89.312 142.05 88.8546 141.733C88.3973 141.415 88.094 140.981 87.9446 140.431H88.0986V145.107H86.9646ZM90.2546 141.285C90.9266 141.285 91.4586 141.056 91.8506 140.599C92.252 140.132 92.4526 139.455 92.4526 138.569C92.4526 137.673 92.252 136.996 91.8506 136.539C91.4586 136.072 90.9266 135.839 90.2546 135.839C89.592 135.839 89.06 136.072 88.6586 136.539C88.2666 136.996 88.0706 137.673 88.0706 138.569C88.0706 139.455 88.2666 140.132 88.6586 140.599C89.06 141.056 89.592 141.285 90.2546 141.285ZM98.1452 142.209C97.5198 142.209 96.9738 142.064 96.5072 141.775C96.0405 141.476 95.6765 141.056 95.4152 140.515C95.1632 139.973 95.0372 139.325 95.0372 138.569C95.0372 137.803 95.1632 137.15 95.4152 136.609C95.6765 136.067 96.0405 135.652 96.5072 135.363C96.9738 135.073 97.5198 134.929 98.1452 134.929C98.7798 134.929 99.3258 135.092 99.7832 135.419C100.25 135.736 100.558 136.17 100.707 136.721H100.539L100.693 135.055H101.785C101.757 135.325 101.729 135.601 101.701 135.881C101.683 136.151 101.673 136.417 101.673 136.679V142.083H100.539V140.431H100.693C100.544 140.981 100.236 141.415 99.7692 141.733C99.3025 142.05 98.7612 142.209 98.1452 142.209ZM98.3692 141.285C99.0412 141.285 99.5732 141.056 99.9652 140.599C100.357 140.132 100.553 139.455 100.553 138.569C100.553 137.673 100.357 136.996 99.9652 136.539C99.5732 136.072 99.0412 135.839 98.3692 135.839C97.7065 135.839 97.1745 136.072 96.7732 136.539C96.3812 136.996 96.1852 137.673 96.1852 138.569C96.1852 139.455 96.3812 140.132 96.7732 140.599C97.1745 141.056 97.7065 141.285 98.3692 141.285ZM103.978 142.083V136.679C103.978 136.417 103.964 136.151 103.936 135.881C103.917 135.601 103.894 135.325 103.866 135.055H104.958L105.098 136.595H104.93C105.135 136.053 105.462 135.643 105.91 135.363C106.367 135.073 106.894 134.929 107.492 134.929C108.322 134.929 108.948 135.153 109.368 135.601C109.797 136.039 110.012 136.735 110.012 137.687V142.083H108.878V137.757C108.878 137.094 108.742 136.613 108.472 136.315C108.21 136.007 107.8 135.853 107.24 135.853C106.586 135.853 106.068 136.053 105.686 136.455C105.303 136.856 105.112 137.393 105.112 138.065V142.083H103.978ZM112.293 142.083V131.779H113.427V136.609H113.245C113.441 136.058 113.767 135.643 114.225 135.363C114.691 135.073 115.228 134.929 115.835 134.929C116.675 134.929 117.3 135.157 117.711 135.615C118.121 136.063 118.327 136.744 118.327 137.659V142.083H117.193V137.729C117.193 137.075 117.062 136.599 116.801 136.301C116.549 136.002 116.138 135.853 115.569 135.853C114.915 135.853 114.393 136.053 114.001 136.455C113.618 136.856 113.427 137.383 113.427 138.037V142.083H112.293ZM123.73 142.209C122.629 142.209 121.761 141.891 121.126 141.257C120.491 140.613 120.174 139.721 120.174 138.583C120.174 137.845 120.314 137.206 120.594 136.665C120.874 136.114 121.266 135.689 121.77 135.391C122.274 135.083 122.853 134.929 123.506 134.929C124.15 134.929 124.691 135.064 125.13 135.335C125.569 135.605 125.905 135.993 126.138 136.497C126.371 136.991 126.488 137.579 126.488 138.261V138.681H121.042V137.967H125.746L125.508 138.149C125.508 137.402 125.34 136.819 125.004 136.399C124.668 135.979 124.169 135.769 123.506 135.769C122.806 135.769 122.26 136.016 121.868 136.511C121.476 136.996 121.28 137.654 121.28 138.485V138.611C121.28 139.488 121.495 140.155 121.924 140.613C122.363 141.061 122.974 141.285 123.758 141.285C124.178 141.285 124.57 141.224 124.934 141.103C125.307 140.972 125.662 140.762 125.998 140.473L126.39 141.271C126.082 141.569 125.69 141.803 125.214 141.971C124.747 142.129 124.253 142.209 123.73 142.209ZM132.098 142.083V136.679C132.098 136.417 132.084 136.151 132.056 135.881C132.037 135.601 132.014 135.325 131.986 135.055H133.078L133.218 136.595H133.05C133.255 136.053 133.582 135.643 134.03 135.363C134.487 135.073 135.014 134.929 135.612 134.929C136.442 134.929 137.068 135.153 137.488 135.601C137.917 136.039 138.132 136.735 138.132 137.687V142.083H136.998V137.757C136.998 137.094 136.862 136.613 136.592 136.315C136.33 136.007 135.92 135.853 135.36 135.853C134.706 135.853 134.188 136.053 133.806 136.455C133.423 136.856 133.232 137.393 133.232 138.065V142.083H132.098ZM143.297 142.209C142.625 142.209 142.037 142.064 141.533 141.775C141.038 141.476 140.655 141.056 140.385 140.515C140.114 139.964 139.979 139.315 139.979 138.569C139.979 137.813 140.114 137.164 140.385 136.623C140.655 136.081 141.038 135.666 141.533 135.377C142.037 135.078 142.625 134.929 143.297 134.929C143.978 134.929 144.566 135.078 145.061 135.377C145.565 135.666 145.952 136.081 146.223 136.623C146.503 137.164 146.643 137.813 146.643 138.569C146.643 139.315 146.503 139.964 146.223 140.515C145.952 141.056 145.565 141.476 145.061 141.775C144.566 142.064 143.978 142.209 143.297 142.209ZM143.297 141.285C143.969 141.285 144.501 141.056 144.893 140.599C145.285 140.132 145.481 139.455 145.481 138.569C145.481 137.673 145.28 136.996 144.879 136.539C144.487 136.072 143.959 135.839 143.297 135.839C142.634 135.839 142.107 136.072 141.715 136.539C141.323 136.996 141.127 137.673 141.127 138.569C141.127 139.455 141.323 140.132 141.715 140.599C142.107 141.056 142.634 141.285 143.297 141.285ZM150.861 142.209C150.301 142.209 149.778 142.134 149.293 141.985C148.807 141.826 148.406 141.607 148.089 141.327L148.481 140.529C148.826 140.799 149.199 141 149.601 141.131C150.011 141.261 150.436 141.327 150.875 141.327C151.435 141.327 151.855 141.229 152.135 141.033C152.424 140.827 152.569 140.547 152.569 140.193C152.569 139.922 152.475 139.707 152.289 139.549C152.111 139.381 151.817 139.25 151.407 139.157L150.105 138.891C149.507 138.76 149.059 138.541 148.761 138.233C148.462 137.915 148.313 137.514 148.313 137.029C148.313 136.618 148.42 136.259 148.635 135.951C148.849 135.633 149.162 135.386 149.573 135.209C149.983 135.022 150.464 134.929 151.015 134.929C151.528 134.929 151.999 135.008 152.429 135.167C152.867 135.316 153.231 135.535 153.521 135.825L153.115 136.609C152.835 136.338 152.513 136.137 152.149 136.007C151.794 135.867 151.425 135.797 151.043 135.797C150.492 135.797 150.077 135.909 149.797 136.133C149.526 136.347 149.391 136.632 149.391 136.987C149.391 137.257 149.475 137.481 149.643 137.659C149.82 137.827 150.091 137.953 150.455 138.037L151.757 138.303C152.391 138.443 152.863 138.662 153.171 138.961C153.488 139.25 153.647 139.642 153.647 140.137C153.647 140.557 153.53 140.925 153.297 141.243C153.063 141.551 152.737 141.789 152.317 141.957C151.906 142.125 151.421 142.209 150.861 142.209ZM157.918 142.209C157.358 142.209 156.835 142.134 156.35 141.985C155.865 141.826 155.463 141.607 155.146 141.327L155.538 140.529C155.883 140.799 156.257 141 156.658 141.131C157.069 141.261 157.493 141.327 157.932 141.327C158.492 141.327 158.912 141.229 159.192 141.033C159.481 140.827 159.626 140.547 159.626 140.193C159.626 139.922 159.533 139.707 159.346 139.549C159.169 139.381 158.875 139.25 158.464 139.157L157.162 138.891C156.565 138.76 156.117 138.541 155.818 138.233C155.519 137.915 155.37 137.514 155.37 137.029C155.37 136.618 155.477 136.259 155.692 135.951C155.907 135.633 156.219 135.386 156.63 135.209C157.041 135.022 157.521 134.929 158.072 134.929C158.585 134.929 159.057 135.008 159.486 135.167C159.925 135.316 160.289 135.535 160.578 135.825L160.172 136.609C159.892 136.338 159.57 136.137 159.206 136.007C158.851 135.867 158.483 135.797 158.1 135.797C157.549 135.797 157.134 135.909 156.854 136.133C156.583 136.347 156.448 136.632 156.448 136.987C156.448 137.257 156.532 137.481 156.7 137.659C156.877 137.827 157.148 137.953 157.512 138.037L158.814 138.303C159.449 138.443 159.92 138.662 160.228 138.961C160.545 139.25 160.704 139.642 160.704 140.137C160.704 140.557 160.587 140.925 160.354 141.243C160.121 141.551 159.794 141.789 159.374 141.957C158.963 142.125 158.478 142.209 157.918 142.209ZM165.311 142.209C164.686 142.209 164.14 142.064 163.673 141.775C163.207 141.476 162.843 141.056 162.581 140.515C162.329 139.973 162.203 139.325 162.203 138.569C162.203 137.803 162.329 137.15 162.581 136.609C162.843 136.067 163.207 135.652 163.673 135.363C164.14 135.073 164.686 134.929 165.311 134.929C165.946 134.929 166.492 135.092 166.949 135.419C167.416 135.736 167.724 136.17 167.873 136.721H167.705L167.859 135.055H168.951C168.923 135.325 168.895 135.601 168.867 135.881C168.849 136.151 168.839 136.417 168.839 136.679V142.083H167.705V140.431H167.859C167.71 140.981 167.402 141.415 166.935 141.733C166.469 142.05 165.927 142.209 165.311 142.209ZM165.535 141.285C166.207 141.285 166.739 141.056 167.131 140.599C167.523 140.132 167.719 139.455 167.719 138.569C167.719 137.673 167.523 136.996 167.131 136.539C166.739 136.072 166.207 135.839 165.535 135.839C164.873 135.839 164.341 136.072 163.939 136.539C163.547 136.996 163.351 137.673 163.351 138.569C163.351 139.455 163.547 140.132 163.939 140.599C164.341 141.056 164.873 141.285 165.535 141.285ZM173.482 142.209C172.922 142.209 172.399 142.134 171.914 141.985C171.429 141.826 171.027 141.607 170.71 141.327L171.102 140.529C171.447 140.799 171.821 141 172.222 141.131C172.633 141.261 173.057 141.327 173.496 141.327C174.056 141.327 174.476 141.229 174.756 141.033C175.045 140.827 175.19 140.547 175.19 140.193C175.19 139.922 175.097 139.707 174.91 139.549C174.733 139.381 174.439 139.25 174.028 139.157L172.726 138.891C172.129 138.76 171.681 138.541 171.382 138.233C171.083 137.915 170.934 137.514 170.934 137.029C170.934 136.618 171.041 136.259 171.256 135.951C171.471 135.633 171.783 135.386 172.194 135.209C172.605 135.022 173.085 134.929 173.636 134.929C174.149 134.929 174.621 135.008 175.05 135.167C175.489 135.316 175.853 135.535 176.142 135.825L175.736 136.609C175.456 136.338 175.134 136.137 174.77 136.007C174.415 135.867 174.047 135.797 173.664 135.797C173.113 135.797 172.698 135.909 172.418 136.133C172.147 136.347 172.012 136.632 172.012 136.987C172.012 137.257 172.096 137.481 172.264 137.659C172.441 137.827 172.712 137.953 173.076 138.037L174.378 138.303C175.013 138.443 175.484 138.662 175.792 138.961C176.109 139.25 176.268 139.642 176.268 140.137C176.268 140.557 176.151 140.925 175.918 141.243C175.685 141.551 175.358 141.789 174.938 141.957C174.527 142.125 174.042 142.209 173.482 142.209ZM181.936 142.083V136.749C181.936 136.469 181.926 136.184 181.908 135.895C181.898 135.605 181.88 135.325 181.852 135.055H182.944L183.084 136.763L182.888 136.777C182.981 136.357 183.144 136.011 183.378 135.741C183.611 135.47 183.886 135.269 184.204 135.139C184.521 134.999 184.852 134.929 185.198 134.929C185.338 134.929 185.459 134.933 185.562 134.943C185.674 134.952 185.776 134.975 185.87 135.013L185.856 136.021C185.716 135.974 185.585 135.946 185.464 135.937C185.352 135.918 185.221 135.909 185.072 135.909C184.661 135.909 184.302 136.007 183.994 136.203C183.695 136.399 183.466 136.651 183.308 136.959C183.158 137.267 183.084 137.593 183.084 137.939V142.083H181.936ZM190.202 142.209C189.1 142.209 188.232 141.891 187.598 141.257C186.963 140.613 186.646 139.721 186.646 138.583C186.646 137.845 186.786 137.206 187.066 136.665C187.346 136.114 187.738 135.689 188.242 135.391C188.746 135.083 189.324 134.929 189.978 134.929C190.622 134.929 191.163 135.064 191.602 135.335C192.04 135.605 192.376 135.993 192.61 136.497C192.843 136.991 192.96 137.579 192.96 138.261V138.681H187.514V137.967H192.218L191.98 138.149C191.98 137.402 191.812 136.819 191.476 136.399C191.14 135.979 190.64 135.769 189.978 135.769C189.278 135.769 188.732 136.016 188.34 136.511C187.948 136.996 187.752 137.654 187.752 138.485V138.611C187.752 139.488 187.966 140.155 188.396 140.613C188.834 141.061 189.446 141.285 190.23 141.285C190.65 141.285 191.042 141.224 191.406 141.103C191.779 140.972 192.134 140.762 192.47 140.473L192.862 141.271C192.554 141.569 192.162 141.803 191.686 141.971C191.219 142.129 190.724 142.209 190.202 142.209ZM197.467 142.209C196.851 142.209 196.309 142.064 195.843 141.775C195.376 141.476 195.012 141.056 194.751 140.515C194.499 139.973 194.373 139.325 194.373 138.569C194.373 137.803 194.499 137.15 194.751 136.609C195.012 136.067 195.376 135.652 195.843 135.363C196.309 135.073 196.851 134.929 197.467 134.929C198.101 134.929 198.647 135.087 199.105 135.405C199.571 135.722 199.884 136.151 200.043 136.693H199.875V131.779H201.009V142.083H199.889V140.403H200.043C199.893 140.963 199.585 141.406 199.119 141.733C198.652 142.05 198.101 142.209 197.467 142.209ZM197.705 141.285C198.367 141.285 198.899 141.056 199.301 140.599C199.702 140.132 199.903 139.455 199.903 138.569C199.903 137.673 199.702 136.996 199.301 136.539C198.899 136.072 198.367 135.839 197.705 135.839C197.042 135.839 196.51 136.072 196.109 136.539C195.717 136.996 195.521 137.673 195.521 138.569C195.521 139.455 195.717 140.132 196.109 140.599C196.51 141.056 197.042 141.285 197.705 141.285ZM206.435 142.209C205.334 142.209 204.466 141.891 203.831 141.257C203.197 140.613 202.879 139.721 202.879 138.583C202.879 137.845 203.019 137.206 203.299 136.665C203.579 136.114 203.971 135.689 204.475 135.391C204.979 135.083 205.558 134.929 206.211 134.929C206.855 134.929 207.397 135.064 207.835 135.335C208.274 135.605 208.61 135.993 208.843 136.497C209.077 136.991 209.193 137.579 209.193 138.261V138.681H203.747V137.967H208.451L208.213 138.149C208.213 137.402 208.045 136.819 207.709 136.399C207.373 135.979 206.874 135.769 206.211 135.769C205.511 135.769 204.965 136.016 204.573 136.511C204.181 136.996 203.985 137.654 203.985 138.485V138.611C203.985 139.488 204.2 140.155 204.629 140.613C205.068 141.061 205.679 141.285 206.463 141.285C206.883 141.285 207.275 141.224 207.639 141.103C208.013 140.972 208.367 140.762 208.703 140.473L209.095 141.271C208.787 141.569 208.395 141.803 207.919 141.971C207.453 142.129 206.958 142.209 206.435 142.209ZM213.379 142.209C212.819 142.209 212.296 142.134 211.811 141.985C211.325 141.826 210.924 141.607 210.607 141.327L210.999 140.529C211.344 140.799 211.717 141 212.119 141.131C212.529 141.261 212.954 141.327 213.393 141.327C213.953 141.327 214.373 141.229 214.653 141.033C214.942 140.827 215.087 140.547 215.087 140.193C215.087 139.922 214.993 139.707 214.807 139.549C214.629 139.381 214.335 139.25 213.925 139.157L212.623 138.891C212.025 138.76 211.577 138.541 211.279 138.233C210.98 137.915 210.831 137.514 210.831 137.029C210.831 136.618 210.938 136.259 211.153 135.951C211.367 135.633 211.68 135.386 212.091 135.209C212.501 135.022 212.982 134.929 213.533 134.929C214.046 134.929 214.517 135.008 214.947 135.167C215.385 135.316 215.749 135.535 216.039 135.825L215.633 136.609C215.353 136.338 215.031 136.137 214.667 136.007C214.312 135.867 213.943 135.797 213.561 135.797C213.01 135.797 212.595 135.909 212.315 136.133C212.044 136.347 211.909 136.632 211.909 136.987C211.909 137.257 211.993 137.481 212.161 137.659C212.338 137.827 212.609 137.953 212.973 138.037L214.275 138.303C214.909 138.443 215.381 138.662 215.689 138.961C216.006 139.25 216.165 139.642 216.165 140.137C216.165 140.557 216.048 140.925 215.815 141.243C215.581 141.551 215.255 141.789 214.835 141.957C214.424 142.125 213.939 142.209 213.379 142.209ZM224.198 142.209C223.638 142.209 223.116 142.134 222.63 141.985C222.145 141.826 221.744 141.607 221.426 141.327L221.818 140.529C222.164 140.799 222.537 141 222.938 141.131C223.349 141.261 223.774 141.327 224.212 141.327C224.772 141.327 225.192 141.229 225.472 141.033C225.762 140.827 225.906 140.547 225.906 140.193C225.906 139.922 225.813 139.707 225.626 139.549C225.449 139.381 225.155 139.25 224.744 139.157L223.442 138.891C222.845 138.76 222.397 138.541 222.098 138.233C221.8 137.915 221.65 137.514 221.65 137.029C221.65 136.618 221.758 136.259 221.972 135.951C222.187 135.633 222.5 135.386 222.91 135.209C223.321 135.022 223.802 134.929 224.352 134.929C224.866 134.929 225.337 135.008 225.766 135.167C226.205 135.316 226.569 135.535 226.858 135.825L226.452 136.609C226.172 136.338 225.85 136.137 225.486 136.007C225.132 135.867 224.763 135.797 224.38 135.797C223.83 135.797 223.414 135.909 223.134 136.133C222.864 136.347 222.728 136.632 222.728 136.987C222.728 137.257 222.812 137.481 222.98 137.659C223.158 137.827 223.428 137.953 223.792 138.037L225.094 138.303C225.729 138.443 226.2 138.662 226.508 138.961C226.826 139.25 226.984 139.642 226.984 140.137C226.984 140.557 226.868 140.925 226.634 141.243C226.401 141.551 226.074 141.789 225.654 141.957C225.244 142.125 224.758 142.209 224.198 142.209ZM231.802 142.209C231.13 142.209 230.542 142.064 230.038 141.775C229.543 141.476 229.16 141.056 228.89 140.515C228.619 139.964 228.484 139.315 228.484 138.569C228.484 137.813 228.619 137.164 228.89 136.623C229.16 136.081 229.543 135.666 230.038 135.377C230.542 135.078 231.13 134.929 231.802 134.929C232.483 134.929 233.071 135.078 233.566 135.377C234.07 135.666 234.457 136.081 234.728 136.623C235.008 137.164 235.148 137.813 235.148 138.569C235.148 139.315 235.008 139.964 234.728 140.515C234.457 141.056 234.07 141.476 233.566 141.775C233.071 142.064 232.483 142.209 231.802 142.209ZM231.802 141.285C232.474 141.285 233.006 141.056 233.398 140.599C233.79 140.132 233.986 139.455 233.986 138.569C233.986 137.673 233.785 136.996 233.384 136.539C232.992 136.072 232.464 135.839 231.802 135.839C231.139 135.839 230.612 136.072 230.22 136.539C229.828 136.996 229.632 137.673 229.632 138.569C229.632 139.455 229.828 140.132 230.22 140.599C230.612 141.056 231.139 141.285 231.802 141.285ZM239.982 142.209C239.291 142.209 238.689 142.059 238.176 141.761C237.672 141.462 237.28 141.037 237 140.487C236.729 139.936 236.594 139.283 236.594 138.527C236.594 137.761 236.734 137.113 237.014 136.581C237.294 136.039 237.686 135.629 238.19 135.349C238.703 135.069 239.3 134.929 239.982 134.929C240.43 134.929 240.864 135.008 241.284 135.167C241.713 135.325 242.068 135.549 242.348 135.839L241.942 136.651C241.662 136.38 241.354 136.179 241.018 136.049C240.691 135.918 240.369 135.853 240.052 135.853C239.324 135.853 238.759 136.081 238.358 136.539C237.956 136.996 237.756 137.663 237.756 138.541C237.756 139.409 237.956 140.081 238.358 140.557C238.759 141.033 239.324 141.271 240.052 141.271C240.36 141.271 240.677 141.21 241.004 141.089C241.34 140.967 241.652 140.767 241.942 140.487L242.348 141.285C242.058 141.583 241.699 141.812 241.27 141.971C240.84 142.129 240.411 142.209 239.982 142.209ZM244.071 142.083V135.055H245.205V142.083H244.071ZM243.931 133.459V132.185H245.331V133.459H243.931ZM250.193 142.209C249.568 142.209 249.022 142.064 248.555 141.775C248.088 141.476 247.724 141.056 247.463 140.515C247.211 139.973 247.085 139.325 247.085 138.569C247.085 137.803 247.211 137.15 247.463 136.609C247.724 136.067 248.088 135.652 248.555 135.363C249.022 135.073 249.568 134.929 250.193 134.929C250.828 134.929 251.374 135.092 251.831 135.419C252.298 135.736 252.606 136.17 252.755 136.721H252.587L252.741 135.055H253.833C253.805 135.325 253.777 135.601 253.749 135.881C253.73 136.151 253.721 136.417 253.721 136.679V142.083H252.587V140.431H252.741C252.592 140.981 252.284 141.415 251.817 141.733C251.35 142.05 250.809 142.209 250.193 142.209ZM250.417 141.285C251.089 141.285 251.621 141.056 252.013 140.599C252.405 140.132 252.601 139.455 252.601 138.569C252.601 137.673 252.405 136.996 252.013 136.539C251.621 136.072 251.089 135.839 250.417 135.839C249.754 135.839 249.222 136.072 248.821 136.539C248.429 136.996 248.233 137.673 248.233 138.569C248.233 139.455 248.429 140.132 248.821 140.599C249.222 141.056 249.754 141.285 250.417 141.285ZM256.026 142.083V135.055H257.16V142.083H256.026ZM255.886 133.459V132.185H257.286V133.459H255.886ZM261.812 142.209C261.252 142.209 260.729 142.134 260.244 141.985C259.758 141.826 259.357 141.607 259.04 141.327L259.432 140.529C259.777 140.799 260.15 141 260.552 141.131C260.962 141.261 261.387 141.327 261.826 141.327C262.386 141.327 262.806 141.229 263.086 141.033C263.375 140.827 263.52 140.547 263.52 140.193C263.52 139.922 263.426 139.707 263.24 139.549C263.062 139.381 262.768 139.25 262.358 139.157L261.056 138.891C260.458 138.76 260.01 138.541 259.712 138.233C259.413 137.915 259.264 137.514 259.264 137.029C259.264 136.618 259.371 136.259 259.586 135.951C259.8 135.633 260.113 135.386 260.524 135.209C260.934 135.022 261.415 134.929 261.966 134.929C262.479 134.929 262.95 135.008 263.38 135.167C263.818 135.316 264.182 135.535 264.472 135.825L264.066 136.609C263.786 136.338 263.464 136.137 263.1 136.007C262.745 135.867 262.376 135.797 261.994 135.797C261.443 135.797 261.028 135.909 260.748 136.133C260.477 136.347 260.342 136.632 260.342 136.987C260.342 137.257 260.426 137.481 260.594 137.659C260.771 137.827 261.042 137.953 261.406 138.037L262.708 138.303C263.342 138.443 263.814 138.662 264.122 138.961C264.439 139.25 264.598 139.642 264.598 140.137C264.598 140.557 264.481 140.925 264.248 141.243C264.014 141.551 263.688 141.789 263.268 141.957C262.857 142.125 262.372 142.209 261.812 142.209ZM270.293 145.107V136.679C270.293 136.417 270.279 136.151 270.251 135.881C270.233 135.601 270.209 135.325 270.181 135.055H271.273L271.427 136.721H271.259C271.409 136.17 271.712 135.736 272.169 135.419C272.627 135.092 273.173 134.929 273.807 134.929C274.442 134.929 274.988 135.073 275.445 135.363C275.912 135.652 276.276 136.067 276.537 136.609C276.799 137.15 276.929 137.803 276.929 138.569C276.929 139.325 276.799 139.973 276.537 140.515C276.285 141.056 275.926 141.476 275.459 141.775C274.993 142.064 274.442 142.209 273.807 142.209C273.182 142.209 272.641 142.05 272.183 141.733C271.726 141.415 271.423 140.981 271.273 140.431H271.427V145.107H270.293ZM273.583 141.285C274.255 141.285 274.787 141.056 275.179 140.599C275.581 140.132 275.781 139.455 275.781 138.569C275.781 137.673 275.581 136.996 275.179 136.539C274.787 136.072 274.255 135.839 273.583 135.839C272.921 135.839 272.389 136.072 271.987 136.539C271.595 136.996 271.399 137.673 271.399 138.569C271.399 139.455 271.595 140.132 271.987 140.599C272.389 141.056 272.921 141.285 273.583 141.285ZM281.474 142.209C280.849 142.209 280.303 142.064 279.836 141.775C279.369 141.476 279.005 141.056 278.744 140.515C278.492 139.973 278.366 139.325 278.366 138.569C278.366 137.803 278.492 137.15 278.744 136.609C279.005 136.067 279.369 135.652 279.836 135.363C280.303 135.073 280.849 134.929 281.474 134.929C282.109 134.929 282.655 135.092 283.112 135.419C283.579 135.736 283.887 136.17 284.036 136.721H283.868L284.022 135.055H285.114C285.086 135.325 285.058 135.601 285.03 135.881C285.011 136.151 285.002 136.417 285.002 136.679V142.083H283.868V140.431H284.022C283.873 140.981 283.565 141.415 283.098 141.733C282.631 142.05 282.09 142.209 281.474 142.209ZM281.698 141.285C282.37 141.285 282.902 141.056 283.294 140.599C283.686 140.132 283.882 139.455 283.882 138.569C283.882 137.673 283.686 136.996 283.294 136.539C282.902 136.072 282.37 135.839 281.698 135.839C281.035 135.839 280.503 136.072 280.102 136.539C279.71 136.996 279.514 137.673 279.514 138.569C279.514 139.455 279.71 140.132 280.102 140.599C280.503 141.056 281.035 141.285 281.698 141.285ZM287.278 142.083V136.749C287.278 136.469 287.269 136.184 287.25 135.895C287.241 135.605 287.222 135.325 287.194 135.055H288.286L288.426 136.763L288.23 136.777C288.324 136.357 288.487 136.011 288.72 135.741C288.954 135.47 289.229 135.269 289.546 135.139C289.864 134.999 290.195 134.929 290.54 134.929C290.68 134.929 290.802 134.933 290.904 134.943C291.016 134.952 291.119 134.975 291.212 135.013L291.198 136.021C291.058 135.974 290.928 135.946 290.806 135.937C290.694 135.918 290.564 135.909 290.414 135.909C290.004 135.909 289.644 136.007 289.336 136.203C289.038 136.399 288.809 136.651 288.65 136.959C288.501 137.267 288.426 137.593 288.426 137.939V142.083H287.278ZM295.11 142.209C294.485 142.209 293.939 142.064 293.472 141.775C293.005 141.476 292.641 141.056 292.38 140.515C292.128 139.973 292.002 139.325 292.002 138.569C292.002 137.803 292.128 137.15 292.38 136.609C292.641 136.067 293.005 135.652 293.472 135.363C293.939 135.073 294.485 134.929 295.11 134.929C295.745 134.929 296.291 135.092 296.748 135.419C297.215 135.736 297.523 136.17 297.672 136.721H297.504L297.658 135.055H298.75C298.722 135.325 298.694 135.601 298.666 135.881C298.647 136.151 298.638 136.417 298.638 136.679V142.083H297.504V140.431H297.658C297.509 140.981 297.201 141.415 296.734 141.733C296.267 142.05 295.726 142.209 295.11 142.209ZM295.334 141.285C296.006 141.285 296.538 141.056 296.93 140.599C297.322 140.132 297.518 139.455 297.518 138.569C297.518 137.673 297.322 136.996 296.93 136.539C296.538 136.072 296.006 135.839 295.334 135.839C294.671 135.839 294.139 136.072 293.738 136.539C293.346 136.996 293.15 137.673 293.15 138.569C293.15 139.455 293.346 140.132 293.738 140.599C294.139 141.056 294.671 141.285 295.334 141.285ZM51.5441 161.209C50.9841 161.209 50.4614 161.134 49.9761 160.985C49.4908 160.826 49.0894 160.607 48.7721 160.327L49.1641 159.529C49.5094 159.799 49.8828 160 50.2841 160.131C50.6948 160.261 51.1194 160.327 51.5581 160.327C52.1181 160.327 52.5381 160.229 52.8181 160.033C53.1074 159.827 53.2521 159.547 53.2521 159.193C53.2521 158.922 53.1588 158.707 52.9721 158.549C52.7948 158.381 52.5008 158.25 52.0901 158.157L50.7881 157.891C50.1908 157.76 49.7428 157.541 49.4441 157.233C49.1454 156.915 48.9961 156.514 48.9961 156.029C48.9961 155.618 49.1034 155.259 49.3181 154.951C49.5328 154.633 49.8454 154.386 50.2561 154.209C50.6668 154.022 51.1474 153.929 51.6981 153.929C52.2114 153.929 52.6828 154.008 53.1121 154.167C53.5508 154.316 53.9148 154.535 54.2041 154.825L53.7981 155.609C53.5181 155.338 53.1961 155.137 52.8321 155.007C52.4774 154.867 52.1088 154.797 51.7261 154.797C51.1754 154.797 50.7601 154.909 50.4801 155.133C50.2094 155.347 50.0741 155.632 50.0741 155.987C50.0741 156.257 50.1581 156.481 50.3261 156.659C50.5034 156.827 50.7741 156.953 51.1381 157.037L52.4401 157.303C53.0748 157.443 53.5461 157.662 53.8541 157.961C54.1714 158.25 54.3301 158.642 54.3301 159.137C54.3301 159.557 54.2134 159.925 53.9801 160.243C53.7468 160.551 53.4201 160.789 53.0001 160.957C52.5894 161.125 52.1041 161.209 51.5441 161.209ZM58.9374 161.209C58.3121 161.209 57.7661 161.064 57.2994 160.775C56.8327 160.476 56.4687 160.056 56.2074 159.515C55.9554 158.973 55.8294 158.325 55.8294 157.569C55.8294 156.803 55.9554 156.15 56.2074 155.609C56.4687 155.067 56.8327 154.652 57.2994 154.363C57.7661 154.073 58.3121 153.929 58.9374 153.929C59.5721 153.929 60.1181 154.092 60.5754 154.419C61.0421 154.736 61.3501 155.17 61.4994 155.721H61.3314L61.4854 154.055H62.5774C62.5494 154.325 62.5214 154.601 62.4934 154.881C62.4747 155.151 62.4654 155.417 62.4654 155.679V161.083H61.3314V159.431H61.4854C61.3361 159.981 61.0281 160.415 60.5614 160.733C60.0947 161.05 59.5534 161.209 58.9374 161.209ZM59.1614 160.285C59.8334 160.285 60.3654 160.056 60.7574 159.599C61.1494 159.132 61.3454 158.455 61.3454 157.569C61.3454 156.673 61.1494 155.996 60.7574 155.539C60.3654 155.072 59.8334 154.839 59.1614 154.839C58.4987 154.839 57.9667 155.072 57.5654 155.539C57.1734 155.996 56.9774 156.673 56.9774 157.569C56.9774 158.455 57.1734 159.132 57.5654 159.599C57.9667 160.056 58.4987 160.285 59.1614 160.285ZM68.2979 161.209C67.6633 161.209 67.1173 161.05 66.6599 160.733C66.2026 160.406 65.8946 159.963 65.7359 159.403H65.8899V161.083H64.7699V150.779H65.9039V155.693H65.7359C65.8946 155.151 66.2026 154.722 66.6599 154.405C67.1173 154.087 67.6633 153.929 68.2979 153.929C68.9326 153.929 69.4786 154.078 69.9359 154.377C70.4026 154.666 70.7619 155.081 71.0139 155.623C71.2753 156.164 71.4059 156.813 71.4059 157.569C71.4059 158.325 71.2753 158.973 71.0139 159.515C70.7526 160.056 70.3886 160.476 69.9219 160.775C69.4646 161.064 68.9233 161.209 68.2979 161.209ZM68.0599 160.285C68.7226 160.285 69.2546 160.056 69.6559 159.599C70.0573 159.141 70.2579 158.465 70.2579 157.569C70.2579 156.673 70.0573 155.996 69.6559 155.539C69.2546 155.072 68.7226 154.839 68.0599 154.839C67.3973 154.839 66.8653 155.072 66.4639 155.539C66.0719 155.996 65.8759 156.673 65.8759 157.569C65.8759 158.455 66.0719 159.132 66.4639 159.599C66.8653 160.056 67.3973 160.285 68.0599 160.285ZM76.3985 161.209C75.2971 161.209 74.4291 160.891 73.7945 160.257C73.1598 159.613 72.8425 158.721 72.8425 157.583C72.8425 156.845 72.9825 156.206 73.2625 155.665C73.5425 155.114 73.9345 154.689 74.4385 154.391C74.9425 154.083 75.5211 153.929 76.1745 153.929C76.8185 153.929 77.3598 154.064 77.7985 154.335C78.2371 154.605 78.5731 154.993 78.8065 155.497C79.0398 155.991 79.1565 156.579 79.1565 157.261V157.681H73.7105V156.967H78.4145L78.1765 157.149C78.1765 156.402 78.0085 155.819 77.6725 155.399C77.3365 154.979 76.8371 154.769 76.1745 154.769C75.4745 154.769 74.9285 155.016 74.5365 155.511C74.1445 155.996 73.9485 156.654 73.9485 157.485V157.611C73.9485 158.488 74.1631 159.155 74.5925 159.613C75.0311 160.061 75.6425 160.285 76.4265 160.285C76.8465 160.285 77.2385 160.224 77.6025 160.103C77.9758 159.972 78.3305 159.762 78.6665 159.473L79.0585 160.271C78.7505 160.569 78.3585 160.803 77.8825 160.971C77.4158 161.129 76.9211 161.209 76.3985 161.209ZM80.9757 161.083V155.749C80.9757 155.469 80.9664 155.184 80.9477 154.895C80.9384 154.605 80.9197 154.325 80.8917 154.055H81.9837L82.1237 155.763L81.9277 155.777C82.021 155.357 82.1844 155.011 82.4177 154.741C82.651 154.47 82.9264 154.269 83.2437 154.139C83.561 153.999 83.8924 153.929 84.2377 153.929C84.3777 153.929 84.499 153.933 84.6017 153.943C84.7137 153.952 84.8164 153.975 84.9097 154.013L84.8957 155.021C84.7557 154.974 84.625 154.946 84.5037 154.937C84.3917 154.918 84.261 154.909 84.1117 154.909C83.701 154.909 83.3417 155.007 83.0337 155.203C82.735 155.399 82.5064 155.651 82.3477 155.959C82.1984 156.267 82.1237 156.593 82.1237 156.939V161.083H80.9757ZM89.964 161.083V155.679C89.964 155.417 89.95 155.151 89.922 154.881C89.9034 154.601 89.88 154.325 89.852 154.055H90.944L91.084 155.595H90.916C91.1027 155.063 91.3967 154.652 91.798 154.363C92.2087 154.073 92.7034 153.929 93.282 153.929C93.87 153.929 94.346 154.069 94.71 154.349C95.0834 154.629 95.3354 155.063 95.466 155.651H95.256C95.4334 155.119 95.746 154.699 96.194 154.391C96.642 154.083 97.1647 153.929 97.762 153.929C98.5367 153.929 99.12 154.153 99.512 154.601C99.904 155.039 100.1 155.735 100.1 156.687V161.083H98.966V156.757C98.966 156.094 98.8494 155.613 98.616 155.315C98.3827 155.007 98.0094 154.853 97.496 154.853C96.908 154.853 96.4414 155.058 96.096 155.469C95.76 155.87 95.592 156.411 95.592 157.093V161.083H94.458V156.757C94.458 156.094 94.3414 155.613 94.108 155.315C93.8747 155.007 93.5014 154.853 92.988 154.853C92.4 154.853 91.938 155.058 91.602 155.469C91.266 155.87 91.098 156.411 91.098 157.093V161.083H89.964ZM105.041 161.209C104.416 161.209 103.87 161.064 103.403 160.775C102.936 160.476 102.572 160.056 102.311 159.515C102.059 158.973 101.933 158.325 101.933 157.569C101.933 156.803 102.059 156.15 102.311 155.609C102.572 155.067 102.936 154.652 103.403 154.363C103.87 154.073 104.416 153.929 105.041 153.929C105.676 153.929 106.222 154.092 106.679 154.419C107.146 154.736 107.454 155.17 107.603 155.721H107.435L107.589 154.055H108.681C108.653 154.325 108.625 154.601 108.597 154.881C108.578 155.151 108.569 155.417 108.569 155.679V161.083H107.435V159.431H107.589C107.44 159.981 107.132 160.415 106.665 160.733C106.198 161.05 105.657 161.209 105.041 161.209ZM105.265 160.285C105.937 160.285 106.469 160.056 106.861 159.599C107.253 159.132 107.449 158.455 107.449 157.569C107.449 156.673 107.253 155.996 106.861 155.539C106.469 155.072 105.937 154.839 105.265 154.839C104.602 154.839 104.07 155.072 103.669 155.539C103.277 155.996 103.081 156.673 103.081 157.569C103.081 158.455 103.277 159.132 103.669 159.599C104.07 160.056 104.602 160.285 105.265 160.285ZM110.874 161.083V154.055H112.008V161.083H110.874ZM110.734 152.459V151.185H112.134V152.459H110.734ZM116.66 161.209C116.1 161.209 115.577 161.134 115.092 160.985C114.606 160.826 114.205 160.607 113.888 160.327L114.28 159.529C114.625 159.799 114.998 160 115.4 160.131C115.81 160.261 116.235 160.327 116.674 160.327C117.234 160.327 117.654 160.229 117.934 160.033C118.223 159.827 118.368 159.547 118.368 159.193C118.368 158.922 118.274 158.707 118.088 158.549C117.91 158.381 117.616 158.25 117.206 158.157L115.904 157.891C115.306 157.76 114.858 157.541 114.56 157.233C114.261 156.915 114.112 156.514 114.112 156.029C114.112 155.618 114.219 155.259 114.434 154.951C114.648 154.633 114.961 154.386 115.372 154.209C115.782 154.022 116.263 153.929 116.814 153.929C117.327 153.929 117.798 154.008 118.228 154.167C118.666 154.316 119.03 154.535 119.32 154.825L118.914 155.609C118.634 155.338 118.312 155.137 117.948 155.007C117.593 154.867 117.224 154.797 116.842 154.797C116.291 154.797 115.876 154.909 115.596 155.133C115.325 155.347 115.19 155.632 115.19 155.987C115.19 156.257 115.274 156.481 115.442 156.659C115.619 156.827 115.89 156.953 116.254 157.037L117.556 157.303C118.19 157.443 118.662 157.662 118.97 157.961C119.287 158.25 119.446 158.642 119.446 159.137C119.446 159.557 119.329 159.925 119.096 160.243C118.862 160.551 118.536 160.789 118.116 160.957C117.705 161.125 117.22 161.209 116.66 161.209ZM121.519 158.507L121.169 151.213H122.569L122.219 158.507H121.519ZM121.155 161.083V159.655H122.583V161.083H121.155Z" fill="#92929D"/>
<defs>
<filter id="filter0_dd_89_1159" x="0" y="0.52063" width="361" height="260.836" filterUnits="userSpaceOnUse" color-interpolation-filters="sRGB">
<feFlood flood-opacity="0" result="BackgroundImageFix"/>
<feColorMatrix in="SourceAlpha" type="matrix" values="0 0 0 0 0 0 0 0 0 0 0 0 0 0 0 0 0 0 127 0" result="hardAlpha"/>
<feOffset dy="2"/>
<feGaussianBlur stdDeviation="7.5"/>
<feColorMatrix type="matrix" values="0 0 0 0 0.268354 0 0 0 0 0.268354 0 0 0 0 0.31049 0 0 0 0.1 0"/>
<feBlend mode="normal" in2="BackgroundImageFix" result="effect1_dropShadow_89_1159"/>
<feColorMatrix in="SourceAlpha" type="matrix" values="0 0 0 0 0 0 0 0 0 0 0 0 0 0 0 0 0 0 127 0" result="hardAlpha"/>
<feOffset dy="2"/>
<feGaussianBlur stdDeviation="2"/>
<feColorMatrix type="matrix" values="0 0 0 0 0.266667 0 0 0 0 0.266667 0 0 0 0 0.309804 0 0 0 0.15 0"/>
<feBlend mode="normal" in2="effect1_dropShadow_89_1159" result="effect2_dropShadow_89_1159"/>
<feBlend mode="normal" in="SourceGraphic" in2="effect2_dropShadow_89_1159" result="shape"/>
</filter>
</defs>
</svg>
