<svg width="32" height="32" viewBox="0 0 32 32" fill="none" xmlns="http://www.w3.org/2000/svg">
<path fill-rule="evenodd" clip-rule="evenodd" d="M22 16C23.84 16 25.32 14.5066 25.32 12.6666C25.32 10.8266 23.84 9.33329 22 9.33329C20.16 9.33329 18.6667 10.8266 18.6667 12.6666C18.6667 14.5066 20.16 16 22 16ZM12 14.6666C14.2133 14.6666 15.9867 12.88 15.9867 10.6666C15.9867 8.45329 14.2133 6.66663 12 6.66663C9.78666 6.66663 7.99999 8.45329 7.99999 10.6666C7.99999 12.88 9.78666 14.6666 12 14.6666ZM22 18.6666C19.56 18.6666 14.6667 19.8933 14.6667 22.3333V24C14.6667 24.7333 15.2667 25.3333 16 25.3333H28C28.7333 25.3333 29.3333 24.7333 29.3333 24V22.3333C29.3333 19.8933 24.44 18.6666 22 18.6666ZM12 17.3333C8.89332 17.3333 2.66666 18.8933 2.66666 22V24C2.66666 24.7333 3.26666 25.3333 3.99999 25.3333H12V22.3333C12 21.2 12.44 19.2133 15.16 17.7066C14 17.4666 12.88 17.3333 12 17.3333Z" fill="white"/>
</svg>
